<?xml version="1.0" standalone="no"?>
 <!DOCTYPE svg PUBLIC "-//W3C//DTD SVG 1.1//EN" 
 "http://www.w3.org/Graphics/SVG/1.1/DTD/svg11.dtd"> 
<svg
  xmlns:svg="http://www.w3.org/2000/svg"
  xmlns="http://www.w3.org/2000/svg"
  xmlns:xlink="http://www.w3.org/1999/xlink"
  version="1.1"
  width="3.812540cm" height="10.513060cm" viewBox="0 0 38125400 105130600">
<title>SVG Picture created as 881_back_panel-Edge_Cuts.svg date 2021/01/02 12:29:21 </title>
  <desc>Picture generated by PCBNEW </desc>
<g style="fill:#000000; fill-opacity:1.000000;stroke:#000000; stroke-opacity:1.000000;
stroke-linecap:round; stroke-linejoin:round;"
 transform="translate(0 0) scale(1 1)">
</g>
<g style="fill:#000000; fill-opacity:0.0; 
stroke:#000000; stroke-width:0.000000; stroke-opacity:1; 
stroke-linecap:round; stroke-linejoin:round;">
</g>
<g style="fill:#000000; fill-opacity:0.0; 
stroke:#000000; stroke-width:200000.000000; stroke-opacity:1; 
stroke-linecap:round; stroke-linejoin:round;">
<path d="M15825399 11825001
L14825399 11825001
" />
<path d="M14825399 11825001
L14825399 7325001
" />
<path d="M15825399 17275001
L22225399 17275001
" />
<path d="M15825399 7325001
L14825399 7325001
" />
<path d="M15825399 1875001
L22225399 1875001
" />
<path d="M15825399 7325001
L15825399 1875001
" />
<path d="M15825399 17275001
L15825399 11825001
" />
<path d="M22225399 17275001
L22225399 1875001
" />
<path d="M15825399 35825001
L14825399 35825001
" />
<path d="M14825399 35825001
L14825399 31325001
" />
<path d="M15825399 31325001
L14825399 31325001
" />
<path d="M15825399 27175001
L22225399 27175001
" />
<path d="M15825399 31325001
L15825399 27175001
" />
<path d="M15825399 39975001
L15825399 35825001
" />
<path d="M22225399 39975001
L22225399 27175001
" />
<path d="M15825399 39975001
L22225399 39975001
" />
</g>
<g style="fill:#000000; fill-opacity:0.0; 
stroke:#000000; stroke-width:150000.000000; stroke-opacity:1; 
stroke-linecap:round; stroke-linejoin:round;">
<path d="M38050399 105075001
L38050399 75001
" />
<path d="M50399 105075001
L38050399 105075001
" />
<path d="M50399 75001
L50399 105075001
" />
<path d="M38050399 75001
L50399 75001
" />
<g >
</g>
<g >
</g>
<g >
</g>
<g >
</g>
<g >
</g>
<g >
</g>
<g >
</g>
<g >
</g>
<g >
</g>
</g> 
</svg>
