  0
SECTION
  2
HEADER
  9
$ACADVER
  1
AC1009
  9
$DWGCODEPAGE
  3
ansi_1252
  9
$INSBASE
 10
0.0
 20
0.0
 30
0.0
  9
$EXTMIN
 10
0.0
 20
0.0
 30
0.0
  9
$EXTMAX
 10
37.99999999999999
 20
104.9999860754266
 30
33.446811388596
  9
$LIMMIN
 10
0.0
 20
0.0
  9
$LIMMAX
 10
420.0
 20
297.0
  9
$ORTHOMODE
 70
     0
  9
$REGENMODE
 70
     1
  9
$FILLMODE
 70
     1
  9
$QTEXTMODE
 70
     0
  9
$MIRRTEXT
 70
     1
  9
$DRAGMODE
 70
     2
  9
$LTSCALE
 40
1.0
  9
$OSMODE
 70
    37
  9
$ATTMODE
 70
     1
  9
$TEXTSIZE
 40
2.5
  9
$TRACEWID
 40
1.0
  9
$TEXTSTYLE
  7
STANDARD
  9
$CLAYER
  8
0
  9
$CELTYPE
  6
BYLAYER
  9
$CECOLOR
 62
   256
  9
$DIMSCALE
 40
1.0
  9
$DIMASZ
 40
2.5
  9
$DIMEXO
 40
0.625
  9
$DIMDLI
 40
3.75
  9
$DIMRND
 40
0.0
  9
$DIMDLE
 40
0.0
  9
$DIMEXE
 40
1.25
  9
$DIMTP
 40
0.0
  9
$DIMTM
 40
0.0
  9
$DIMTXT
 40
2.5
  9
$DIMCEN
 40
2.5
  9
$DIMTSZ
 40
0.0
  9
$DIMTOL
 70
     0
  9
$DIMLIM
 70
     0
  9
$DIMTIH
 70
     0
  9
$DIMTOH
 70
     0
  9
$DIMSE1
 70
     0
  9
$DIMSE2
 70
     0
  9
$DIMTAD
 70
     1
  9
$DIMZIN
 70
     8
  9
$DIMBLK
  1

  9
$DIMASO
 70
     1
  9
$DIMSHO
 70
     1
  9
$DIMPOST
  1

  9
$DIMAPOST
  1

  9
$DIMALT
 70
     0
  9
$DIMALTD
 70
     3
  9
$DIMALTF
 40
0.03937007874016
  9
$DIMLFAC
 40
1.0
  9
$DIMTOFL
 70
     1
  9
$DIMTVP
 40
0.0
  9
$DIMTIX
 70
     0
  9
$DIMSOXD
 70
     0
  9
$DIMSAH
 70
     0
  9
$DIMBLK1
  1

  9
$DIMBLK2
  1

  9
$DIMSTYLE
  2
ISO-25
  9
$DIMCLRD
 70
     0
  9
$DIMCLRE
 70
     0
  9
$DIMCLRT
 70
     0
  9
$DIMTFAC
 40
1.0
  9
$DIMGAP
 40
0.625
  9
$LUNITS
 70
     2
  9
$LUPREC
 70
     4
  9
$SKETCHINC
 40
1.0
  9
$FILLETRAD
 40
10.0
  9
$AUNITS
 70
     0
  9
$AUPREC
 70
     0
  9
$MENU
  1
.
  9
$ELEVATION
 40
0.0
  9
$PELEVATION
 40
0.0
  9
$THICKNESS
 40
0.0
  9
$LIMCHECK
 70
     0
  9
$CHAMFERA
 40
0.0
  9
$CHAMFERB
 40
0.0
  9
$SKPOLY
 70
     0
  9
$TDCREATE
 40
2305814.567476852
  9
$TDUPDATE
 40
2458384.734151898
  9
$TDINDWG
 40
0.0000000116
  9
$TDUSRTIMER
 40
0.0000000116
  9
$USRTIMER
 70
     1
  9
$ANGBASE
 50
0.0
  9
$ANGDIR
 70
     0
  9
$PDMODE
 70
     0
  9
$PDSIZE
 40
0.0
  9
$PLINEWID
 40
0.0
  9
$COORDS
 70
     1
  9
$SPLFRAME
 70
     0
  9
$SPLINETYPE
 70
     6
  9
$SPLINESEGS
 70
     8
  9
$ATTDIA
 70
     0
  9
$ATTREQ
 70
     1
  9
$HANDLING
 70
     1
  9
$HANDSEED
  5
AF
  9
$SURFTAB1
 70
     6
  9
$SURFTAB2
 70
     6
  9
$SURFTYPE
 70
     6
  9
$SURFU
 70
     6
  9
$SURFV
 70
     6
  9
$UCSNAME
  2

  9
$UCSORG
 10
0.0
 20
0.0
 30
0.0
  9
$UCSXDIR
 10
1.0
 20
0.0
 30
0.0
  9
$UCSYDIR
 10
0.0
 20
1.0
 30
0.0
  9
$PUCSNAME
  2

  9
$PUCSORG
 10
0.0
 20
0.0
 30
0.0
  9
$PUCSXDIR
 10
1.0
 20
0.0
 30
0.0
  9
$PUCSYDIR
 10
0.0
 20
1.0
 30
0.0
  9
$USERI1
 70
     0
  9
$USERI2
 70
     0
  9
$USERI3
 70
     0
  9
$USERI4
 70
     0
  9
$USERI5
 70
     0
  9
$USERR1
 40
0.0
  9
$USERR2
 40
0.0
  9
$USERR3
 40
0.0
  9
$USERR4
 40
0.0
  9
$USERR5
 40
0.0
  9
$WORLDVIEW
 70
     1
  9
$SHADEDGE
 70
     3
  9
$SHADEDIF
 70
    70
  9
$TILEMODE
 70
     1
  9
$MAXACTVP
 70
    64
  9
$PLIMCHECK
 70
     0
  9
$PEXTMIN
 10
1.000000000000000E+20
 20
1.000000000000000E+20
 30
1.000000000000000E+20
  9
$PEXTMAX
 10
-1.000000000000000E+20
 20
-1.000000000000000E+20
 30
-1.000000000000000E+20
  9
$PLIMMIN
 10
0.0
 20
0.0
  9
$PLIMMAX
 10
420.0
 20
297.0
  9
$UNITMODE
 70
     0
  9
$VISRETAIN
 70
     1
  9
$PLINEGEN
 70
     0
  9
$PSLTSCALE
 70
     1
  0
ENDSEC
  0
SECTION
  2
TABLES
  0
TABLE
  2
VPORT
 70
     1
  0
VPORT
  2
*ACTIVE
 70
     0
 10
0.0
 20
0.0
 11
1.0
 21
1.0
 12
19.0
 22
52.49999303771331
 13
0.0
 23
0.0
 14
10.0
 24
10.0
 15
10.0
 25
10.0
 16
0.0
 26
0.0
 36
1.0
 17
0.0
 27
0.0
 37
0.0
 40
107.0999857969352
 41
0.3619048098987627
 42
50.0
 43
0.0
 44
0.0
 50
0.0
 51
0.0
 71
     0
 72
   100
 73
     1
 74
     3
 75
     0
 76
     0
 77
     0
 78
     0
  0
ENDTAB
  0
TABLE
  2
LTYPE
 70
    11
  0
LTYPE
  2
CONTINUOUS
 70
     0
  3
Solid line
 72
    65
 73
     0
 40
0.0
  0
LTYPE
  2
BORDER
 70
     0
  3
__ __ . __ __ . __ 
 72
    65
 73
     6
 40
0.875
 49
0.25
 49
-0.125
 49
0.25
 49
-0.125
 49
0.0
 49
-0.125
  0
LTYPE
  2
CENTER
 70
     0
  3
___ _ ___ _ ___ _ _
 72
    65
 73
     4
 40
1.125
 49
0.75
 49
-0.125
 49
0.125
 49
-0.125
  0
LTYPE
  2
DASHDOT
 70
     0
  3
_._._._._._._._._._
 72
    65
 73
     4
 40
0.5
 49
0.25
 49
-0.125
 49
0.0
 49
-0.125
  0
LTYPE
  2
DASHED
 70
     0
  3
_ _ _ _ _ _ _ _ _ _
 72
    65
 73
     2
 40
0.375
 49
0.25
 49
-0.125
  0
LTYPE
  2
DIVIDE
 70
     0
  3
__..__..__..__..__.
 72
    65
 73
     6
 40
0.625
 49
0.25
 49
-0.125
 49
0.0
 49
-0.125
 49
0.0
 49
-0.125
  0
LTYPE
  2
DOT
 70
     0
  3
...................
 72
    65
 73
     2
 40
0.125
 49
0.0
 49
-0.125
  0
LTYPE
  2
HIDDEN
 70
     0
  3
__ __ __ __ __ __ _
 72
    65
 73
     2
 40
0.1875
 49
0.125
 49
-0.0625
  0
LTYPE
  2
PHANTOM
 70
     0
  3
___ _ _ ___ _ _ ___
 72
    65
 73
     6
 40
1.25
 49
0.625
 49
-0.125
 49
0.125
 49
-0.125
 49
0.125
 49
-0.125
  0
LTYPE
  2
CUTTING
 70
     0
  3
________ _ _ ______
 72
    65
 73
     6
 40
1.4675
 49
1.0
 49
-0.0725
 49
0.125
 49
-0.0725
 49
0.125
 49
-0.0725
  0
LTYPE
  2
STITCH
 70
     0
  3
_ _ _ _ _ _ _ _ _ _
 72
    65
 73
     2
 40
0.145
 49
0.0725
 49
-0.0725
  0
ENDTAB
  0
TABLE
  2
LAYER
 70
     4
  0
LAYER
  2
0
 70
     0
 62
     7
  6
CONTINUOUS
  0
LAYER
  2
DXF_881_HOLE_CENTRES0
 70
     0
 62
     7
  6
CONTINUOUS
  0
LAYER
  2
DXF_881_HOLE_CENTRES0_MODE
 70
     0
 62
     7
  6
CONTINUOUS
  0
LAYER
  2
DXF_881_HOLE_CENTRES0_MOD0
 70
     0
 62
     7
  6
CONTINUOUS
  0
ENDTAB
  0
TABLE
  2
STYLE
 70
     1
  0
STYLE
  2
STANDARD
 70
     0
 40
0.0
 41
1.0
 50
0.0
 71
     0
 42
2.5
  3
txt
  4

  0
ENDTAB
  0
TABLE
  2
VIEW
 70
     0
  0
ENDTAB
  0
TABLE
  2
UCS
 70
     0
  0
ENDTAB
  0
TABLE
  2
APPID
 70
     2
  0
APPID
  2
ACAD
 70
     0
  0
APPID
  2
ENCORE_SOFTWARE_VIACAD
 70
     0
  0
ENDTAB
  0
TABLE
  2
DIMSTYLE
 70
     1
  0
DIMSTYLE
  2
ISO-25
 70
     0
  3

  4

  5

  6

  7

 40
1.0
 41
2.5
 42
0.625
 43
3.75
 44
1.25
 45
0.0
 46
0.0
 47
0.0
 48
0.0
140
2.5
141
2.5
142
0.0
143
0.03937007874016
144
1.0
145
0.0
146
1.0
147
0.625
 71
     0
 72
     0
 73
     0
 74
     0
 75
     0
 76
     0
 77
     1
 78
     8
170
     0
171
     3
172
     1
173
     0
174
     0
175
     0
176
     0
177
     0
178
     0
  0
ENDTAB
  0
ENDSEC
  0
SECTION
  2
BLOCKS
  0
BLOCK
  8
0
  2
$MODEL_SPACE
 70
     0
 10
0.0
 20
0.0
 30
0.0
  3
$MODEL_SPACE
  1

  0
ENDBLK
  5
21
  8
0
  0
BLOCK
 67
     1
  8
0
  2
$PAPER_SPACE
 70
     0
 10
0.0
 20
0.0
 30
0.0
  3
$PAPER_SPACE
  1

  0
ENDBLK
  5
1D
 67
     1
  8
0
  0
ENDSEC
  0
SECTION
  2
ENTITIES
  0
LINE
  5
78
  8
DXF_881_HOLE_CENTRES0_MOD0
 62
    18
 10
8.650154443410932
 20
100.0495955508203
 30
0.0
 11
8.650154443410932
 21
93.94959384008702
 31
0.0
  0
LINE
  5
79
  8
DXF_881_HOLE_CENTRES0_MOD0
 62
    18
 10
11.70015340901405
 20
96.99959658521716
 30
0.0
 11
5.600155477807811
 21
96.99959658521716
 31
0.0
  0
LINE
  5
7A
  8
DXF_881_HOLE_CENTRES0_MOD0
 62
    18
 10
28.65014171237242
 20
100.0495955508203
 30
0.0
 11
28.65014171237242
 21
93.94959384008702
 31
0.0
  0
LINE
  5
7B
  8
DXF_881_HOLE_CENTRES0_MOD0
 62
    18
 10
31.70014067797553
 20
96.99959658521716
 30
0.0
 11
25.60014274676929
 21
96.99959658521716
 31
0.0
  0
LINE
  5
7C
  8
DXF_881_HOLE_CENTRES0_MOD0
 62
    18
 10
32.00003103190635
 20
78.0489572085925
 30
0.0
 11
32.00003103190635
 21
71.94895927738624
 31
0.0
  0
LINE
  5
7D
  8
DXF_881_HOLE_CENTRES0_MOD0
 62
    18
 10
35.05002999750948
 20
74.99896202251644
 30
0.0
 11
28.95003206630324
 21
74.99896202251644
 31
0.0
  0
LINE
  5
7E
  8
DXF_881_HOLE_CENTRES0_MOD0
 62
    18
 10
19.00002267716235
 20
78.04966775967937
 30
0.0
 11
19.00002267716235
 21
71.94966982847312
 31
0.0
  0
LINE
  5
7F
  8
DXF_881_HOLE_CENTRES0_MOD0
 62
    18
 10
22.05002164276547
 20
74.99966879407626
 30
0.0
 11
15.95002371155923
 21
74.99966879407626
 31
0.0
  0
LINE
  5
80
  8
DXF_881_HOLE_CENTRES0_MOD0
 62
    18
 10
6.000335582218238
 20
78.04966775967937
 30
0.0
 11
6.000335582218238
 21
71.94966982847312
 31
0.0
  0
LINE
  5
81
  8
DXF_881_HOLE_CENTRES0_MOD0
 62
    18
 10
9.050334547821363
 20
74.99966879407626
 30
0.0
 11
2.950332837088062
 21
74.99966879407626
 31
0.0
  0
LINE
  5
82
  8
DXF_881_HOLE_CENTRES0_MOD0
 62
    18
 10
6.000335582218238
 20
61.04927946300479
 30
0.0
 11
6.000335582218238
 21
54.94928153179855
 31
0.0
  0
LINE
  5
83
  8
DXF_881_HOLE_CENTRES0_MOD0
 62
    18
 10
9.050334547821363
 20
57.99928427692873
 30
0.0
 11
2.950332837088062
 21
57.99928427692873
 31
0.0
  0
LINE
  5
84
  8
DXF_881_HOLE_CENTRES0_MOD0
 62
    18
 10
19.00002267716235
 20
61.04927946300479
 30
0.0
 11
19.00002267716235
 21
54.94928153179855
 31
0.0
  0
LINE
  5
85
  8
DXF_881_HOLE_CENTRES0_MOD0
 62
    18
 10
22.05002164276547
 20
57.99928427692873
 30
0.0
 11
15.95002371155923
 21
57.99928427692873
 31
0.0
  0
LINE
  5
86
  8
DXF_881_HOLE_CENTRES0_MOD0
 62
    18
 10
32.00003103190635
 20
61.04856891191793
 30
0.0
 11
32.00003103190635
 21
54.94857098071166
 31
0.0
  0
LINE
  5
87
  8
DXF_881_HOLE_CENTRES0_MOD0
 62
    18
 10
35.05002999750948
 20
57.99857372584185
 30
0.0
 11
28.95003206630324
 21
57.99857372584185
 31
0.0
  0
LINE
  5
88
  8
DXF_881_HOLE_CENTRES0_MOD0
 62
    18
 10
6.000335582218238
 20
48.04889315555497
 30
0.0
 11
6.000335582218238
 21
41.94889144482169
 31
0.0
  0
LINE
  5
89
  8
DXF_881_HOLE_CENTRES0_MOD0
 62
    18
 10
9.050334547821363
 20
44.99889418995186
 30
0.0
 11
2.950332837088062
 21
44.99889418995186
 31
0.0
  0
LINE
  5
8A
  8
DXF_881_HOLE_CENTRES0_MOD0
 62
    18
 10
19.00002267716235
 20
48.04959236806068
 30
0.0
 11
19.00002267716235
 21
41.94959065732738
 31
0.0
  0
LINE
  5
8B
  8
DXF_881_HOLE_CENTRES0_MOD0
 62
    18
 10
22.05002164276547
 20
44.99959340245756
 30
0.0
 11
15.95002371155923
 21
44.99959340245756
 31
0.0
  0
LINE
  5
8C
  8
DXF_881_HOLE_CENTRES0_MOD0
 62
    18
 10
31.99967197683587
 20
48.04932024211251
 30
0.0
 11
31.99967197683587
 21
41.94932231090628
 31
0.0
  0
LINE
  5
8D
  8
DXF_881_HOLE_CENTRES0_MOD0
 62
    18
 10
35.049670942439
 20
44.99932505603645
 30
0.0
 11
28.94966923170569
 21
44.99932505603645
 31
0.0
  0
LINE
  5
8E
  8
DXF_881_HOLE_CENTRES0_MOD0
 62
    18
 10
6.000335582218238
 20
35.04920228108382
 30
0.0
 11
6.000335582218238
 21
28.94920434987758
 31
0.0
  0
LINE
  5
8F
  8
DXF_881_HOLE_CENTRES0_MOD0
 62
    18
 10
9.050334547821363
 20
31.99920709500775
 30
0.0
 11
2.950332837088062
 21
31.99920709500775
 31
0.0
  0
LINE
  5
90
  8
DXF_881_HOLE_CENTRES0_MOD0
 62
    18
 10
19.00002267716235
 20
35.04903220236622
 30
0.0
 11
19.00002267716235
 21
28.94903427115998
 31
0.0
  0
LINE
  5
91
  8
DXF_881_HOLE_CENTRES0_MOD0
 62
    18
 10
22.05002164276547
 20
31.99903701629015
 30
0.0
 11
15.95002371155923
 21
31.99903701629015
 31
0.0
  0
LINE
  5
92
  8
DXF_881_HOLE_CENTRES0_MOD0
 62
    18
 10
31.99967197683587
 20
35.04910401338032
 30
0.0
 11
31.99967197683587
 21
28.94910230264702
 31
0.0
  0
LINE
  5
93
  8
DXF_881_HOLE_CENTRES0_MOD0
 62
    18
 10
35.049670942439
 20
31.9991050477772
 30
0.0
 11
28.94966923170569
 21
31.9991050477772
 31
0.0
  0
LINE
  5
94
  8
DXF_881_HOLE_CENTRES0_MOD0
 62
    18
 10
32.00003103190635
 20
22.04952652472089
 30
0.0
 11
32.00003103190635
 21
15.94952481398758
 31
0.0
  0
LINE
  5
95
  8
DXF_881_HOLE_CENTRES0_MOD0
 62
    18
 10
35.05002999750948
 20
18.99952755911777
 30
0.0
 11
28.95003206630324
 21
18.99952755911777
 31
0.0
  0
LINE
  5
96
  8
DXF_881_HOLE_CENTRES0_MOD0
 62
    18
 10
19.00002267716235
 20
22.04952652472089
 30
0.0
 11
19.00002267716235
 21
15.94952481398758
 31
0.0
  0
LINE
  5
97
  8
DXF_881_HOLE_CENTRES0_MOD0
 62
    18
 10
22.05002164276547
 20
18.99952755911777
 30
0.0
 11
15.95002371155923
 21
18.99952755911777
 31
0.0
  0
LINE
  5
98
  8
DXF_881_HOLE_CENTRES0_MOD0
 62
    18
 10
5.99963259018548
 20
22.04881597363402
 30
0.0
 11
5.99963259018548
 21
15.94881426290072
 31
0.0
  0
LINE
  5
99
  8
DXF_881_HOLE_CENTRES0_MOD0
 62
    18
 10
9.049635335315664
 20
18.99881700803089
 30
0.0
 11
2.949633624582363
 21
18.99881700803089
 31
0.0
  0
LINE
  5
9A
  8
DXF_881_HOLE_CENTRES0_MOD0
 62
    18
 10
5.999103456397388
 20
9.049665571532117
 30
0.0
 11
5.999103456397388
 21
2.949667640325877
 31
0.0
  0
LINE
  5
9B
  8
DXF_881_HOLE_CENTRES0_MOD0
 62
    18
 10
9.049102422000509
 20
5.999670385456061
 30
0.0
 11
2.949104490794266
 21
5.999670385456061
 31
0.0
  0
LINE
  5
9C
  8
DXF_881_HOLE_CENTRES0_MOD0
 62
    18
 10
32.00001969332518
 20
9.048958799972313
 30
0.0
 11
32.00001969332518
 21
2.948957089239003
 31
0.0
  0
LINE
  5
9D
  8
DXF_881_HOLE_CENTRES0_MOD0
 62
    18
 10
35.05001865892832
 20
5.998959834369176
 30
0.0
 11
28.95002072772207
 21
5.998959834369176
 31
0.0
  0
LINE
  5
9E
  8
DXF_881_HOLE_CENTRES0_MOD0
 62
    18
 10
19.00002267716235
 20
9.048958799972313
 30
0.0
 11
19.00002267716235
 21
2.948957089239003
 31
0.0
  0
LINE
  5
9F
  8
DXF_881_HOLE_CENTRES0_MOD0
 62
    18
 10
22.05002164276547
 20
5.998959834369176
 30
0.0
 11
15.95002371155923
 21
5.998959834369176
 31
0.0
  0
LINE
  5
A0
  8
DXF_881_HOLE_CENTRES0_MOD0
 62
    18
 10
0.0
 20
104.9999860754266
 30
0.0
 11
37.99999999999999
 21
104.9999860754266
 31
0.0
  0
LINE
  5
A1
  8
DXF_881_HOLE_CENTRES0_MOD0
 62
    18
 10
37.99999999999999
 20
104.9999860754266
 30
0.0
 11
37.99999999999999
 21
0.0
 31
0.0
  0
LINE
  5
A2
  8
DXF_881_HOLE_CENTRES0_MOD0
 62
    18
 10
37.99999999999999
 20
0.0
 30
0.0
 11
0.0
 21
0.0
 31
0.0
  0
LINE
  5
A3
  8
DXF_881_HOLE_CENTRES0_MOD0
 62
    18
 10
0.0
 20
0.0
 30
0.0
 11
0.0
 21
104.9999860754266
 31
0.0
  0
ENDSEC
  0
EOF
