G04 #@! TF.FileFunction,Soldermask,Top*
%FSLAX46Y46*%
G04 Gerber Fmt 4.6, Leading zero omitted, Abs format (unit mm)*
G04 Created by KiCad (PCBNEW 4.0.2-stable) date 2021-01-02 10:32:37 AM*
%MOMM*%
G01*
G04 APERTURE LIST*
%ADD10C,0.200000*%
%ADD11C,3.225000*%
%ADD12R,1.850000X1.850000*%
%ADD13C,1.850000*%
%ADD14R,2.050000X1.550000*%
%ADD15O,2.050000X1.550000*%
%ADD16O,2.550000X4.050000*%
%ADD17O,2.050000X2.550000*%
%ADD18O,3.550000X1.550000*%
%ADD19C,2.550000*%
%ADD20R,2.550000X3.550000*%
%ADD21O,4.650000X1.500000*%
%ADD22O,4.350000X1.150000*%
%ADD23O,1.150000X4.350000*%
%ADD24C,1.150000*%
G04 APERTURE END LIST*
D10*
D11*
X143300000Y-93900000D03*
X124000000Y-147900000D03*
X131700000Y-75800000D03*
D12*
X130500000Y-153250000D03*
D13*
X130500000Y-156750000D03*
D14*
X132020000Y-85960000D03*
D15*
X128980000Y-85960000D03*
X132020000Y-88500000D03*
X128980000Y-88500000D03*
X132020000Y-91040000D03*
X128980000Y-91040000D03*
D16*
X115300000Y-61000000D03*
D17*
X124700000Y-61000000D03*
D18*
X120000000Y-56100000D03*
X120000000Y-64300000D03*
D16*
X136300000Y-61000000D03*
D17*
X145700000Y-61000000D03*
D18*
X141000000Y-56100000D03*
X141000000Y-64300000D03*
D16*
X112800000Y-155000000D03*
D17*
X122200000Y-155000000D03*
D18*
X117500000Y-150100000D03*
X117500000Y-158300000D03*
D16*
X138800000Y-155000000D03*
D17*
X148200000Y-155000000D03*
D18*
X143500000Y-150100000D03*
X143500000Y-158300000D03*
D16*
X112800000Y-103000000D03*
D17*
X122200000Y-103000000D03*
D18*
X117500000Y-98100000D03*
X117500000Y-106300000D03*
D16*
X125800000Y-103000000D03*
D17*
X135200000Y-103000000D03*
D18*
X130500000Y-98100000D03*
X130500000Y-106300000D03*
D16*
X138800000Y-103000000D03*
D17*
X148200000Y-103000000D03*
D18*
X143500000Y-98100000D03*
X143500000Y-106300000D03*
D16*
X112800000Y-116000000D03*
D17*
X122200000Y-116000000D03*
D18*
X117500000Y-111100000D03*
X117500000Y-119300000D03*
D16*
X125800000Y-116000000D03*
D17*
X135200000Y-116000000D03*
D18*
X130500000Y-111100000D03*
X130500000Y-119300000D03*
D16*
X138800000Y-116000000D03*
D17*
X148200000Y-116000000D03*
D18*
X143500000Y-111100000D03*
X143500000Y-119300000D03*
D16*
X112800000Y-129000000D03*
D17*
X122200000Y-129000000D03*
D18*
X117500000Y-124100000D03*
X117500000Y-132300000D03*
D16*
X125800000Y-129000000D03*
D17*
X135200000Y-129000000D03*
D18*
X130500000Y-124100000D03*
X130500000Y-132300000D03*
D16*
X138800000Y-129000000D03*
D17*
X148200000Y-129000000D03*
D18*
X143500000Y-124100000D03*
X143500000Y-132300000D03*
D16*
X112800000Y-142000000D03*
D17*
X122200000Y-142000000D03*
D18*
X117500000Y-137100000D03*
X117500000Y-145300000D03*
D16*
X125800000Y-142000000D03*
D17*
X135200000Y-142000000D03*
D18*
X130500000Y-137100000D03*
X130500000Y-145300000D03*
D16*
X138800000Y-142000000D03*
D17*
X148200000Y-142000000D03*
D18*
X143500000Y-137100000D03*
X143500000Y-145300000D03*
D15*
X128980000Y-68310000D03*
X132020000Y-68310000D03*
D14*
X132020000Y-60690000D03*
D15*
X128980000Y-60690000D03*
X132020000Y-63230000D03*
X128980000Y-63230000D03*
X132020000Y-65770000D03*
X128980000Y-65770000D03*
D11*
X114500000Y-93750000D03*
D19*
X114500000Y-83000000D03*
X125500000Y-83000000D03*
X120000000Y-88500000D03*
D20*
X120000000Y-78500000D03*
D19*
X116110000Y-86890000D03*
X123890000Y-86890000D03*
D21*
X120000000Y-78500000D03*
D22*
X115900000Y-83000000D03*
X124100000Y-83000000D03*
D23*
X120000000Y-87100000D03*
D24*
X115968629Y-87031371D02*
X118231371Y-84768629D01*
X121768629Y-84768629D02*
X124031371Y-87031371D01*
D19*
X135500000Y-83000000D03*
X146500000Y-83000000D03*
X141000000Y-88500000D03*
D20*
X141000000Y-78500000D03*
D19*
X137110000Y-86890000D03*
X144890000Y-86890000D03*
D21*
X141000000Y-78500000D03*
D22*
X136900000Y-83000000D03*
X145100000Y-83000000D03*
D23*
X141000000Y-87100000D03*
D24*
X136968629Y-87031371D02*
X139231371Y-84768629D01*
X142768629Y-84768629D02*
X145031371Y-87031371D01*
M02*
