M48
;DRILL file {KiCad 4.0.2-stable} date 2021-01-02 10:32:48 AM
;FORMAT={2:4/ absolute / inch / suppress leading zeros}
FMAT,2
INCH,TZ
T1C0.018
T2C0.020
T3C0.035
T4C0.039
T5C0.053
T6C0.055
T7C0.059
T8C0.125
%
G90
G05
M72
T1
X45315Y-26220
X45787Y-26220
X46693Y-27953
X46811Y-25866
X47165Y-27648
X47677Y-47677
X48071Y-53150
X48268Y-27717
X48819Y-29528
X51929Y-42953
X52756Y-37205
X52795Y-52756
X52795Y-47638
X53504Y-27992
X54449Y-27559
X54961Y-29606
X55472Y-29606
X55984Y-28465
X56457Y-28465
X56969Y-28465
X56969Y-29843
X57756Y-62087
X57884Y-52717
X57913Y-42441
X57913Y-47677
X58307Y-58268
T2
X45669Y-29724
X45787Y-28386
X45906Y-30433
X46014Y-37813
X46181Y-61063
X46575Y-37795
X46575Y-42913
X46575Y-48031
X46575Y-53150
X49331Y-26890
X50157Y-30354
X50157Y-31102
X50157Y-31693
X50591Y-31693
X50591Y-32126
X50591Y-32559
X50592Y-32982
X50984Y-30354
X51693Y-48031
X51693Y-53150
X53051Y-41437
X53307Y-60551
X53543Y-29803
X54016Y-37559
X54488Y-30433
X54652Y-32181
X56417Y-61181
X56732Y-53150
X56811Y-48031
X56850Y-42913
X56890Y-37795
X56929Y-35315
X57323Y-30945
T3
X51378Y-60335
X51378Y-61713
T4
X50878Y-23894
X50878Y-24894
X50878Y-25894
X50878Y-26894
X50878Y-33843
X50878Y-34843
X50878Y-35843
X51878Y-23894
X51878Y-24894
X51878Y-25894
X51878Y-26894
X51878Y-33843
X51878Y-34843
X51878Y-35843
T6
X45079Y-32677
X45713Y-34209
X47244Y-34843
X48776Y-34209
X49409Y-32677
X53346Y-32677
X53980Y-34209
X55512Y-34843
X57043Y-34209
X57677Y-32677
T7
X47244Y-30906
X55512Y-30906
T8
X45079Y-36909
X48819Y-58228
X51850Y-29843
X56417Y-36969
T2
X45866Y-38622G85X46654Y-38622
G05
X45866Y-41850G85X46654Y-41850
G05
X45866Y-43740G85X46654Y-43740
G05
X45866Y-46969G85X46654Y-46969
G05
X45866Y-48858G85X46654Y-48858
G05
X45866Y-52087G85X46654Y-52087
G05
X45866Y-53976G85X46654Y-53976
G05
X45866Y-57205G85X46654Y-57205
G05
X45866Y-59094G85X46654Y-59094
G05
X45866Y-62323G85X46654Y-62323
G05
X46850Y-22087G85X47638Y-22087
G05
X46850Y-25315G85X47638Y-25315
G05
X50984Y-38622G85X51772Y-38622
G05
X50984Y-41850G85X51772Y-41850
G05
X50984Y-43740G85X51772Y-43740
G05
X50984Y-46969G85X51772Y-46969
G05
X50984Y-48858G85X51772Y-48858
G05
X50984Y-52087G85X51772Y-52087
G05
X50984Y-53976G85X51772Y-53976
G05
X50984Y-57205G85X51772Y-57205
G05
X55118Y-22087G85X55906Y-22087
G05
X55118Y-25315G85X55906Y-25315
G05
X56102Y-38622G85X56890Y-38622
G05
X56102Y-41850G85X56890Y-41850
G05
X56102Y-43740G85X56890Y-43740
G05
X56102Y-46969G85X56890Y-46969
G05
X56102Y-48858G85X56890Y-48858
G05
X56102Y-52087G85X56890Y-52087
G05
X56102Y-53976G85X56890Y-53976
G05
X56102Y-57205G85X56890Y-57205
G05
X56102Y-59094G85X56890Y-59094
G05
X56102Y-62323G85X56890Y-62323
G05
T4
X44409Y-40256G85X44409Y-40846
G05
X44409Y-45374G85X44409Y-45965
G05
X44409Y-50492G85X44409Y-51083
G05
X44409Y-55610G85X44409Y-56201
G05
X44409Y-60728G85X44409Y-61319
G05
X45394Y-23720G85X45394Y-24311
G05
X45000Y-32677G85X46260Y-32677
G05
X45657Y-34264G85X46548Y-33373
G05
X47244Y-34921G85X47244Y-33661
G05
X48110Y-40453G85X48110Y-40650
G05
X48110Y-45571G85X48110Y-45768
G05
X48110Y-50689G85X48110Y-50886
G05
X48110Y-55807G85X48110Y-56004
G05
X48110Y-60925G85X48110Y-61122
G05
X47940Y-33373G85X48831Y-34264
G05
X48228Y-32677G85X49488Y-32677
G05
X49094Y-23917G85X49094Y-24114
G05
X49528Y-40256G85X49528Y-40846
G05
X49528Y-45374G85X49528Y-45965
G05
X49528Y-50492G85X49528Y-51083
G05
X49528Y-55610G85X49528Y-56201
G05
X53228Y-40453G85X53228Y-40650
G05
X53228Y-45571G85X53228Y-45768
G05
X53228Y-50689G85X53228Y-50886
G05
X53228Y-55807G85X53228Y-56004
G05
X53661Y-23720G85X53661Y-24311
G05
X53268Y-32677G85X54528Y-32677
G05
X53925Y-34264G85X54816Y-33373
G05
X54646Y-40256G85X54646Y-40846
G05
X54646Y-45374G85X54646Y-45965
G05
X54646Y-50492G85X54646Y-51083
G05
X54646Y-55610G85X54646Y-56201
G05
X54646Y-60728G85X54646Y-61319
G05
X55512Y-34921G85X55512Y-33661
G05
X56208Y-33373G85X57099Y-34264
G05
X56496Y-32677G85X57756Y-32677
G05
X57362Y-23917G85X57362Y-24114
G05
X58346Y-40453G85X58346Y-40650
G05
X58346Y-45571G85X58346Y-45768
G05
X58346Y-50689G85X58346Y-50886
G05
X58346Y-55807G85X58346Y-56004
G05
X58346Y-60925G85X58346Y-61122
G05
T5
X46624Y-30906G85X47864Y-30906
G05
X54892Y-30906G85X56132Y-30906
G05
T0
M30
