%TF.GenerationSoftware,KiCad,Pcbnew,5.99.0-unknown-909dca71c~104~ubuntu18.04.1*%
%TF.CreationDate,2021-01-02T13:38:36-05:00*%
%TF.ProjectId,881_back_panel,3838315f-6261-4636-9b5f-70616e656c2e,rev?*%
%TF.SameCoordinates,Original*%
%TF.FileFunction,Profile,NP*%
%FSLAX46Y46*%
G04 Gerber Fmt 4.6, Leading zero omitted, Abs format (unit mm)*
G04 Created by KiCad (PCBNEW 5.99.0-unknown-909dca71c~104~ubuntu18.04.1) date 2021-01-02 13:38:36*
%MOMM*%
%LPD*%
G01*
G04 APERTURE LIST*
%TA.AperFunction,Profile*%
%ADD10C,0.200000*%
%TD*%
%TA.AperFunction,Profile*%
%ADD11C,0.150000*%
%TD*%
G04 APERTURE END LIST*
D10*
X133725000Y-94900000D02*
X127325000Y-94900000D01*
X127325000Y-94900000D02*
X127325000Y-82100000D01*
X133725000Y-94900000D02*
X133725000Y-90750000D01*
X133725000Y-86250000D02*
X133725000Y-82100000D01*
X133725000Y-82100000D02*
X127325000Y-82100000D01*
X133725000Y-86250000D02*
X134725000Y-86250000D01*
X134725000Y-90750000D02*
X134725000Y-86250000D01*
X133725000Y-90750000D02*
X134725000Y-90750000D01*
X133725000Y-56800000D02*
X127325000Y-56800000D01*
D11*
X149500000Y-160000000D02*
X111500000Y-160000000D01*
D10*
X133725000Y-62250000D02*
X133725000Y-56800000D01*
X133725000Y-62250000D02*
X134725000Y-62250000D01*
D11*
X149500000Y-55000000D02*
X149500000Y-160000000D01*
D10*
X134725000Y-66750000D02*
X134725000Y-62250000D01*
X127325000Y-72200000D02*
X127325000Y-56800000D01*
X133725000Y-72200000D02*
X127325000Y-72200000D01*
D11*
X111500000Y-160000000D02*
X111500000Y-55000000D01*
D10*
X133725000Y-66750000D02*
X134725000Y-66750000D01*
D11*
X111500000Y-55000000D02*
X149500000Y-55000000D01*
D10*
X133725000Y-72200000D02*
X133725000Y-66750000D01*
M02*
