G04 #@! TF.FileFunction,Soldermask,Bot*
%FSLAX46Y46*%
G04 Gerber Fmt 4.6, Leading zero omitted, Abs format (unit mm)*
G04 Created by KiCad (PCBNEW 4.0.2-stable) date 2020-09-28 8:48:27 PM*
%MOMM*%
G01*
G04 APERTURE LIST*
%ADD10C,0.200000*%
%ADD11C,3.225000*%
%ADD12C,2.550000*%
%ADD13R,1.850000X1.850000*%
%ADD14C,1.850000*%
%ADD15R,1.250000X1.250000*%
%ADD16R,1.650000X2.050000*%
%ADD17R,0.850000X0.950000*%
%ADD18R,0.950000X0.850000*%
%ADD19R,1.050000X1.300000*%
%ADD20R,1.250000X0.950000*%
%ADD21R,0.550000X0.550000*%
%ADD22R,2.050000X1.550000*%
%ADD23O,2.050000X1.550000*%
%ADD24O,2.550000X4.050000*%
%ADD25O,2.050000X2.550000*%
%ADD26O,3.550000X1.550000*%
%ADD27R,0.751040X1.050760*%
%ADD28R,0.650000X1.550000*%
%ADD29R,0.450000X0.700000*%
G04 APERTURE END LIST*
D10*
D11*
X143300000Y-93900000D03*
X124000000Y-147900000D03*
X131700000Y-75800000D03*
D12*
X135500000Y-83000000D03*
X146500000Y-83000000D03*
X141000000Y-88500000D03*
X141000000Y-78500000D03*
X137110000Y-86890000D03*
X144890000Y-86890000D03*
D13*
X130500000Y-153250000D03*
D14*
X130500000Y-156750000D03*
D15*
X131600000Y-155000000D03*
X129400000Y-155000000D03*
D16*
X130500000Y-155000000D03*
D17*
X121500000Y-90900000D03*
X121500000Y-92600000D03*
X115000000Y-75650000D03*
X115000000Y-77350000D03*
X137000000Y-75650000D03*
X137000000Y-77350000D03*
D18*
X133400000Y-152250000D03*
X135100000Y-152250000D03*
D19*
X128500000Y-79000000D03*
X130500000Y-79000000D03*
D17*
X128500000Y-77100000D03*
X128500000Y-75400000D03*
X143500000Y-77600000D03*
X143500000Y-75900000D03*
D20*
X115750000Y-155150000D03*
X115750000Y-151850000D03*
X119500000Y-151850000D03*
X119500000Y-155150000D03*
X141750000Y-155400000D03*
X141750000Y-152100000D03*
X145500000Y-152100000D03*
X145500000Y-155400000D03*
D21*
X116000000Y-102100000D03*
X116000000Y-99900000D03*
D22*
X132020000Y-85960000D03*
D23*
X128980000Y-85960000D03*
X132020000Y-88500000D03*
X128980000Y-88500000D03*
X132020000Y-91040000D03*
X128980000Y-91040000D03*
D24*
X115300000Y-61000000D03*
D25*
X124700000Y-61000000D03*
D26*
X120000000Y-56100000D03*
X120000000Y-64300000D03*
D24*
X136300000Y-61000000D03*
D25*
X145700000Y-61000000D03*
D26*
X141000000Y-56100000D03*
X141000000Y-64300000D03*
D24*
X112800000Y-155000000D03*
D25*
X122200000Y-155000000D03*
D26*
X117500000Y-150100000D03*
X117500000Y-158300000D03*
D24*
X138800000Y-155000000D03*
D25*
X148200000Y-155000000D03*
D26*
X143500000Y-150100000D03*
X143500000Y-158300000D03*
D24*
X112800000Y-103000000D03*
D25*
X122200000Y-103000000D03*
D26*
X117500000Y-98100000D03*
X117500000Y-106300000D03*
D24*
X125800000Y-103000000D03*
D25*
X135200000Y-103000000D03*
D26*
X130500000Y-98100000D03*
X130500000Y-106300000D03*
D24*
X138800000Y-103000000D03*
D25*
X148200000Y-103000000D03*
D26*
X143500000Y-98100000D03*
X143500000Y-106300000D03*
D24*
X112800000Y-116000000D03*
D25*
X122200000Y-116000000D03*
D26*
X117500000Y-111100000D03*
X117500000Y-119300000D03*
D24*
X125800000Y-116000000D03*
D25*
X135200000Y-116000000D03*
D26*
X130500000Y-111100000D03*
X130500000Y-119300000D03*
D24*
X138800000Y-116000000D03*
D25*
X148200000Y-116000000D03*
D26*
X143500000Y-111100000D03*
X143500000Y-119300000D03*
D24*
X112800000Y-129000000D03*
D25*
X122200000Y-129000000D03*
D26*
X117500000Y-124100000D03*
X117500000Y-132300000D03*
D24*
X125800000Y-129000000D03*
D25*
X135200000Y-129000000D03*
D26*
X130500000Y-124100000D03*
X130500000Y-132300000D03*
D24*
X138800000Y-129000000D03*
D25*
X148200000Y-129000000D03*
D26*
X143500000Y-124100000D03*
X143500000Y-132300000D03*
D24*
X112800000Y-142000000D03*
D25*
X122200000Y-142000000D03*
D26*
X117500000Y-137100000D03*
X117500000Y-145300000D03*
D24*
X125800000Y-142000000D03*
D25*
X135200000Y-142000000D03*
D26*
X130500000Y-137100000D03*
X130500000Y-145300000D03*
D24*
X138800000Y-142000000D03*
D25*
X148200000Y-142000000D03*
D26*
X143500000Y-137100000D03*
X143500000Y-145300000D03*
D23*
X128980000Y-68310000D03*
X132020000Y-68310000D03*
D22*
X132020000Y-60690000D03*
D23*
X128980000Y-60690000D03*
X132020000Y-63230000D03*
X128980000Y-63230000D03*
X132020000Y-65770000D03*
X128980000Y-65770000D03*
D27*
X121250000Y-97480000D03*
X120297500Y-100020000D03*
X122202500Y-100020000D03*
X134250000Y-97480000D03*
X133297500Y-100020000D03*
X135202500Y-100020000D03*
X147500000Y-97480000D03*
X146547500Y-100020000D03*
X148452500Y-100020000D03*
X121250000Y-110480000D03*
X120297500Y-113020000D03*
X122202500Y-113020000D03*
X134250000Y-110480000D03*
X133297500Y-113020000D03*
X135202500Y-113020000D03*
X147250000Y-110480000D03*
X146297500Y-113020000D03*
X148202500Y-113020000D03*
X121250000Y-123480000D03*
X120297500Y-126020000D03*
X122202500Y-126020000D03*
X134250000Y-123480000D03*
X133297500Y-126020000D03*
X135202500Y-126020000D03*
X147250000Y-123480000D03*
X146297500Y-126020000D03*
X148202500Y-126020000D03*
X121250000Y-136480000D03*
X120297500Y-139020000D03*
X122202500Y-139020000D03*
X134250000Y-136480000D03*
X133297500Y-139020000D03*
X135202500Y-139020000D03*
X147250000Y-136480000D03*
X146297500Y-139020000D03*
X148202500Y-139020000D03*
X135000000Y-149020000D03*
X135952500Y-146480000D03*
X134047500Y-146480000D03*
D17*
X131350000Y-150400000D03*
X129450000Y-150400000D03*
X130400000Y-148400000D03*
X134750000Y-79350000D03*
X134750000Y-77650000D03*
X120000000Y-92600000D03*
X120000000Y-90900000D03*
X143750000Y-83850000D03*
X143750000Y-82150000D03*
D18*
X117650000Y-148100000D03*
X119350000Y-148100000D03*
X146400000Y-149500000D03*
X148100000Y-149500000D03*
D17*
X117500000Y-100150000D03*
X117500000Y-101850000D03*
X130500000Y-100150000D03*
X130500000Y-101850000D03*
X143750000Y-100150000D03*
X143750000Y-101850000D03*
X117500000Y-113150000D03*
X117500000Y-114850000D03*
X119000000Y-101850000D03*
X119000000Y-100150000D03*
X132000000Y-101850000D03*
X132000000Y-100150000D03*
X145250000Y-101850000D03*
X145250000Y-100150000D03*
X119000000Y-114850000D03*
X119000000Y-113150000D03*
D18*
X119400000Y-96000000D03*
X121100000Y-96000000D03*
D17*
X136250000Y-95400000D03*
X136250000Y-97100000D03*
D18*
X145650000Y-96000000D03*
X147350000Y-96000000D03*
X119400000Y-109000000D03*
X121100000Y-109000000D03*
D17*
X130500000Y-113150000D03*
X130500000Y-114850000D03*
X143500000Y-113150000D03*
X143500000Y-114850000D03*
X117500000Y-126150000D03*
X117500000Y-127850000D03*
X130500000Y-126150000D03*
X130500000Y-127850000D03*
X132000000Y-114850000D03*
X132000000Y-113150000D03*
X145000000Y-114850000D03*
X145000000Y-113150000D03*
X119000000Y-127850000D03*
X119000000Y-126150000D03*
X132000000Y-127850000D03*
X132000000Y-126150000D03*
X134250000Y-107400000D03*
X134250000Y-109100000D03*
D18*
X145400000Y-109000000D03*
X147100000Y-109000000D03*
X119400000Y-122000000D03*
X121100000Y-122000000D03*
X132400000Y-122000000D03*
X134100000Y-122000000D03*
D17*
X143500000Y-126150000D03*
X143500000Y-127850000D03*
X117500000Y-139150000D03*
X117500000Y-140850000D03*
X130500000Y-139150000D03*
X130500000Y-140850000D03*
X143500000Y-139150000D03*
X143500000Y-140850000D03*
X145000000Y-127850000D03*
X145000000Y-126150000D03*
X119000000Y-140850000D03*
X119000000Y-139150000D03*
X132000000Y-140850000D03*
X132000000Y-139150000D03*
X145000000Y-140850000D03*
X145000000Y-139150000D03*
D18*
X145400000Y-122000000D03*
X147100000Y-122000000D03*
X119400000Y-135000000D03*
X121100000Y-135000000D03*
X132400000Y-135000000D03*
X134100000Y-135000000D03*
X145150000Y-135000000D03*
X146850000Y-135000000D03*
D17*
X122250000Y-150900000D03*
X122250000Y-152600000D03*
X148250000Y-150900000D03*
X148250000Y-152600000D03*
X147000000Y-80850000D03*
X147000000Y-79150000D03*
D18*
X134150000Y-145000000D03*
X135850000Y-145000000D03*
D17*
X137000000Y-151100000D03*
X137000000Y-149400000D03*
D18*
X133400000Y-150750000D03*
X135100000Y-150750000D03*
X135350000Y-155000000D03*
X133650000Y-155000000D03*
D28*
X115055000Y-68300000D03*
X116325000Y-68300000D03*
X117595000Y-68300000D03*
X118865000Y-68300000D03*
X120135000Y-68300000D03*
X121405000Y-68300000D03*
X122675000Y-68300000D03*
X123945000Y-68300000D03*
X123945000Y-73700000D03*
X122675000Y-73700000D03*
X121405000Y-73700000D03*
X120135000Y-73700000D03*
X118865000Y-73700000D03*
X117595000Y-73700000D03*
X116325000Y-73700000D03*
X115055000Y-73700000D03*
X137055000Y-68300000D03*
X138325000Y-68300000D03*
X139595000Y-68300000D03*
X140865000Y-68300000D03*
X142135000Y-68300000D03*
X143405000Y-68300000D03*
X144675000Y-68300000D03*
X145945000Y-68300000D03*
X145945000Y-73700000D03*
X144675000Y-73700000D03*
X143405000Y-73700000D03*
X142135000Y-73700000D03*
X140865000Y-73700000D03*
X139595000Y-73700000D03*
X138325000Y-73700000D03*
X137055000Y-73700000D03*
D29*
X145600000Y-75800000D03*
X146900000Y-75800000D03*
X146250000Y-75800000D03*
X146900000Y-77700000D03*
X145600000Y-77700000D03*
D12*
X114500000Y-83000000D03*
X125500000Y-83000000D03*
X120000000Y-88500000D03*
X120000000Y-78500000D03*
X116110000Y-86890000D03*
X123890000Y-86890000D03*
D21*
X141750000Y-140850000D03*
X141750000Y-138650000D03*
X128750000Y-141100000D03*
X128750000Y-138900000D03*
X115750000Y-141100000D03*
X115750000Y-138900000D03*
X141750000Y-128100000D03*
X141750000Y-125900000D03*
X128750000Y-128100000D03*
X128750000Y-125900000D03*
X115750000Y-128100000D03*
X115750000Y-125900000D03*
X141750000Y-115100000D03*
X141750000Y-112900000D03*
X128750000Y-115100000D03*
X128750000Y-112900000D03*
X115750000Y-115100000D03*
X115750000Y-112900000D03*
X141900000Y-102100000D03*
X141900000Y-99900000D03*
X129000000Y-102100000D03*
X129000000Y-99900000D03*
D11*
X114500000Y-93750000D03*
M02*
