G04 #@! TF.FileFunction,Soldermask,Top*
%FSLAX46Y46*%
G04 Gerber Fmt 4.6, Leading zero omitted, Abs format (unit mm)*
G04 Created by KiCad (PCBNEW 4.0.2-stable) date 2018-10-02 9:53:14 PM*
%MOMM*%
G01*
G04 APERTURE LIST*
%ADD10C,0.200000*%
%ADD11C,1.574000*%
%ADD12R,1.050000X2.050000*%
%ADD13O,2.050000X4.050000*%
%ADD14O,1.150000X2.550000*%
%ADD15O,3.550000X1.550000*%
%ADD16O,1.150000X4.050000*%
%ADD17O,1.550000X2.550000*%
%ADD18O,1.550000X2.050000*%
%ADD19R,1.550000X2.050000*%
%ADD20O,2.550000X4.050000*%
%ADD21O,2.050000X2.550000*%
%ADD22R,2.050000X1.550000*%
%ADD23O,2.050000X1.550000*%
%ADD24C,2.550000*%
%ADD25R,2.550000X3.550000*%
%ADD26O,4.650000X1.500000*%
%ADD27O,4.350000X1.150000*%
%ADD28O,1.150000X4.350000*%
%ADD29C,1.150000*%
G04 APERTURE END LIST*
D10*
D11*
X127500000Y-155000000D03*
X130500000Y-155000000D03*
X133500000Y-155000000D03*
D12*
X124000000Y-155000000D03*
X137000000Y-155000000D03*
D13*
X112800000Y-155000000D03*
D14*
X122200000Y-155000000D03*
D15*
X117500000Y-150100000D03*
X117500000Y-158300000D03*
D16*
X138800000Y-155000000D03*
D17*
X148200000Y-155000000D03*
D15*
X143500000Y-150100000D03*
X143500000Y-158300000D03*
D18*
X141930000Y-95520000D03*
X141930000Y-92480000D03*
X139390000Y-92480000D03*
X139390000Y-95520000D03*
X136850000Y-95520000D03*
X136850000Y-92480000D03*
X134310000Y-92480000D03*
X134310000Y-95520000D03*
X131770000Y-95520000D03*
X131770000Y-92480000D03*
X129230000Y-92480000D03*
X129230000Y-95520000D03*
X126690000Y-95520000D03*
X126690000Y-92480000D03*
D19*
X119070000Y-92480000D03*
D18*
X119070000Y-95520000D03*
X121610000Y-92480000D03*
X121610000Y-95520000D03*
X124150000Y-92480000D03*
X124150000Y-95520000D03*
D20*
X122200000Y-103000000D03*
D21*
X112800000Y-103000000D03*
D15*
X117500000Y-107900000D03*
X117500000Y-99700000D03*
D20*
X135200000Y-103000000D03*
D21*
X125800000Y-103000000D03*
D15*
X130500000Y-107900000D03*
X130500000Y-99700000D03*
D13*
X148200000Y-103000000D03*
D21*
X138800000Y-103000000D03*
D15*
X143500000Y-107900000D03*
X143500000Y-99700000D03*
D13*
X112800000Y-116000000D03*
D21*
X122200000Y-116000000D03*
D15*
X117500000Y-111100000D03*
X117500000Y-119300000D03*
D20*
X125800000Y-116000000D03*
D21*
X135200000Y-116000000D03*
D15*
X130500000Y-111100000D03*
X130500000Y-119300000D03*
D20*
X138800000Y-116000000D03*
D17*
X148200000Y-116000000D03*
D15*
X143500000Y-111100000D03*
X143500000Y-119300000D03*
D13*
X112800000Y-129000000D03*
D21*
X122200000Y-129000000D03*
D15*
X117500000Y-124100000D03*
X117500000Y-132300000D03*
D20*
X125800000Y-129000000D03*
D21*
X135200000Y-129000000D03*
D15*
X130500000Y-124100000D03*
X130500000Y-132300000D03*
D20*
X138800000Y-129000000D03*
D17*
X148200000Y-129000000D03*
D15*
X143500000Y-124100000D03*
X143500000Y-132300000D03*
D13*
X112800000Y-142000000D03*
D21*
X122200000Y-142000000D03*
D15*
X117500000Y-137100000D03*
X117500000Y-145300000D03*
D20*
X125800000Y-142000000D03*
D21*
X135200000Y-142000000D03*
D15*
X130500000Y-137100000D03*
X130500000Y-145300000D03*
D20*
X138800000Y-142000000D03*
D17*
X148200000Y-142000000D03*
D15*
X143500000Y-137100000D03*
X143500000Y-145300000D03*
D13*
X112800000Y-85000000D03*
D21*
X122200000Y-85000000D03*
D15*
X117500000Y-80100000D03*
X117500000Y-88300000D03*
D20*
X125800000Y-85000000D03*
D21*
X135200000Y-85000000D03*
D15*
X130500000Y-80100000D03*
X130500000Y-88300000D03*
D20*
X138800000Y-85000000D03*
D17*
X148200000Y-85000000D03*
D15*
X143500000Y-80100000D03*
X143500000Y-88300000D03*
D22*
X128480000Y-74040000D03*
D23*
X131520000Y-74040000D03*
X128480000Y-71500000D03*
X131520000Y-71500000D03*
X128480000Y-68960000D03*
X131520000Y-68960000D03*
D24*
X114650000Y-63000000D03*
X125650000Y-63000000D03*
X120150000Y-68500000D03*
D25*
X120150000Y-58500000D03*
D24*
X116260000Y-66890000D03*
X124040000Y-66890000D03*
D26*
X120150000Y-58500000D03*
D27*
X116050000Y-63000000D03*
X124250000Y-63000000D03*
D28*
X120150000Y-67100000D03*
D29*
X116118629Y-67031371D02*
X118381371Y-64768629D01*
X121918629Y-64768629D02*
X124181371Y-67031371D01*
D24*
X134650000Y-63000000D03*
X145650000Y-63000000D03*
X140150000Y-68500000D03*
D25*
X140150000Y-58500000D03*
D24*
X136260000Y-66890000D03*
X144040000Y-66890000D03*
D26*
X140150000Y-58500000D03*
D27*
X136050000Y-63000000D03*
X144250000Y-63000000D03*
D28*
X140150000Y-67100000D03*
D29*
X136118629Y-67031371D02*
X138381371Y-64768629D01*
X141918629Y-64768629D02*
X144181371Y-67031371D01*
M02*
