G04 #@! TF.FileFunction,Soldermask,Bot*
%FSLAX46Y46*%
G04 Gerber Fmt 4.6, Leading zero omitted, Abs format (unit mm)*
G04 Created by KiCad (PCBNEW 4.0.2-stable) date 2018-10-02 9:53:14 PM*
%MOMM*%
G01*
G04 APERTURE LIST*
%ADD10C,0.200000*%
%ADD11C,1.574000*%
%ADD12R,1.050000X2.050000*%
%ADD13O,2.050000X4.050000*%
%ADD14O,1.150000X2.550000*%
%ADD15O,3.550000X1.550000*%
%ADD16O,1.150000X4.050000*%
%ADD17O,1.550000X2.550000*%
%ADD18O,1.550000X2.050000*%
%ADD19R,1.550000X2.050000*%
%ADD20R,0.850000X0.950000*%
%ADD21R,0.950000X0.850000*%
%ADD22R,0.659600X0.812000*%
%ADD23R,0.812000X0.659600*%
%ADD24O,2.550000X4.050000*%
%ADD25O,2.050000X2.550000*%
%ADD26R,2.050000X1.550000*%
%ADD27O,2.050000X1.550000*%
%ADD28R,1.550000X0.500000*%
%ADD29C,2.550000*%
%ADD30R,2.550000X3.550000*%
%ADD31O,4.650000X1.500000*%
%ADD32O,4.350000X1.150000*%
%ADD33O,1.150000X4.350000*%
%ADD34C,1.150000*%
G04 APERTURE END LIST*
D10*
D11*
X127500000Y-155000000D03*
X130500000Y-155000000D03*
X133500000Y-155000000D03*
D12*
X124000000Y-155000000D03*
X137000000Y-155000000D03*
D13*
X112800000Y-155000000D03*
D14*
X122200000Y-155000000D03*
D15*
X117500000Y-150100000D03*
X117500000Y-158300000D03*
D16*
X138800000Y-155000000D03*
D17*
X148200000Y-155000000D03*
D15*
X143500000Y-150100000D03*
X143500000Y-158300000D03*
D18*
X141930000Y-95520000D03*
X141930000Y-92480000D03*
X139390000Y-92480000D03*
X139390000Y-95520000D03*
X136850000Y-95520000D03*
X136850000Y-92480000D03*
X134310000Y-92480000D03*
X134310000Y-95520000D03*
X131770000Y-95520000D03*
X131770000Y-92480000D03*
X129230000Y-92480000D03*
X129230000Y-95520000D03*
X126690000Y-95520000D03*
X126690000Y-92480000D03*
D19*
X119070000Y-92480000D03*
D18*
X119070000Y-95520000D03*
X121610000Y-92480000D03*
X121610000Y-95520000D03*
X124150000Y-92480000D03*
X124150000Y-95520000D03*
D20*
X136250000Y-69650000D03*
X136250000Y-71350000D03*
D21*
X115600000Y-71000000D03*
X113900000Y-71000000D03*
X141900000Y-71000000D03*
X143600000Y-71000000D03*
D22*
X116755400Y-103500000D03*
X119244600Y-103500000D03*
D23*
X114000000Y-107494600D03*
X114000000Y-105005400D03*
X127500000Y-105255400D03*
X127500000Y-107744600D03*
X126000000Y-107744600D03*
X126000000Y-105255400D03*
X139000000Y-105255400D03*
X139000000Y-107744600D03*
X140500000Y-107744600D03*
X140500000Y-105255400D03*
X122000000Y-110994600D03*
X122000000Y-108505400D03*
X114000000Y-108755400D03*
X114000000Y-111244600D03*
X127500000Y-111244600D03*
X127500000Y-108755400D03*
X126000000Y-108755400D03*
X126000000Y-111244600D03*
X139000000Y-111494600D03*
X139000000Y-109005400D03*
X140500000Y-109005400D03*
X140500000Y-111494600D03*
X122000000Y-124255400D03*
X122000000Y-126744600D03*
X120500000Y-126744600D03*
X120500000Y-124255400D03*
X125750000Y-123505400D03*
X125750000Y-125994600D03*
D22*
X129994600Y-122000000D03*
X127505400Y-122000000D03*
D23*
X138750000Y-123505400D03*
X138750000Y-125994600D03*
X140250000Y-125994600D03*
X140250000Y-123505400D03*
X121750000Y-137005400D03*
X121750000Y-139494600D03*
X120250000Y-139494600D03*
X120250000Y-137005400D03*
X123750000Y-137005400D03*
X123750000Y-139494600D03*
X125250000Y-134505400D03*
X125250000Y-136994600D03*
X137750000Y-136994600D03*
X137750000Y-134505400D03*
X136250000Y-139494600D03*
X136250000Y-137005400D03*
X120250000Y-150494600D03*
X120250000Y-148005400D03*
X121750000Y-148005400D03*
X121750000Y-150494600D03*
D22*
X120255400Y-80900000D03*
X122744600Y-80900000D03*
X122744600Y-82500000D03*
X120255400Y-82500000D03*
X131994600Y-83750000D03*
X129505400Y-83750000D03*
X129505400Y-82250000D03*
X131994600Y-82250000D03*
D23*
X138000000Y-80994600D03*
X138000000Y-78505400D03*
X136500000Y-78505400D03*
X136500000Y-80994600D03*
D24*
X122200000Y-103000000D03*
D25*
X112800000Y-103000000D03*
D15*
X117500000Y-107900000D03*
X117500000Y-99700000D03*
D24*
X135200000Y-103000000D03*
D25*
X125800000Y-103000000D03*
D15*
X130500000Y-107900000D03*
X130500000Y-99700000D03*
D13*
X148200000Y-103000000D03*
D25*
X138800000Y-103000000D03*
D15*
X143500000Y-107900000D03*
X143500000Y-99700000D03*
D13*
X112800000Y-116000000D03*
D25*
X122200000Y-116000000D03*
D15*
X117500000Y-111100000D03*
X117500000Y-119300000D03*
D24*
X125800000Y-116000000D03*
D25*
X135200000Y-116000000D03*
D15*
X130500000Y-111100000D03*
X130500000Y-119300000D03*
D24*
X138800000Y-116000000D03*
D17*
X148200000Y-116000000D03*
D15*
X143500000Y-111100000D03*
X143500000Y-119300000D03*
D13*
X112800000Y-129000000D03*
D25*
X122200000Y-129000000D03*
D15*
X117500000Y-124100000D03*
X117500000Y-132300000D03*
D24*
X125800000Y-129000000D03*
D25*
X135200000Y-129000000D03*
D15*
X130500000Y-124100000D03*
X130500000Y-132300000D03*
D24*
X138800000Y-129000000D03*
D17*
X148200000Y-129000000D03*
D15*
X143500000Y-124100000D03*
X143500000Y-132300000D03*
D13*
X112800000Y-142000000D03*
D25*
X122200000Y-142000000D03*
D15*
X117500000Y-137100000D03*
X117500000Y-145300000D03*
D24*
X125800000Y-142000000D03*
D25*
X135200000Y-142000000D03*
D15*
X130500000Y-137100000D03*
X130500000Y-145300000D03*
D24*
X138800000Y-142000000D03*
D17*
X148200000Y-142000000D03*
D15*
X143500000Y-137100000D03*
X143500000Y-145300000D03*
D13*
X112800000Y-85000000D03*
D25*
X122200000Y-85000000D03*
D15*
X117500000Y-80100000D03*
X117500000Y-88300000D03*
D24*
X125800000Y-85000000D03*
D25*
X135200000Y-85000000D03*
D15*
X130500000Y-80100000D03*
X130500000Y-88300000D03*
D24*
X138800000Y-85000000D03*
D17*
X148200000Y-85000000D03*
D15*
X143500000Y-80100000D03*
X143500000Y-88300000D03*
D26*
X128480000Y-74040000D03*
D27*
X131520000Y-74040000D03*
X128480000Y-71500000D03*
X131520000Y-71500000D03*
X128480000Y-68960000D03*
X131520000Y-68960000D03*
D21*
X116900000Y-102000000D03*
X118600000Y-102000000D03*
D20*
X128750000Y-105100000D03*
X128750000Y-103400000D03*
X142750000Y-105100000D03*
X142750000Y-103400000D03*
X120500000Y-110850000D03*
X120500000Y-109150000D03*
X137750000Y-71350000D03*
X137750000Y-69650000D03*
X133500000Y-111100000D03*
X133500000Y-109400000D03*
X137250000Y-111100000D03*
X137250000Y-109400000D03*
X120500000Y-122850000D03*
X120500000Y-121150000D03*
X125750000Y-122100000D03*
X125750000Y-120400000D03*
D21*
X113900000Y-69250000D03*
X115600000Y-69250000D03*
D20*
X140250000Y-122100000D03*
X140250000Y-120400000D03*
X120250000Y-135600000D03*
X120250000Y-133900000D03*
X126750000Y-136850000D03*
X126750000Y-135150000D03*
X136250000Y-135600000D03*
X136250000Y-133900000D03*
D21*
X119100000Y-71000000D03*
X117400000Y-71000000D03*
D20*
X114500000Y-150100000D03*
X114500000Y-148400000D03*
D21*
X120450000Y-79400000D03*
X122150000Y-79400000D03*
D20*
X133250000Y-82350000D03*
X133250000Y-80650000D03*
D21*
X136350000Y-82500000D03*
X134650000Y-82500000D03*
D20*
X146500000Y-150100000D03*
X146500000Y-148400000D03*
D28*
X119700000Y-72475000D03*
X119700000Y-73125000D03*
X119700000Y-73775000D03*
X119700000Y-74425000D03*
X119700000Y-75075000D03*
X119700000Y-75725000D03*
X119700000Y-76375000D03*
X119700000Y-77025000D03*
X113800000Y-77025000D03*
X113800000Y-76375000D03*
X113800000Y-75725000D03*
X113800000Y-75075000D03*
X113800000Y-74425000D03*
X113800000Y-73775000D03*
X113800000Y-73125000D03*
X113800000Y-72475000D03*
X146450000Y-72475000D03*
X146450000Y-73125000D03*
X146450000Y-73775000D03*
X146450000Y-74425000D03*
X146450000Y-75075000D03*
X146450000Y-75725000D03*
X146450000Y-76375000D03*
X146450000Y-77025000D03*
X140550000Y-77025000D03*
X140550000Y-76375000D03*
X140550000Y-75725000D03*
X140550000Y-75075000D03*
X140550000Y-74425000D03*
X140550000Y-73775000D03*
X140550000Y-73125000D03*
X140550000Y-72475000D03*
D29*
X114650000Y-63000000D03*
X125650000Y-63000000D03*
X120150000Y-68500000D03*
D30*
X120150000Y-58500000D03*
D29*
X116260000Y-66890000D03*
X124040000Y-66890000D03*
D31*
X120150000Y-58500000D03*
D32*
X116050000Y-63000000D03*
X124250000Y-63000000D03*
D33*
X120150000Y-67100000D03*
D34*
X116118629Y-67031371D02*
X118381371Y-64768629D01*
X121918629Y-64768629D02*
X124181371Y-67031371D01*
D29*
X134650000Y-63000000D03*
X145650000Y-63000000D03*
X140150000Y-68500000D03*
D30*
X140150000Y-58500000D03*
D29*
X136260000Y-66890000D03*
X144040000Y-66890000D03*
D31*
X140150000Y-58500000D03*
D32*
X136050000Y-63000000D03*
X144250000Y-63000000D03*
D33*
X140150000Y-67100000D03*
D34*
X136118629Y-67031371D02*
X138381371Y-64768629D01*
X141918629Y-64768629D02*
X144181371Y-67031371D01*
M02*
