  0
SECTION
  2
HEADER
  9
$ANGBASE
  50
0.0
  9
$ANGDIR
  70
  1
  9
$MEASUREMENT
  70
0
  0
ENDSEC
  0
SECTION
  2
TABLES
  0
TABLE
  2
LTYPE
  70
1
  0
LTYPE
  2
CONTINUOUS
  70
0
  3
Solid line
  72
65
  73
0
  40
0.0
  0
ENDTAB
  0
TABLE
  2
STYLE
  70
4
  0
STYLE
  2
KICAD
  70
0
  40
0
  41
1
  42
1
  50
0
  71
0
  3
isocp.shx
  0
STYLE
  2
KICADB
  70
0
  40
0
  41
1
  42
1
  50
0
  71
0
  3
isocp.shx
  0
STYLE
  2
KICADI
  70
0
  40
0
  41
1
  42
1
  50
15
  71
0
  3
isocp.shx
  0
STYLE
  2
KICADBI
  70
0
  40
0
  41
1
  42
1
  50
15
  71
0
  3
isocp.shx
  0
ENDTAB
  0
TABLE
  2
LAYER
  70
30
  0
LAYER
  2
BLACK
  70
0
  62
7
  6
CONTINUOUS
  0
LAYER
  2
GRAY1
  70
0
  62
251
  6
CONTINUOUS
  0
LAYER
  2
GRAY2
  70
0
  62
8
  6
CONTINUOUS
  0
LAYER
  2
GRAY3
  70
0
  62
9
  6
CONTINUOUS
  0
LAYER
  2
WHITE
  70
0
  62
7
  6
CONTINUOUS
  0
LAYER
  2
LYELLOW
  70
0
  62
51
  6
CONTINUOUS
  0
LAYER
  2
BLUE1
  70
0
  62
178
  6
CONTINUOUS
  0
LAYER
  2
GREEN1
  70
0
  62
98
  6
CONTINUOUS
  0
LAYER
  2
CYAN1
  70
0
  62
138
  6
CONTINUOUS
  0
LAYER
  2
RED1
  70
0
  62
18
  6
CONTINUOUS
  0
LAYER
  2
MAGENTA1
  70
0
  62
228
  6
CONTINUOUS
  0
LAYER
  2
BROWN1
  70
0
  62
58
  6
CONTINUOUS
  0
LAYER
  2
BLUE2
  70
0
  62
5
  6
CONTINUOUS
  0
LAYER
  2
GREEN2
  70
0
  62
3
  6
CONTINUOUS
  0
LAYER
  2
CYAN2
  70
0
  62
4
  6
CONTINUOUS
  0
LAYER
  2
RED2
  70
0
  62
1
  6
CONTINUOUS
  0
LAYER
  2
MAGENTA2
  70
0
  62
6
  6
CONTINUOUS
  0
LAYER
  2
BROWN2
  70
0
  62
54
  6
CONTINUOUS
  0
LAYER
  2
BLUE3
  70
0
  62
171
  6
CONTINUOUS
  0
LAYER
  2
GREEN3
  70
0
  62
91
  6
CONTINUOUS
  0
LAYER
  2
CYAN3
  70
0
  62
131
  6
CONTINUOUS
  0
LAYER
  2
RED3
  70
0
  62
11
  6
CONTINUOUS
  0
LAYER
  2
MAGENTA3
  70
0
  62
221
  6
CONTINUOUS
  0
LAYER
  2
YELLOW3
  70
0
  62
2
  6
CONTINUOUS
  0
LAYER
  2
BLUE4
  70
0
  62
5
  6
CONTINUOUS
  0
LAYER
  2
GREEN4
  70
0
  62
3
  6
CONTINUOUS
  0
LAYER
  2
CYAN4
  70
0
  62
4
  6
CONTINUOUS
  0
LAYER
  2
RED4
  70
0
  62
1
  6
CONTINUOUS
  0
LAYER
  2
MAGENTA4
  70
0
  62
6
  6
CONTINUOUS
  0
LAYER
  2
YELLOW4
  70
0
  62
2
  6
CONTINUOUS
  0
ENDTAB
  0
ENDSEC
  0
SECTION
  2
ENTITIES
0
LINE
8
Black
10
149.504
20
-54.9508
11
149.509
21
-54.9508
0
LINE
8
Black
10
149.509
20
-54.9508
11
149.513
21
-54.9523
0
LINE
8
Black
10
149.513
20
-54.9523
11
149.517
21
-54.953
0
LINE
8
Black
10
149.517
20
-54.953
11
149.521
21
-54.9552
0
LINE
8
Black
10
149.521
20
-54.9552
11
149.525
21
-54.9567
0
LINE
8
Black
10
149.525
20
-54.9567
11
149.528
21
-54.9595
0
LINE
8
Black
10
149.528
20
-54.9595
11
149.532
21
-54.9617
0
LINE
8
Black
10
149.532
20
-54.9617
11
149.535
21
-54.965
0
LINE
8
Black
10
149.535
20
-54.965
11
149.538
21
-54.9679
0
LINE
8
Black
10
149.538
20
-54.9679
11
149.541
21
-54.9716
0
LINE
8
Black
10
149.541
20
-54.9716
11
149.543
21
-54.975
0
LINE
8
Black
10
149.543
20
-54.975
11
149.545
21
-54.9791
0
LINE
8
Black
10
149.545
20
-54.9791
11
149.547
21
-54.9829
0
LINE
8
Black
10
149.547
20
-54.9829
11
149.548
21
-54.9872
0
LINE
8
Black
10
149.548
20
-54.9872
11
149.549
21
-54.9913
0
LINE
8
Black
10
149.549
20
-54.9913
11
149.549
21
-54.9957
0
LINE
8
Black
10
149.549
20
-54.9957
11
149.55
21
-55
0
LINE
8
Black
10
149.55
20
-55
11
149.55
21
-160
0
LINE
8
Black
10
149.55
20
-160
11
149.549
21
-160.004
0
LINE
8
Black
10
149.549
20
-160.004
11
149.549
21
-160.009
0
LINE
8
Black
10
149.549
20
-160.009
11
149.548
21
-160.013
0
LINE
8
Black
10
149.548
20
-160.013
11
149.547
21
-160.017
0
LINE
8
Black
10
149.547
20
-160.017
11
149.545
21
-160.021
0
LINE
8
Black
10
149.545
20
-160.021
11
149.543
21
-160.025
0
LINE
8
Black
10
149.543
20
-160.025
11
149.541
21
-160.028
0
LINE
8
Black
10
149.541
20
-160.028
11
149.538
21
-160.032
0
LINE
8
Black
10
149.538
20
-160.032
11
149.535
21
-160.035
0
LINE
8
Black
10
149.535
20
-160.035
11
149.532
21
-160.038
0
LINE
8
Black
10
149.532
20
-160.038
11
149.528
21
-160.041
0
LINE
8
Black
10
149.528
20
-160.041
11
149.525
21
-160.043
0
LINE
8
Black
10
149.525
20
-160.043
11
149.521
21
-160.045
0
LINE
8
Black
10
149.521
20
-160.045
11
149.517
21
-160.047
0
LINE
8
Black
10
149.517
20
-160.047
11
149.513
21
-160.048
0
LINE
8
Black
10
149.513
20
-160.048
11
149.509
21
-160.049
0
LINE
8
Black
10
149.509
20
-160.049
11
149.504
21
-160.049
0
LINE
8
Black
10
149.504
20
-160.049
11
149.5
21
-160.05
0
LINE
8
Black
10
149.5
20
-160.05
11
111.5
21
-160.05
0
LINE
8
Black
10
111.5
20
-160.05
11
111.496
21
-160.049
0
LINE
8
Black
10
111.496
20
-160.049
11
111.491
21
-160.049
0
LINE
8
Black
10
111.491
20
-160.049
11
111.487
21
-160.048
0
LINE
8
Black
10
111.487
20
-160.048
11
111.483
21
-160.047
0
LINE
8
Black
10
111.483
20
-160.047
11
111.479
21
-160.045
0
LINE
8
Black
10
111.479
20
-160.045
11
111.475
21
-160.043
0
LINE
8
Black
10
111.475
20
-160.043
11
111.472
21
-160.041
0
LINE
8
Black
10
111.472
20
-160.041
11
111.468
21
-160.038
0
LINE
8
Black
10
111.468
20
-160.038
11
111.465
21
-160.035
0
LINE
8
Black
10
111.465
20
-160.035
11
111.462
21
-160.032
0
LINE
8
Black
10
111.462
20
-160.032
11
111.46
21
-160.028
0
LINE
8
Black
10
111.46
20
-160.028
11
111.457
21
-160.025
0
LINE
8
Black
10
111.457
20
-160.025
11
111.455
21
-160.021
0
LINE
8
Black
10
111.455
20
-160.021
11
111.453
21
-160.017
0
LINE
8
Black
10
111.453
20
-160.017
11
111.452
21
-160.013
0
LINE
8
Black
10
111.452
20
-160.013
11
111.451
21
-160.009
0
LINE
8
Black
10
111.451
20
-160.009
11
111.451
21
-160.004
0
LINE
8
Black
10
111.451
20
-160.004
11
111.45
21
-160
0
LINE
8
Black
10
111.45
20
-160
11
111.45
21
-55
0
LINE
8
Black
10
111.45
20
-55
11
111.451
21
-54.9957
0
LINE
8
Black
10
111.451
20
-54.9957
11
111.451
21
-54.9913
0
LINE
8
Black
10
111.451
20
-54.9913
11
111.452
21
-54.9872
0
LINE
8
Black
10
111.452
20
-54.9872
11
111.453
21
-54.9829
0
LINE
8
Black
10
111.453
20
-54.9829
11
111.455
21
-54.9791
0
LINE
8
Black
10
111.455
20
-54.9791
11
111.457
21
-54.975
0
LINE
8
Black
10
111.457
20
-54.975
11
111.46
21
-54.9716
0
LINE
8
Black
10
111.46
20
-54.9716
11
111.462
21
-54.9679
0
LINE
8
Black
10
111.462
20
-54.9679
11
111.465
21
-54.965
0
LINE
8
Black
10
111.465
20
-54.965
11
111.468
21
-54.9617
0
LINE
8
Black
10
111.468
20
-54.9617
11
111.472
21
-54.9595
0
LINE
8
Black
10
111.472
20
-54.9595
11
111.475
21
-54.9567
0
LINE
8
Black
10
111.475
20
-54.9567
11
111.479
21
-54.9552
0
LINE
8
Black
10
111.479
20
-54.9552
11
111.483
21
-54.953
0
LINE
8
Black
10
111.483
20
-54.953
11
111.487
21
-54.9523
0
LINE
8
Black
10
111.487
20
-54.9523
11
111.491
21
-54.9508
0
LINE
8
Black
10
111.491
20
-54.9508
11
111.496
21
-54.9508
0
LINE
8
Black
10
111.496
20
-54.9508
11
111.5
21
-54.95
0
LINE
8
Black
10
111.5
20
-54.95
11
149.5
21
-54.95
0
LINE
8
Black
10
149.5
20
-54.95
11
149.504
21
-54.9508
0
LINE
8
Black
10
146.778
20
-55.05
11
124.906
21
-55.05
0
LINE
8
Black
10
124.906
20
-55.05
11
111.55
21
-55.05
0
LINE
8
Black
10
111.55
20
-55.05
11
111.55
21
-159.95
0
LINE
8
Black
10
111.55
20
-159.95
11
149.45
21
-159.95
0
LINE
8
Black
10
149.45
20
-159.95
11
149.45
21
-55.05
0
LINE
8
Black
10
149.45
20
-55.05
11
146.778
21
-55.05
0
LINE
8
Black
10
143.526
20
-151.908
11
143.539
21
-151.919
0
LINE
8
Black
10
143.539
20
-151.919
11
143.548
21
-151.934
0
LINE
8
Black
10
143.548
20
-151.934
11
143.551
21
-151.951
0
LINE
8
Black
10
143.551
20
-151.951
11
143.551
21
-154.951
0
LINE
8
Black
10
143.551
20
-154.951
11
146.551
21
-154.951
0
LINE
8
Black
10
146.551
20
-154.951
11
146.568
21
-154.954
0
LINE
8
Black
10
146.568
20
-154.954
11
146.583
21
-154.963
0
LINE
8
Black
10
146.583
20
-154.963
11
146.594
21
-154.976
0
LINE
8
Black
10
146.594
20
-154.976
11
146.6
21
-154.992
0
LINE
8
Black
10
146.6
20
-154.992
11
146.6
21
-155.01
0
LINE
8
Black
10
146.6
20
-155.01
11
146.594
21
-155.026
0
LINE
8
Black
10
146.594
20
-155.026
11
146.583
21
-155.039
0
LINE
8
Black
10
146.583
20
-155.039
11
146.568
21
-155.048
0
LINE
8
Black
10
146.568
20
-155.048
11
146.551
21
-155.051
0
LINE
8
Black
10
146.551
20
-155.051
11
143.551
21
-155.051
0
LINE
8
Black
10
143.551
20
-155.051
11
143.551
21
-158.051
0
LINE
8
Black
10
143.551
20
-158.051
11
143.548
21
-158.068
0
LINE
8
Black
10
143.548
20
-158.068
11
143.539
21
-158.083
0
LINE
8
Black
10
143.539
20
-158.083
11
143.526
21
-158.094
0
LINE
8
Black
10
143.526
20
-158.094
11
143.509
21
-158.1
0
LINE
8
Black
10
143.509
20
-158.1
11
143.492
21
-158.1
0
LINE
8
Black
10
143.492
20
-158.1
11
143.476
21
-158.094
0
LINE
8
Black
10
143.476
20
-158.094
11
143.462
21
-158.083
0
LINE
8
Black
10
143.462
20
-158.083
11
143.454
21
-158.068
0
LINE
8
Black
10
143.454
20
-158.068
11
143.451
21
-158.051
0
LINE
8
Black
10
143.451
20
-158.051
11
143.451
21
-155.051
0
LINE
8
Black
10
143.451
20
-155.051
11
140.451
21
-155.051
0
LINE
8
Black
10
140.451
20
-155.051
11
140.433
21
-155.048
0
LINE
8
Black
10
140.433
20
-155.048
11
140.418
21
-155.039
0
LINE
8
Black
10
140.418
20
-155.039
11
140.407
21
-155.026
0
LINE
8
Black
10
140.407
20
-155.026
11
140.401
21
-155.01
0
LINE
8
Black
10
140.401
20
-155.01
11
140.401
21
-154.992
0
LINE
8
Black
10
140.401
20
-154.992
11
140.407
21
-154.976
0
LINE
8
Black
10
140.407
20
-154.976
11
140.418
21
-154.963
0
LINE
8
Black
10
140.418
20
-154.963
11
140.433
21
-154.954
0
LINE
8
Black
10
140.433
20
-154.954
11
140.451
21
-154.951
0
LINE
8
Black
10
140.451
20
-154.951
11
143.451
21
-154.951
0
LINE
8
Black
10
143.451
20
-154.951
11
143.451
21
-151.951
0
LINE
8
Black
10
143.451
20
-151.951
11
143.454
21
-151.934
0
LINE
8
Black
10
143.454
20
-151.934
11
143.462
21
-151.919
0
LINE
8
Black
10
143.462
20
-151.919
11
143.476
21
-151.908
0
LINE
8
Black
10
143.476
20
-151.908
11
143.492
21
-151.902
0
LINE
8
Black
10
143.492
20
-151.902
11
143.509
21
-151.902
0
LINE
8
Black
10
143.509
20
-151.902
11
143.526
21
-151.908
0
LINE
8
Black
10
117.524
20
-151.907
11
117.537
21
-151.918
0
LINE
8
Black
10
117.537
20
-151.918
11
117.546
21
-151.933
0
LINE
8
Black
10
117.546
20
-151.933
11
117.549
21
-151.95
0
LINE
8
Black
10
117.549
20
-151.95
11
117.549
21
-154.95
0
LINE
8
Black
10
117.549
20
-154.95
11
120.549
21
-154.95
0
LINE
8
Black
10
120.549
20
-154.95
11
120.566
21
-154.953
0
LINE
8
Black
10
120.566
20
-154.953
11
120.581
21
-154.962
0
LINE
8
Black
10
120.581
20
-154.962
11
120.592
21
-154.975
0
LINE
8
Black
10
120.592
20
-154.975
11
120.598
21
-154.992
0
LINE
8
Black
10
120.598
20
-154.992
11
120.598
21
-155.009
0
LINE
8
Black
10
120.598
20
-155.009
11
120.592
21
-155.025
0
LINE
8
Black
10
120.592
20
-155.025
11
120.581
21
-155.039
0
LINE
8
Black
10
120.581
20
-155.039
11
120.566
21
-155.047
0
LINE
8
Black
10
120.566
20
-155.047
11
120.549
21
-155.05
0
LINE
8
Black
10
120.549
20
-155.05
11
117.549
21
-155.05
0
LINE
8
Black
10
117.549
20
-155.05
11
117.549
21
-158.05
0
LINE
8
Black
10
117.549
20
-158.05
11
117.546
21
-158.068
0
LINE
8
Black
10
117.546
20
-158.068
11
117.537
21
-158.083
0
LINE
8
Black
10
117.537
20
-158.083
11
117.524
21
-158.094
0
LINE
8
Black
10
117.524
20
-158.094
11
117.508
21
-158.1
0
LINE
8
Black
10
117.508
20
-158.1
11
117.49
21
-158.1
0
LINE
8
Black
10
117.49
20
-158.1
11
117.474
21
-158.094
0
LINE
8
Black
10
117.474
20
-158.094
11
117.461
21
-158.083
0
LINE
8
Black
10
117.461
20
-158.083
11
117.452
21
-158.068
0
LINE
8
Black
10
117.452
20
-158.068
11
117.449
21
-158.05
0
LINE
8
Black
10
117.449
20
-158.05
11
117.449
21
-155.05
0
LINE
8
Black
10
117.449
20
-155.05
11
114.449
21
-155.05
0
LINE
8
Black
10
114.449
20
-155.05
11
114.432
21
-155.047
0
LINE
8
Black
10
114.432
20
-155.047
11
114.417
21
-155.039
0
LINE
8
Black
10
114.417
20
-155.039
11
114.406
21
-155.025
0
LINE
8
Black
10
114.406
20
-155.025
11
114.4
21
-155.009
0
LINE
8
Black
10
114.4
20
-155.009
11
114.4
21
-154.992
0
LINE
8
Black
10
114.4
20
-154.992
11
114.406
21
-154.975
0
LINE
8
Black
10
114.406
20
-154.975
11
114.417
21
-154.962
0
LINE
8
Black
10
114.417
20
-154.962
11
114.432
21
-154.953
0
LINE
8
Black
10
114.432
20
-154.953
11
114.449
21
-154.95
0
LINE
8
Black
10
114.449
20
-154.95
11
117.449
21
-154.95
0
LINE
8
Black
10
117.449
20
-154.95
11
117.449
21
-151.95
0
LINE
8
Black
10
117.449
20
-151.95
11
117.452
21
-151.933
0
LINE
8
Black
10
117.452
20
-151.933
11
117.461
21
-151.918
0
LINE
8
Black
10
117.461
20
-151.918
11
117.474
21
-151.907
0
LINE
8
Black
10
117.474
20
-151.907
11
117.49
21
-151.901
0
LINE
8
Black
10
117.49
20
-151.901
11
117.508
21
-151.901
0
LINE
8
Black
10
117.508
20
-151.901
11
117.524
21
-151.907
0
LINE
8
Black
10
130.525
20
-151.907
11
130.538
21
-151.918
0
LINE
8
Black
10
130.538
20
-151.918
11
130.547
21
-151.933
0
LINE
8
Black
10
130.547
20
-151.933
11
130.55
21
-151.95
0
LINE
8
Black
10
130.55
20
-151.95
11
130.55
21
-154.95
0
LINE
8
Black
10
130.55
20
-154.95
11
133.55
21
-154.95
0
LINE
8
Black
10
133.55
20
-154.95
11
133.567
21
-154.953
0
LINE
8
Black
10
133.567
20
-154.953
11
133.582
21
-154.962
0
LINE
8
Black
10
133.582
20
-154.962
11
133.593
21
-154.975
0
LINE
8
Black
10
133.593
20
-154.975
11
133.599
21
-154.992
0
LINE
8
Black
10
133.599
20
-154.992
11
133.599
21
-155.009
0
LINE
8
Black
10
133.599
20
-155.009
11
133.593
21
-155.025
0
LINE
8
Black
10
133.593
20
-155.025
11
133.582
21
-155.039
0
LINE
8
Black
10
133.582
20
-155.039
11
133.567
21
-155.047
0
LINE
8
Black
10
133.567
20
-155.047
11
133.55
21
-155.05
0
LINE
8
Black
10
133.55
20
-155.05
11
130.55
21
-155.05
0
LINE
8
Black
10
130.55
20
-155.05
11
130.55
21
-158.05
0
LINE
8
Black
10
130.55
20
-158.05
11
130.547
21
-158.068
0
LINE
8
Black
10
130.547
20
-158.068
11
130.538
21
-158.083
0
LINE
8
Black
10
130.538
20
-158.083
11
130.525
21
-158.094
0
LINE
8
Black
10
130.525
20
-158.094
11
130.509
21
-158.1
0
LINE
8
Black
10
130.509
20
-158.1
11
130.491
21
-158.1
0
LINE
8
Black
10
130.491
20
-158.1
11
130.475
21
-158.094
0
LINE
8
Black
10
130.475
20
-158.094
11
130.462
21
-158.083
0
LINE
8
Black
10
130.462
20
-158.083
11
130.453
21
-158.068
0
LINE
8
Black
10
130.453
20
-158.068
11
130.45
21
-158.05
0
LINE
8
Black
10
130.45
20
-158.05
11
130.45
21
-155.05
0
LINE
8
Black
10
130.45
20
-155.05
11
127.45
21
-155.05
0
LINE
8
Black
10
127.45
20
-155.05
11
127.433
21
-155.047
0
LINE
8
Black
10
127.433
20
-155.047
11
127.418
21
-155.039
0
LINE
8
Black
10
127.418
20
-155.039
11
127.407
21
-155.025
0
LINE
8
Black
10
127.407
20
-155.025
11
127.401
21
-155.009
0
LINE
8
Black
10
127.401
20
-155.009
11
127.401
21
-154.992
0
LINE
8
Black
10
127.401
20
-154.992
11
127.407
21
-154.975
0
LINE
8
Black
10
127.407
20
-154.975
11
127.418
21
-154.962
0
LINE
8
Black
10
127.418
20
-154.962
11
127.433
21
-154.953
0
LINE
8
Black
10
127.433
20
-154.953
11
127.45
21
-154.95
0
LINE
8
Black
10
127.45
20
-154.95
11
130.45
21
-154.95
0
LINE
8
Black
10
130.45
20
-154.95
11
130.45
21
-151.95
0
LINE
8
Black
10
130.45
20
-151.95
11
130.453
21
-151.933
0
LINE
8
Black
10
130.453
20
-151.933
11
130.462
21
-151.918
0
LINE
8
Black
10
130.462
20
-151.918
11
130.475
21
-151.907
0
LINE
8
Black
10
130.475
20
-151.907
11
130.491
21
-151.901
0
LINE
8
Black
10
130.491
20
-151.901
11
130.509
21
-151.901
0
LINE
8
Black
10
130.509
20
-151.901
11
130.525
21
-151.907
0
LINE
8
Black
10
117.525
20
-138.908
11
117.538
21
-138.919
0
LINE
8
Black
10
117.538
20
-138.919
11
117.547
21
-138.934
0
LINE
8
Black
10
117.547
20
-138.934
11
117.55
21
-138.951
0
LINE
8
Black
10
117.55
20
-138.951
11
117.55
21
-141.951
0
LINE
8
Black
10
117.55
20
-141.951
11
120.55
21
-141.951
0
LINE
8
Black
10
120.55
20
-141.951
11
120.567
21
-141.954
0
LINE
8
Black
10
120.567
20
-141.954
11
120.582
21
-141.963
0
LINE
8
Black
10
120.582
20
-141.963
11
120.593
21
-141.976
0
LINE
8
Black
10
120.593
20
-141.976
11
120.599
21
-141.993
0
LINE
8
Black
10
120.599
20
-141.993
11
120.599
21
-142.01
0
LINE
8
Black
10
120.599
20
-142.01
11
120.593
21
-142.026
0
LINE
8
Black
10
120.593
20
-142.026
11
120.582
21
-142.04
0
LINE
8
Black
10
120.582
20
-142.04
11
120.567
21
-142.048
0
LINE
8
Black
10
120.567
20
-142.048
11
120.55
21
-142.051
0
LINE
8
Black
10
120.55
20
-142.051
11
117.55
21
-142.051
0
LINE
8
Black
10
117.55
20
-142.051
11
117.55
21
-145.051
0
LINE
8
Black
10
117.55
20
-145.051
11
117.547
21
-145.068
0
LINE
8
Black
10
117.547
20
-145.068
11
117.538
21
-145.083
0
LINE
8
Black
10
117.538
20
-145.083
11
117.525
21
-145.095
0
LINE
8
Black
10
117.525
20
-145.095
11
117.508
21
-145.1
0
LINE
8
Black
10
117.508
20
-145.1
11
117.491
21
-145.1
0
LINE
8
Black
10
117.491
20
-145.1
11
117.475
21
-145.095
0
LINE
8
Black
10
117.475
20
-145.095
11
117.461
21
-145.083
0
LINE
8
Black
10
117.461
20
-145.083
11
117.453
21
-145.068
0
LINE
8
Black
10
117.453
20
-145.068
11
117.45
21
-145.051
0
LINE
8
Black
10
117.45
20
-145.051
11
117.45
21
-142.051
0
LINE
8
Black
10
117.45
20
-142.051
11
114.45
21
-142.051
0
LINE
8
Black
10
114.45
20
-142.051
11
114.433
21
-142.048
0
LINE
8
Black
10
114.433
20
-142.048
11
114.417
21
-142.04
0
LINE
8
Black
10
114.417
20
-142.04
11
114.406
21
-142.026
0
LINE
8
Black
10
114.406
20
-142.026
11
114.4
21
-142.01
0
LINE
8
Black
10
114.4
20
-142.01
11
114.4
21
-141.993
0
LINE
8
Black
10
114.4
20
-141.993
11
114.406
21
-141.976
0
LINE
8
Black
10
114.406
20
-141.976
11
114.417
21
-141.963
0
LINE
8
Black
10
114.417
20
-141.963
11
114.433
21
-141.954
0
LINE
8
Black
10
114.433
20
-141.954
11
114.45
21
-141.951
0
LINE
8
Black
10
114.45
20
-141.951
11
117.45
21
-141.951
0
LINE
8
Black
10
117.45
20
-141.951
11
117.45
21
-138.951
0
LINE
8
Black
10
117.45
20
-138.951
11
117.453
21
-138.934
0
LINE
8
Black
10
117.453
20
-138.934
11
117.461
21
-138.919
0
LINE
8
Black
10
117.461
20
-138.919
11
117.475
21
-138.908
0
LINE
8
Black
10
117.475
20
-138.908
11
117.491
21
-138.902
0
LINE
8
Black
10
117.491
20
-138.902
11
117.508
21
-138.902
0
LINE
8
Black
10
117.508
20
-138.902
11
117.525
21
-138.908
0
LINE
8
Black
10
143.525
20
-138.907
11
143.538
21
-138.918
0
LINE
8
Black
10
143.538
20
-138.918
11
143.547
21
-138.933
0
LINE
8
Black
10
143.547
20
-138.933
11
143.55
21
-138.95
0
LINE
8
Black
10
143.55
20
-138.95
11
143.55
21
-141.95
0
LINE
8
Black
10
143.55
20
-141.95
11
146.55
21
-141.95
0
LINE
8
Black
10
146.55
20
-141.95
11
146.567
21
-141.953
0
LINE
8
Black
10
146.567
20
-141.953
11
146.582
21
-141.962
0
LINE
8
Black
10
146.582
20
-141.962
11
146.593
21
-141.975
0
LINE
8
Black
10
146.593
20
-141.975
11
146.599
21
-141.992
0
LINE
8
Black
10
146.599
20
-141.992
11
146.599
21
-142.009
0
LINE
8
Black
10
146.599
20
-142.009
11
146.593
21
-142.025
0
LINE
8
Black
10
146.593
20
-142.025
11
146.582
21
-142.039
0
LINE
8
Black
10
146.582
20
-142.039
11
146.567
21
-142.047
0
LINE
8
Black
10
146.567
20
-142.047
11
146.55
21
-142.05
0
LINE
8
Black
10
146.55
20
-142.05
11
143.55
21
-142.05
0
LINE
8
Black
10
143.55
20
-142.05
11
143.55
21
-145.05
0
LINE
8
Black
10
143.55
20
-145.05
11
143.547
21
-145.068
0
LINE
8
Black
10
143.547
20
-145.068
11
143.538
21
-145.083
0
LINE
8
Black
10
143.538
20
-145.083
11
143.525
21
-145.094
0
LINE
8
Black
10
143.525
20
-145.094
11
143.509
21
-145.1
0
LINE
8
Black
10
143.509
20
-145.1
11
143.491
21
-145.1
0
LINE
8
Black
10
143.491
20
-145.1
11
143.475
21
-145.094
0
LINE
8
Black
10
143.475
20
-145.094
11
143.462
21
-145.083
0
LINE
8
Black
10
143.462
20
-145.083
11
143.453
21
-145.068
0
LINE
8
Black
10
143.453
20
-145.068
11
143.45
21
-145.05
0
LINE
8
Black
10
143.45
20
-145.05
11
143.45
21
-142.05
0
LINE
8
Black
10
143.45
20
-142.05
11
140.45
21
-142.05
0
LINE
8
Black
10
140.45
20
-142.05
11
140.433
21
-142.047
0
LINE
8
Black
10
140.433
20
-142.047
11
140.418
21
-142.039
0
LINE
8
Black
10
140.418
20
-142.039
11
140.407
21
-142.025
0
LINE
8
Black
10
140.407
20
-142.025
11
140.401
21
-142.009
0
LINE
8
Black
10
140.401
20
-142.009
11
140.401
21
-141.992
0
LINE
8
Black
10
140.401
20
-141.992
11
140.407
21
-141.975
0
LINE
8
Black
10
140.407
20
-141.975
11
140.418
21
-141.962
0
LINE
8
Black
10
140.418
20
-141.962
11
140.433
21
-141.953
0
LINE
8
Black
10
140.433
20
-141.953
11
140.45
21
-141.95
0
LINE
8
Black
10
140.45
20
-141.95
11
143.45
21
-141.95
0
LINE
8
Black
10
143.45
20
-141.95
11
143.45
21
-138.95
0
LINE
8
Black
10
143.45
20
-138.95
11
143.453
21
-138.933
0
LINE
8
Black
10
143.453
20
-138.933
11
143.462
21
-138.918
0
LINE
8
Black
10
143.462
20
-138.918
11
143.475
21
-138.907
0
LINE
8
Black
10
143.475
20
-138.907
11
143.491
21
-138.901
0
LINE
8
Black
10
143.491
20
-138.901
11
143.509
21
-138.901
0
LINE
8
Black
10
143.509
20
-138.901
11
143.525
21
-138.907
0
LINE
8
Black
10
130.525
20
-138.907
11
130.538
21
-138.918
0
LINE
8
Black
10
130.538
20
-138.918
11
130.547
21
-138.933
0
LINE
8
Black
10
130.547
20
-138.933
11
130.55
21
-138.95
0
LINE
8
Black
10
130.55
20
-138.95
11
130.55
21
-141.95
0
LINE
8
Black
10
130.55
20
-141.95
11
133.55
21
-141.95
0
LINE
8
Black
10
133.55
20
-141.95
11
133.567
21
-141.953
0
LINE
8
Black
10
133.567
20
-141.953
11
133.582
21
-141.962
0
LINE
8
Black
10
133.582
20
-141.962
11
133.593
21
-141.975
0
LINE
8
Black
10
133.593
20
-141.975
11
133.599
21
-141.992
0
LINE
8
Black
10
133.599
20
-141.992
11
133.599
21
-142.009
0
LINE
8
Black
10
133.599
20
-142.009
11
133.593
21
-142.025
0
LINE
8
Black
10
133.593
20
-142.025
11
133.582
21
-142.039
0
LINE
8
Black
10
133.582
20
-142.039
11
133.567
21
-142.047
0
LINE
8
Black
10
133.567
20
-142.047
11
133.55
21
-142.05
0
LINE
8
Black
10
133.55
20
-142.05
11
130.55
21
-142.05
0
LINE
8
Black
10
130.55
20
-142.05
11
130.55
21
-145.05
0
LINE
8
Black
10
130.55
20
-145.05
11
130.547
21
-145.068
0
LINE
8
Black
10
130.547
20
-145.068
11
130.538
21
-145.083
0
LINE
8
Black
10
130.538
20
-145.083
11
130.525
21
-145.094
0
LINE
8
Black
10
130.525
20
-145.094
11
130.509
21
-145.1
0
LINE
8
Black
10
130.509
20
-145.1
11
130.491
21
-145.1
0
LINE
8
Black
10
130.491
20
-145.1
11
130.475
21
-145.094
0
LINE
8
Black
10
130.475
20
-145.094
11
130.462
21
-145.083
0
LINE
8
Black
10
130.462
20
-145.083
11
130.453
21
-145.068
0
LINE
8
Black
10
130.453
20
-145.068
11
130.45
21
-145.05
0
LINE
8
Black
10
130.45
20
-145.05
11
130.45
21
-142.05
0
LINE
8
Black
10
130.45
20
-142.05
11
127.45
21
-142.05
0
LINE
8
Black
10
127.45
20
-142.05
11
127.433
21
-142.047
0
LINE
8
Black
10
127.433
20
-142.047
11
127.418
21
-142.039
0
LINE
8
Black
10
127.418
20
-142.039
11
127.407
21
-142.025
0
LINE
8
Black
10
127.407
20
-142.025
11
127.401
21
-142.009
0
LINE
8
Black
10
127.401
20
-142.009
11
127.401
21
-141.992
0
LINE
8
Black
10
127.401
20
-141.992
11
127.407
21
-141.975
0
LINE
8
Black
10
127.407
20
-141.975
11
127.418
21
-141.962
0
LINE
8
Black
10
127.418
20
-141.962
11
127.433
21
-141.953
0
LINE
8
Black
10
127.433
20
-141.953
11
127.45
21
-141.95
0
LINE
8
Black
10
127.45
20
-141.95
11
130.45
21
-141.95
0
LINE
8
Black
10
130.45
20
-141.95
11
130.45
21
-138.95
0
LINE
8
Black
10
130.45
20
-138.95
11
130.453
21
-138.933
0
LINE
8
Black
10
130.453
20
-138.933
11
130.462
21
-138.918
0
LINE
8
Black
10
130.462
20
-138.918
11
130.475
21
-138.907
0
LINE
8
Black
10
130.475
20
-138.907
11
130.491
21
-138.901
0
LINE
8
Black
10
130.491
20
-138.901
11
130.509
21
-138.901
0
LINE
8
Black
10
130.509
20
-138.901
11
130.525
21
-138.907
0
LINE
8
Black
10
117.525
20
-125.908
11
117.539
21
-125.919
0
LINE
8
Black
10
117.539
20
-125.919
11
117.547
21
-125.934
0
LINE
8
Black
10
117.547
20
-125.934
11
117.55
21
-125.951
0
LINE
8
Black
10
117.55
20
-125.951
11
117.55
21
-128.951
0
LINE
8
Black
10
117.55
20
-128.951
11
120.55
21
-128.951
0
LINE
8
Black
10
120.55
20
-128.951
11
120.567
21
-128.954
0
LINE
8
Black
10
120.567
20
-128.954
11
120.582
21
-128.963
0
LINE
8
Black
10
120.582
20
-128.963
11
120.594
21
-128.976
0
LINE
8
Black
10
120.594
20
-128.976
11
120.6
21
-128.992
0
LINE
8
Black
10
120.6
20
-128.992
11
120.6
21
-129.01
0
LINE
8
Black
10
120.6
20
-129.01
11
120.594
21
-129.026
0
LINE
8
Black
10
120.594
20
-129.026
11
120.582
21
-129.039
0
LINE
8
Black
10
120.582
20
-129.039
11
120.567
21
-129.048
0
LINE
8
Black
10
120.567
20
-129.048
11
120.55
21
-129.051
0
LINE
8
Black
10
120.55
20
-129.051
11
117.55
21
-129.051
0
LINE
8
Black
10
117.55
20
-129.051
11
117.55
21
-132.051
0
LINE
8
Black
10
117.55
20
-132.051
11
117.547
21
-132.068
0
LINE
8
Black
10
117.547
20
-132.068
11
117.539
21
-132.083
0
LINE
8
Black
10
117.539
20
-132.083
11
117.525
21
-132.094
0
LINE
8
Black
10
117.525
20
-132.094
11
117.509
21
-132.1
0
LINE
8
Black
10
117.509
20
-132.1
11
117.492
21
-132.1
0
LINE
8
Black
10
117.492
20
-132.1
11
117.475
21
-132.094
0
LINE
8
Black
10
117.475
20
-132.094
11
117.462
21
-132.083
0
LINE
8
Black
10
117.462
20
-132.083
11
117.453
21
-132.068
0
LINE
8
Black
10
117.453
20
-132.068
11
117.45
21
-132.051
0
LINE
8
Black
10
117.45
20
-132.051
11
117.45
21
-129.051
0
LINE
8
Black
10
117.45
20
-129.051
11
114.45
21
-129.051
0
LINE
8
Black
10
114.45
20
-129.051
11
114.433
21
-129.048
0
LINE
8
Black
10
114.433
20
-129.048
11
114.418
21
-129.039
0
LINE
8
Black
10
114.418
20
-129.039
11
114.407
21
-129.026
0
LINE
8
Black
10
114.407
20
-129.026
11
114.401
21
-129.01
0
LINE
8
Black
10
114.401
20
-129.01
11
114.401
21
-128.992
0
LINE
8
Black
10
114.401
20
-128.992
11
114.407
21
-128.976
0
LINE
8
Black
10
114.407
20
-128.976
11
114.418
21
-128.963
0
LINE
8
Black
10
114.418
20
-128.963
11
114.433
21
-128.954
0
LINE
8
Black
10
114.433
20
-128.954
11
114.45
21
-128.951
0
LINE
8
Black
10
114.45
20
-128.951
11
117.45
21
-128.951
0
LINE
8
Black
10
117.45
20
-128.951
11
117.45
21
-125.951
0
LINE
8
Black
10
117.45
20
-125.951
11
117.453
21
-125.934
0
LINE
8
Black
10
117.453
20
-125.934
11
117.462
21
-125.919
0
LINE
8
Black
10
117.462
20
-125.919
11
117.475
21
-125.908
0
LINE
8
Black
10
117.475
20
-125.908
11
117.492
21
-125.902
0
LINE
8
Black
10
117.492
20
-125.902
11
117.509
21
-125.902
0
LINE
8
Black
10
117.509
20
-125.902
11
117.525
21
-125.908
0
LINE
8
Black
10
143.525
20
-125.908
11
143.538
21
-125.919
0
LINE
8
Black
10
143.538
20
-125.919
11
143.547
21
-125.934
0
LINE
8
Black
10
143.547
20
-125.934
11
143.55
21
-125.951
0
LINE
8
Black
10
143.55
20
-125.951
11
143.55
21
-128.951
0
LINE
8
Black
10
143.55
20
-128.951
11
146.55
21
-128.951
0
LINE
8
Black
10
146.55
20
-128.951
11
146.567
21
-128.954
0
LINE
8
Black
10
146.567
20
-128.954
11
146.582
21
-128.963
0
LINE
8
Black
10
146.582
20
-128.963
11
146.593
21
-128.976
0
LINE
8
Black
10
146.593
20
-128.976
11
146.599
21
-128.992
0
LINE
8
Black
10
146.599
20
-128.992
11
146.599
21
-129.01
0
LINE
8
Black
10
146.599
20
-129.01
11
146.593
21
-129.026
0
LINE
8
Black
10
146.593
20
-129.026
11
146.582
21
-129.039
0
LINE
8
Black
10
146.582
20
-129.039
11
146.567
21
-129.048
0
LINE
8
Black
10
146.567
20
-129.048
11
146.55
21
-129.051
0
LINE
8
Black
10
146.55
20
-129.051
11
143.55
21
-129.051
0
LINE
8
Black
10
143.55
20
-129.051
11
143.55
21
-132.051
0
LINE
8
Black
10
143.55
20
-132.051
11
143.547
21
-132.068
0
LINE
8
Black
10
143.547
20
-132.068
11
143.538
21
-132.083
0
LINE
8
Black
10
143.538
20
-132.083
11
143.525
21
-132.094
0
LINE
8
Black
10
143.525
20
-132.094
11
143.508
21
-132.1
0
LINE
8
Black
10
143.508
20
-132.1
11
143.491
21
-132.1
0
LINE
8
Black
10
143.491
20
-132.1
11
143.475
21
-132.094
0
LINE
8
Black
10
143.475
20
-132.094
11
143.461
21
-132.083
0
LINE
8
Black
10
143.461
20
-132.083
11
143.453
21
-132.068
0
LINE
8
Black
10
143.453
20
-132.068
11
143.45
21
-132.051
0
LINE
8
Black
10
143.45
20
-132.051
11
143.45
21
-129.051
0
LINE
8
Black
10
143.45
20
-129.051
11
140.45
21
-129.051
0
LINE
8
Black
10
140.45
20
-129.051
11
140.433
21
-129.048
0
LINE
8
Black
10
140.433
20
-129.048
11
140.418
21
-129.039
0
LINE
8
Black
10
140.418
20
-129.039
11
140.406
21
-129.026
0
LINE
8
Black
10
140.406
20
-129.026
11
140.4
21
-129.01
0
LINE
8
Black
10
140.4
20
-129.01
11
140.4
21
-128.992
0
LINE
8
Black
10
140.4
20
-128.992
11
140.406
21
-128.976
0
LINE
8
Black
10
140.406
20
-128.976
11
140.418
21
-128.963
0
LINE
8
Black
10
140.418
20
-128.963
11
140.433
21
-128.954
0
LINE
8
Black
10
140.433
20
-128.954
11
140.45
21
-128.951
0
LINE
8
Black
10
140.45
20
-128.951
11
143.45
21
-128.951
0
LINE
8
Black
10
143.45
20
-128.951
11
143.45
21
-125.951
0
LINE
8
Black
10
143.45
20
-125.951
11
143.453
21
-125.934
0
LINE
8
Black
10
143.453
20
-125.934
11
143.461
21
-125.919
0
LINE
8
Black
10
143.461
20
-125.919
11
143.475
21
-125.908
0
LINE
8
Black
10
143.475
20
-125.908
11
143.491
21
-125.902
0
LINE
8
Black
10
143.491
20
-125.902
11
143.508
21
-125.902
0
LINE
8
Black
10
143.508
20
-125.902
11
143.525
21
-125.908
0
LINE
8
Black
10
130.525
20
-125.908
11
130.538
21
-125.919
0
LINE
8
Black
10
130.538
20
-125.919
11
130.547
21
-125.934
0
LINE
8
Black
10
130.547
20
-125.934
11
130.55
21
-125.951
0
LINE
8
Black
10
130.55
20
-125.951
11
130.55
21
-128.951
0
LINE
8
Black
10
130.55
20
-128.951
11
133.55
21
-128.951
0
LINE
8
Black
10
133.55
20
-128.951
11
133.567
21
-128.954
0
LINE
8
Black
10
133.567
20
-128.954
11
133.582
21
-128.963
0
LINE
8
Black
10
133.582
20
-128.963
11
133.593
21
-128.976
0
LINE
8
Black
10
133.593
20
-128.976
11
133.599
21
-128.992
0
LINE
8
Black
10
133.599
20
-128.992
11
133.599
21
-129.01
0
LINE
8
Black
10
133.599
20
-129.01
11
133.593
21
-129.026
0
LINE
8
Black
10
133.593
20
-129.026
11
133.582
21
-129.039
0
LINE
8
Black
10
133.582
20
-129.039
11
133.567
21
-129.048
0
LINE
8
Black
10
133.567
20
-129.048
11
133.55
21
-129.051
0
LINE
8
Black
10
133.55
20
-129.051
11
130.55
21
-129.051
0
LINE
8
Black
10
130.55
20
-129.051
11
130.55
21
-132.051
0
LINE
8
Black
10
130.55
20
-132.051
11
130.547
21
-132.068
0
LINE
8
Black
10
130.547
20
-132.068
11
130.538
21
-132.083
0
LINE
8
Black
10
130.538
20
-132.083
11
130.525
21
-132.094
0
LINE
8
Black
10
130.525
20
-132.094
11
130.509
21
-132.1
0
LINE
8
Black
10
130.509
20
-132.1
11
130.491
21
-132.1
0
LINE
8
Black
10
130.491
20
-132.1
11
130.475
21
-132.094
0
LINE
8
Black
10
130.475
20
-132.094
11
130.462
21
-132.083
0
LINE
8
Black
10
130.462
20
-132.083
11
130.453
21
-132.068
0
LINE
8
Black
10
130.453
20
-132.068
11
130.45
21
-132.051
0
LINE
8
Black
10
130.45
20
-132.051
11
130.45
21
-129.051
0
LINE
8
Black
10
130.45
20
-129.051
11
127.45
21
-129.051
0
LINE
8
Black
10
127.45
20
-129.051
11
127.433
21
-129.048
0
LINE
8
Black
10
127.433
20
-129.048
11
127.418
21
-129.039
0
LINE
8
Black
10
127.418
20
-129.039
11
127.407
21
-129.026
0
LINE
8
Black
10
127.407
20
-129.026
11
127.401
21
-129.01
0
LINE
8
Black
10
127.401
20
-129.01
11
127.401
21
-128.992
0
LINE
8
Black
10
127.401
20
-128.992
11
127.407
21
-128.976
0
LINE
8
Black
10
127.407
20
-128.976
11
127.418
21
-128.963
0
LINE
8
Black
10
127.418
20
-128.963
11
127.433
21
-128.954
0
LINE
8
Black
10
127.433
20
-128.954
11
127.45
21
-128.951
0
LINE
8
Black
10
127.45
20
-128.951
11
130.45
21
-128.951
0
LINE
8
Black
10
130.45
20
-128.951
11
130.45
21
-125.951
0
LINE
8
Black
10
130.45
20
-125.951
11
130.453
21
-125.934
0
LINE
8
Black
10
130.453
20
-125.934
11
130.462
21
-125.919
0
LINE
8
Black
10
130.462
20
-125.919
11
130.475
21
-125.908
0
LINE
8
Black
10
130.475
20
-125.908
11
130.491
21
-125.902
0
LINE
8
Black
10
130.491
20
-125.902
11
130.509
21
-125.902
0
LINE
8
Black
10
130.509
20
-125.902
11
130.525
21
-125.908
0
LINE
8
Black
10
117.525
20
-112.908
11
117.539
21
-112.919
0
LINE
8
Black
10
117.539
20
-112.919
11
117.547
21
-112.934
0
LINE
8
Black
10
117.547
20
-112.934
11
117.55
21
-112.951
0
LINE
8
Black
10
117.55
20
-112.951
11
117.55
21
-115.951
0
LINE
8
Black
10
117.55
20
-115.951
11
120.55
21
-115.951
0
LINE
8
Black
10
120.55
20
-115.951
11
120.567
21
-115.954
0
LINE
8
Black
10
120.567
20
-115.954
11
120.582
21
-115.963
0
LINE
8
Black
10
120.582
20
-115.963
11
120.594
21
-115.976
0
LINE
8
Black
10
120.594
20
-115.976
11
120.6
21
-115.992
0
LINE
8
Black
10
120.6
20
-115.992
11
120.6
21
-116.01
0
LINE
8
Black
10
120.6
20
-116.01
11
120.594
21
-116.026
0
LINE
8
Black
10
120.594
20
-116.026
11
120.582
21
-116.039
0
LINE
8
Black
10
120.582
20
-116.039
11
120.567
21
-116.048
0
LINE
8
Black
10
120.567
20
-116.048
11
120.55
21
-116.051
0
LINE
8
Black
10
120.55
20
-116.051
11
117.55
21
-116.051
0
LINE
8
Black
10
117.55
20
-116.051
11
117.55
21
-119.051
0
LINE
8
Black
10
117.55
20
-119.051
11
117.547
21
-119.068
0
LINE
8
Black
10
117.547
20
-119.068
11
117.539
21
-119.083
0
LINE
8
Black
10
117.539
20
-119.083
11
117.525
21
-119.094
0
LINE
8
Black
10
117.525
20
-119.094
11
117.509
21
-119.1
0
LINE
8
Black
10
117.509
20
-119.1
11
117.492
21
-119.1
0
LINE
8
Black
10
117.492
20
-119.1
11
117.475
21
-119.094
0
LINE
8
Black
10
117.475
20
-119.094
11
117.462
21
-119.083
0
LINE
8
Black
10
117.462
20
-119.083
11
117.453
21
-119.068
0
LINE
8
Black
10
117.453
20
-119.068
11
117.45
21
-119.051
0
LINE
8
Black
10
117.45
20
-119.051
11
117.45
21
-116.051
0
LINE
8
Black
10
117.45
20
-116.051
11
114.45
21
-116.051
0
LINE
8
Black
10
114.45
20
-116.051
11
114.433
21
-116.048
0
LINE
8
Black
10
114.433
20
-116.048
11
114.418
21
-116.039
0
LINE
8
Black
10
114.418
20
-116.039
11
114.407
21
-116.026
0
LINE
8
Black
10
114.407
20
-116.026
11
114.401
21
-116.01
0
LINE
8
Black
10
114.401
20
-116.01
11
114.401
21
-115.992
0
LINE
8
Black
10
114.401
20
-115.992
11
114.407
21
-115.976
0
LINE
8
Black
10
114.407
20
-115.976
11
114.418
21
-115.963
0
LINE
8
Black
10
114.418
20
-115.963
11
114.433
21
-115.954
0
LINE
8
Black
10
114.433
20
-115.954
11
114.45
21
-115.951
0
LINE
8
Black
10
114.45
20
-115.951
11
117.45
21
-115.951
0
LINE
8
Black
10
117.45
20
-115.951
11
117.45
21
-112.951
0
LINE
8
Black
10
117.45
20
-112.951
11
117.453
21
-112.934
0
LINE
8
Black
10
117.453
20
-112.934
11
117.462
21
-112.919
0
LINE
8
Black
10
117.462
20
-112.919
11
117.475
21
-112.908
0
LINE
8
Black
10
117.475
20
-112.908
11
117.492
21
-112.902
0
LINE
8
Black
10
117.492
20
-112.902
11
117.509
21
-112.902
0
LINE
8
Black
10
117.509
20
-112.902
11
117.525
21
-112.908
0
LINE
8
Black
10
143.525
20
-112.907
11
143.538
21
-112.918
0
LINE
8
Black
10
143.538
20
-112.918
11
143.547
21
-112.934
0
LINE
8
Black
10
143.547
20
-112.934
11
143.55
21
-112.951
0
LINE
8
Black
10
143.55
20
-112.951
11
143.55
21
-115.951
0
LINE
8
Black
10
143.55
20
-115.951
11
146.55
21
-115.951
0
LINE
8
Black
10
146.55
20
-115.951
11
146.567
21
-115.954
0
LINE
8
Black
10
146.567
20
-115.954
11
146.582
21
-115.962
0
LINE
8
Black
10
146.582
20
-115.962
11
146.593
21
-115.976
0
LINE
8
Black
10
146.593
20
-115.976
11
146.599
21
-115.992
0
LINE
8
Black
10
146.599
20
-115.992
11
146.599
21
-116.009
0
LINE
8
Black
10
146.599
20
-116.009
11
146.593
21
-116.026
0
LINE
8
Black
10
146.593
20
-116.026
11
146.582
21
-116.039
0
LINE
8
Black
10
146.582
20
-116.039
11
146.567
21
-116.048
0
LINE
8
Black
10
146.567
20
-116.048
11
146.55
21
-116.051
0
LINE
8
Black
10
146.55
20
-116.051
11
143.55
21
-116.051
0
LINE
8
Black
10
143.55
20
-116.051
11
143.55
21
-119.051
0
LINE
8
Black
10
143.55
20
-119.051
11
143.547
21
-119.068
0
LINE
8
Black
10
143.547
20
-119.068
11
143.538
21
-119.083
0
LINE
8
Black
10
143.538
20
-119.083
11
143.525
21
-119.094
0
LINE
8
Black
10
143.525
20
-119.094
11
143.508
21
-119.1
0
LINE
8
Black
10
143.508
20
-119.1
11
143.491
21
-119.1
0
LINE
8
Black
10
143.491
20
-119.1
11
143.475
21
-119.094
0
LINE
8
Black
10
143.475
20
-119.094
11
143.461
21
-119.083
0
LINE
8
Black
10
143.461
20
-119.083
11
143.453
21
-119.068
0
LINE
8
Black
10
143.453
20
-119.068
11
143.45
21
-119.051
0
LINE
8
Black
10
143.45
20
-119.051
11
143.45
21
-116.051
0
LINE
8
Black
10
143.45
20
-116.051
11
140.45
21
-116.051
0
LINE
8
Black
10
140.45
20
-116.051
11
140.433
21
-116.048
0
LINE
8
Black
10
140.433
20
-116.048
11
140.418
21
-116.039
0
LINE
8
Black
10
140.418
20
-116.039
11
140.406
21
-116.026
0
LINE
8
Black
10
140.406
20
-116.026
11
140.4
21
-116.009
0
LINE
8
Black
10
140.4
20
-116.009
11
140.4
21
-115.992
0
LINE
8
Black
10
140.4
20
-115.992
11
140.406
21
-115.976
0
LINE
8
Black
10
140.406
20
-115.976
11
140.418
21
-115.962
0
LINE
8
Black
10
140.418
20
-115.962
11
140.433
21
-115.954
0
LINE
8
Black
10
140.433
20
-115.954
11
140.45
21
-115.951
0
LINE
8
Black
10
140.45
20
-115.951
11
143.45
21
-115.951
0
LINE
8
Black
10
143.45
20
-115.951
11
143.45
21
-112.951
0
LINE
8
Black
10
143.45
20
-112.951
11
143.453
21
-112.934
0
LINE
8
Black
10
143.453
20
-112.934
11
143.461
21
-112.918
0
LINE
8
Black
10
143.461
20
-112.918
11
143.475
21
-112.907
0
LINE
8
Black
10
143.475
20
-112.907
11
143.491
21
-112.901
0
LINE
8
Black
10
143.491
20
-112.901
11
143.508
21
-112.901
0
LINE
8
Black
10
143.508
20
-112.901
11
143.525
21
-112.907
0
LINE
8
Black
10
130.525
20
-112.907
11
130.538
21
-112.918
0
LINE
8
Black
10
130.538
20
-112.918
11
130.547
21
-112.933
0
LINE
8
Black
10
130.547
20
-112.933
11
130.55
21
-112.95
0
LINE
8
Black
10
130.55
20
-112.95
11
130.55
21
-115.95
0
LINE
8
Black
10
130.55
20
-115.95
11
133.55
21
-115.95
0
LINE
8
Black
10
133.55
20
-115.95
11
133.567
21
-115.953
0
LINE
8
Black
10
133.567
20
-115.953
11
133.582
21
-115.962
0
LINE
8
Black
10
133.582
20
-115.962
11
133.593
21
-115.975
0
LINE
8
Black
10
133.593
20
-115.975
11
133.599
21
-115.992
0
LINE
8
Black
10
133.599
20
-115.992
11
133.599
21
-116.009
0
LINE
8
Black
10
133.599
20
-116.009
11
133.593
21
-116.025
0
LINE
8
Black
10
133.593
20
-116.025
11
133.582
21
-116.039
0
LINE
8
Black
10
133.582
20
-116.039
11
133.567
21
-116.047
0
LINE
8
Black
10
133.567
20
-116.047
11
133.55
21
-116.05
0
LINE
8
Black
10
133.55
20
-116.05
11
130.55
21
-116.05
0
LINE
8
Black
10
130.55
20
-116.05
11
130.55
21
-119.05
0
LINE
8
Black
10
130.55
20
-119.05
11
130.547
21
-119.067
0
LINE
8
Black
10
130.547
20
-119.067
11
130.538
21
-119.082
0
LINE
8
Black
10
130.538
20
-119.082
11
130.525
21
-119.094
0
LINE
8
Black
10
130.525
20
-119.094
11
130.509
21
-119.1
0
LINE
8
Black
10
130.509
20
-119.1
11
130.491
21
-119.1
0
LINE
8
Black
10
130.491
20
-119.1
11
130.475
21
-119.094
0
LINE
8
Black
10
130.475
20
-119.094
11
130.462
21
-119.082
0
LINE
8
Black
10
130.462
20
-119.082
11
130.453
21
-119.067
0
LINE
8
Black
10
130.453
20
-119.067
11
130.45
21
-119.05
0
LINE
8
Black
10
130.45
20
-119.05
11
130.45
21
-116.05
0
LINE
8
Black
10
130.45
20
-116.05
11
127.45
21
-116.05
0
LINE
8
Black
10
127.45
20
-116.05
11
127.433
21
-116.047
0
LINE
8
Black
10
127.433
20
-116.047
11
127.418
21
-116.039
0
LINE
8
Black
10
127.418
20
-116.039
11
127.407
21
-116.025
0
LINE
8
Black
10
127.407
20
-116.025
11
127.401
21
-116.009
0
LINE
8
Black
10
127.401
20
-116.009
11
127.401
21
-115.992
0
LINE
8
Black
10
127.401
20
-115.992
11
127.407
21
-115.975
0
LINE
8
Black
10
127.407
20
-115.975
11
127.418
21
-115.962
0
LINE
8
Black
10
127.418
20
-115.962
11
127.433
21
-115.953
0
LINE
8
Black
10
127.433
20
-115.953
11
127.45
21
-115.95
0
LINE
8
Black
10
127.45
20
-115.95
11
130.45
21
-115.95
0
LINE
8
Black
10
130.45
20
-115.95
11
130.45
21
-112.95
0
LINE
8
Black
10
130.45
20
-112.95
11
130.453
21
-112.933
0
LINE
8
Black
10
130.453
20
-112.933
11
130.462
21
-112.918
0
LINE
8
Black
10
130.462
20
-112.918
11
130.475
21
-112.907
0
LINE
8
Black
10
130.475
20
-112.907
11
130.491
21
-112.901
0
LINE
8
Black
10
130.491
20
-112.901
11
130.509
21
-112.901
0
LINE
8
Black
10
130.509
20
-112.901
11
130.525
21
-112.907
0
LINE
8
Black
10
143.525
20
-99.9081
11
143.538
21
-99.9192
0
LINE
8
Black
10
143.538
20
-99.9192
11
143.547
21
-99.9343
0
LINE
8
Black
10
143.547
20
-99.9343
11
143.55
21
-99.9514
0
LINE
8
Black
10
143.55
20
-99.9514
11
143.55
21
-102.951
0
LINE
8
Black
10
143.55
20
-102.951
11
146.55
21
-102.951
0
LINE
8
Black
10
146.55
20
-102.951
11
146.567
21
-102.954
0
LINE
8
Black
10
146.567
20
-102.954
11
146.582
21
-102.963
0
LINE
8
Black
10
146.582
20
-102.963
11
146.593
21
-102.976
0
LINE
8
Black
10
146.593
20
-102.976
11
146.599
21
-102.993
0
LINE
8
Black
10
146.599
20
-102.993
11
146.599
21
-103.01
0
LINE
8
Black
10
146.599
20
-103.01
11
146.593
21
-103.026
0
LINE
8
Black
10
146.593
20
-103.026
11
146.582
21
-103.04
0
LINE
8
Black
10
146.582
20
-103.04
11
146.567
21
-103.048
0
LINE
8
Black
10
146.567
20
-103.048
11
146.55
21
-103.051
0
LINE
8
Black
10
146.55
20
-103.051
11
143.55
21
-103.051
0
LINE
8
Black
10
143.55
20
-103.051
11
143.55
21
-106.051
0
LINE
8
Black
10
143.55
20
-106.051
11
143.547
21
-106.068
0
LINE
8
Black
10
143.547
20
-106.068
11
143.538
21
-106.084
0
LINE
8
Black
10
143.538
20
-106.084
11
143.525
21
-106.095
0
LINE
8
Black
10
143.525
20
-106.095
11
143.509
21
-106.101
0
LINE
8
Black
10
143.509
20
-106.101
11
143.491
21
-106.101
0
LINE
8
Black
10
143.491
20
-106.101
11
143.475
21
-106.095
0
LINE
8
Black
10
143.475
20
-106.095
11
143.462
21
-106.084
0
LINE
8
Black
10
143.462
20
-106.084
11
143.453
21
-106.068
0
LINE
8
Black
10
143.453
20
-106.068
11
143.45
21
-106.051
0
LINE
8
Black
10
143.45
20
-106.051
11
143.45
21
-103.051
0
LINE
8
Black
10
143.45
20
-103.051
11
140.45
21
-103.051
0
LINE
8
Black
10
140.45
20
-103.051
11
140.433
21
-103.048
0
LINE
8
Black
10
140.433
20
-103.048
11
140.418
21
-103.04
0
LINE
8
Black
10
140.418
20
-103.04
11
140.407
21
-103.026
0
LINE
8
Black
10
140.407
20
-103.026
11
140.401
21
-103.01
0
LINE
8
Black
10
140.401
20
-103.01
11
140.401
21
-102.993
0
LINE
8
Black
10
140.401
20
-102.993
11
140.407
21
-102.976
0
LINE
8
Black
10
140.407
20
-102.976
11
140.418
21
-102.963
0
LINE
8
Black
10
140.418
20
-102.963
11
140.433
21
-102.954
0
LINE
8
Black
10
140.433
20
-102.954
11
140.45
21
-102.951
0
LINE
8
Black
10
140.45
20
-102.951
11
143.45
21
-102.951
0
LINE
8
Black
10
143.45
20
-102.951
11
143.45
21
-99.9514
0
LINE
8
Black
10
143.45
20
-99.9514
11
143.453
21
-99.9343
0
LINE
8
Black
10
143.453
20
-99.9343
11
143.462
21
-99.9192
0
LINE
8
Black
10
143.462
20
-99.9192
11
143.475
21
-99.9081
0
LINE
8
Black
10
143.475
20
-99.9081
11
143.491
21
-99.9021
0
LINE
8
Black
10
143.491
20
-99.9021
11
143.509
21
-99.9021
0
LINE
8
Black
10
143.509
20
-99.9021
11
143.525
21
-99.9081
0
LINE
8
Black
10
117.525
20
-99.9075
11
117.539
21
-99.9187
0
LINE
8
Black
10
117.539
20
-99.9187
11
117.547
21
-99.9337
0
LINE
8
Black
10
117.547
20
-99.9337
11
117.55
21
-99.9508
0
LINE
8
Black
10
117.55
20
-99.9508
11
117.55
21
-102.951
0
LINE
8
Black
10
117.55
20
-102.951
11
120.55
21
-102.951
0
LINE
8
Black
10
120.55
20
-102.951
11
120.567
21
-102.954
0
LINE
8
Black
10
120.567
20
-102.954
11
120.582
21
-102.963
0
LINE
8
Black
10
120.582
20
-102.963
11
120.594
21
-102.976
0
LINE
8
Black
10
120.594
20
-102.976
11
120.6
21
-102.992
0
LINE
8
Black
10
120.6
20
-102.992
11
120.6
21
-103.01
0
LINE
8
Black
10
120.6
20
-103.01
11
120.594
21
-103.026
0
LINE
8
Black
10
120.594
20
-103.026
11
120.582
21
-103.039
0
LINE
8
Black
10
120.582
20
-103.039
11
120.567
21
-103.048
0
LINE
8
Black
10
120.567
20
-103.048
11
120.55
21
-103.051
0
LINE
8
Black
10
120.55
20
-103.051
11
117.55
21
-103.051
0
LINE
8
Black
10
117.55
20
-103.051
11
117.55
21
-106.051
0
LINE
8
Black
10
117.55
20
-106.051
11
117.547
21
-106.068
0
LINE
8
Black
10
117.547
20
-106.068
11
117.539
21
-106.083
0
LINE
8
Black
10
117.539
20
-106.083
11
117.525
21
-106.094
0
LINE
8
Black
10
117.525
20
-106.094
11
117.509
21
-106.1
0
LINE
8
Black
10
117.509
20
-106.1
11
117.492
21
-106.1
0
LINE
8
Black
10
117.492
20
-106.1
11
117.475
21
-106.094
0
LINE
8
Black
10
117.475
20
-106.094
11
117.462
21
-106.083
0
LINE
8
Black
10
117.462
20
-106.083
11
117.453
21
-106.068
0
LINE
8
Black
10
117.453
20
-106.068
11
117.45
21
-106.051
0
LINE
8
Black
10
117.45
20
-106.051
11
117.45
21
-103.051
0
LINE
8
Black
10
117.45
20
-103.051
11
114.45
21
-103.051
0
LINE
8
Black
10
114.45
20
-103.051
11
114.433
21
-103.048
0
LINE
8
Black
10
114.433
20
-103.048
11
114.418
21
-103.039
0
LINE
8
Black
10
114.418
20
-103.039
11
114.407
21
-103.026
0
LINE
8
Black
10
114.407
20
-103.026
11
114.401
21
-103.01
0
LINE
8
Black
10
114.401
20
-103.01
11
114.401
21
-102.992
0
LINE
8
Black
10
114.401
20
-102.992
11
114.407
21
-102.976
0
LINE
8
Black
10
114.407
20
-102.976
11
114.418
21
-102.963
0
LINE
8
Black
10
114.418
20
-102.963
11
114.433
21
-102.954
0
LINE
8
Black
10
114.433
20
-102.954
11
114.45
21
-102.951
0
LINE
8
Black
10
114.45
20
-102.951
11
117.45
21
-102.951
0
LINE
8
Black
10
117.45
20
-102.951
11
117.45
21
-99.9508
0
LINE
8
Black
10
117.45
20
-99.9508
11
117.453
21
-99.9337
0
LINE
8
Black
10
117.453
20
-99.9337
11
117.462
21
-99.9187
0
LINE
8
Black
10
117.462
20
-99.9187
11
117.475
21
-99.9075
0
LINE
8
Black
10
117.475
20
-99.9075
11
117.492
21
-99.9016
0
LINE
8
Black
10
117.492
20
-99.9016
11
117.509
21
-99.9016
0
LINE
8
Black
10
117.509
20
-99.9016
11
117.525
21
-99.9075
0
LINE
8
Black
10
130.525
20
-99.9075
11
130.538
21
-99.9187
0
LINE
8
Black
10
130.538
20
-99.9187
11
130.547
21
-99.9337
0
LINE
8
Black
10
130.547
20
-99.9337
11
130.55
21
-99.9508
0
LINE
8
Black
10
130.55
20
-99.9508
11
130.55
21
-102.951
0
LINE
8
Black
10
130.55
20
-102.951
11
133.55
21
-102.951
0
LINE
8
Black
10
133.55
20
-102.951
11
133.567
21
-102.954
0
LINE
8
Black
10
133.567
20
-102.954
11
133.582
21
-102.963
0
LINE
8
Black
10
133.582
20
-102.963
11
133.593
21
-102.976
0
LINE
8
Black
10
133.593
20
-102.976
11
133.599
21
-102.992
0
LINE
8
Black
10
133.599
20
-102.992
11
133.599
21
-103.01
0
LINE
8
Black
10
133.599
20
-103.01
11
133.593
21
-103.026
0
LINE
8
Black
10
133.593
20
-103.026
11
133.582
21
-103.039
0
LINE
8
Black
10
133.582
20
-103.039
11
133.567
21
-103.048
0
LINE
8
Black
10
133.567
20
-103.048
11
133.55
21
-103.051
0
LINE
8
Black
10
133.55
20
-103.051
11
130.55
21
-103.051
0
LINE
8
Black
10
130.55
20
-103.051
11
130.55
21
-106.051
0
LINE
8
Black
10
130.55
20
-106.051
11
130.547
21
-106.068
0
LINE
8
Black
10
130.547
20
-106.068
11
130.538
21
-106.083
0
LINE
8
Black
10
130.538
20
-106.083
11
130.525
21
-106.094
0
LINE
8
Black
10
130.525
20
-106.094
11
130.509
21
-106.1
0
LINE
8
Black
10
130.509
20
-106.1
11
130.491
21
-106.1
0
LINE
8
Black
10
130.491
20
-106.1
11
130.475
21
-106.094
0
LINE
8
Black
10
130.475
20
-106.094
11
130.462
21
-106.083
0
LINE
8
Black
10
130.462
20
-106.083
11
130.453
21
-106.068
0
LINE
8
Black
10
130.453
20
-106.068
11
130.45
21
-106.051
0
LINE
8
Black
10
130.45
20
-106.051
11
130.45
21
-103.051
0
LINE
8
Black
10
130.45
20
-103.051
11
127.45
21
-103.051
0
LINE
8
Black
10
127.45
20
-103.051
11
127.433
21
-103.048
0
LINE
8
Black
10
127.433
20
-103.048
11
127.418
21
-103.039
0
LINE
8
Black
10
127.418
20
-103.039
11
127.407
21
-103.026
0
LINE
8
Black
10
127.407
20
-103.026
11
127.401
21
-103.01
0
LINE
8
Black
10
127.401
20
-103.01
11
127.401
21
-102.992
0
LINE
8
Black
10
127.401
20
-102.992
11
127.407
21
-102.976
0
LINE
8
Black
10
127.407
20
-102.976
11
127.418
21
-102.963
0
LINE
8
Black
10
127.418
20
-102.963
11
127.433
21
-102.954
0
LINE
8
Black
10
127.433
20
-102.954
11
127.45
21
-102.951
0
LINE
8
Black
10
127.45
20
-102.951
11
130.45
21
-102.951
0
LINE
8
Black
10
130.45
20
-102.951
11
130.45
21
-99.9508
0
LINE
8
Black
10
130.45
20
-99.9508
11
130.453
21
-99.9337
0
LINE
8
Black
10
130.453
20
-99.9337
11
130.462
21
-99.9187
0
LINE
8
Black
10
130.462
20
-99.9187
11
130.475
21
-99.9075
0
LINE
8
Black
10
130.475
20
-99.9075
11
130.491
21
-99.9016
0
LINE
8
Black
10
130.491
20
-99.9016
11
130.509
21
-99.9016
0
LINE
8
Black
10
130.509
20
-99.9016
11
130.525
21
-99.9075
0
LINE
8
Black
10
120.025
20
-79.9075
11
120.039
21
-79.9187
0
LINE
8
Black
10
120.039
20
-79.9187
11
120.047
21
-79.9337
0
LINE
8
Black
10
120.047
20
-79.9337
11
120.05
21
-79.9508
0
LINE
8
Black
10
120.05
20
-79.9508
11
120.05
21
-82.9508
0
LINE
8
Black
10
120.05
20
-82.9508
11
123.05
21
-82.9508
0
LINE
8
Black
10
123.05
20
-82.9508
11
123.067
21
-82.9538
0
LINE
8
Black
10
123.067
20
-82.9538
11
123.082
21
-82.9625
0
LINE
8
Black
10
123.082
20
-82.9625
11
123.094
21
-82.9758
0
LINE
8
Black
10
123.094
20
-82.9758
11
123.1
21
-82.9922
0
LINE
8
Black
10
123.1
20
-82.9922
11
123.1
21
-83.0095
0
LINE
8
Black
10
123.1
20
-83.0095
11
123.094
21
-83.0258
0
LINE
8
Black
10
123.094
20
-83.0258
11
123.082
21
-83.0391
0
LINE
8
Black
10
123.082
20
-83.0391
11
123.067
21
-83.0478
0
LINE
8
Black
10
123.067
20
-83.0478
11
123.05
21
-83.0508
0
LINE
8
Black
10
123.05
20
-83.0508
11
120.05
21
-83.0508
0
LINE
8
Black
10
120.05
20
-83.0508
11
120.05
21
-86.0508
0
LINE
8
Black
10
120.05
20
-86.0508
11
120.047
21
-86.0679
0
LINE
8
Black
10
120.047
20
-86.0679
11
120.039
21
-86.083
0
LINE
8
Black
10
120.039
20
-86.083
11
120.025
21
-86.0941
0
LINE
8
Black
10
120.025
20
-86.0941
11
120.009
21
-86.1001
0
LINE
8
Black
10
120.009
20
-86.1001
11
119.992
21
-86.1001
0
LINE
8
Black
10
119.992
20
-86.1001
11
119.975
21
-86.0941
0
LINE
8
Black
10
119.975
20
-86.0941
11
119.962
21
-86.083
0
LINE
8
Black
10
119.962
20
-86.083
11
119.953
21
-86.0679
0
LINE
8
Black
10
119.953
20
-86.0679
11
119.95
21
-86.0508
0
LINE
8
Black
10
119.95
20
-86.0508
11
119.95
21
-83.0508
0
LINE
8
Black
10
119.95
20
-83.0508
11
116.95
21
-83.0508
0
LINE
8
Black
10
116.95
20
-83.0508
11
116.933
21
-83.0478
0
LINE
8
Black
10
116.933
20
-83.0478
11
116.918
21
-83.0391
0
LINE
8
Black
10
116.918
20
-83.0391
11
116.907
21
-83.0258
0
LINE
8
Black
10
116.907
20
-83.0258
11
116.901
21
-83.0095
0
LINE
8
Black
10
116.901
20
-83.0095
11
116.901
21
-82.9922
0
LINE
8
Black
10
116.901
20
-82.9922
11
116.907
21
-82.9758
0
LINE
8
Black
10
116.907
20
-82.9758
11
116.918
21
-82.9625
0
LINE
8
Black
10
116.918
20
-82.9625
11
116.933
21
-82.9538
0
LINE
8
Black
10
116.933
20
-82.9538
11
116.95
21
-82.9508
0
LINE
8
Black
10
116.95
20
-82.9508
11
119.95
21
-82.9508
0
LINE
8
Black
10
119.95
20
-82.9508
11
119.95
21
-79.9508
0
LINE
8
Black
10
119.95
20
-79.9508
11
119.953
21
-79.9337
0
LINE
8
Black
10
119.953
20
-79.9337
11
119.962
21
-79.9187
0
LINE
8
Black
10
119.962
20
-79.9187
11
119.975
21
-79.9075
0
LINE
8
Black
10
119.975
20
-79.9075
11
119.992
21
-79.9016
0
LINE
8
Black
10
119.992
20
-79.9016
11
120.009
21
-79.9016
0
LINE
8
Black
10
120.009
20
-79.9016
11
120.025
21
-79.9075
0
LINE
8
Black
10
141.025
20
-79.9075
11
141.039
21
-79.9187
0
LINE
8
Black
10
141.039
20
-79.9187
11
141.047
21
-79.9337
0
LINE
8
Black
10
141.047
20
-79.9337
11
141.05
21
-79.9508
0
LINE
8
Black
10
141.05
20
-79.9508
11
141.05
21
-82.9508
0
LINE
8
Black
10
141.05
20
-82.9508
11
144.05
21
-82.9508
0
LINE
8
Black
10
144.05
20
-82.9508
11
144.067
21
-82.9538
0
LINE
8
Black
10
144.067
20
-82.9538
11
144.082
21
-82.9625
0
LINE
8
Black
10
144.082
20
-82.9625
11
144.094
21
-82.9758
0
LINE
8
Black
10
144.094
20
-82.9758
11
144.1
21
-82.9922
0
LINE
8
Black
10
144.1
20
-82.9922
11
144.1
21
-83.0095
0
LINE
8
Black
10
144.1
20
-83.0095
11
144.094
21
-83.0258
0
LINE
8
Black
10
144.094
20
-83.0258
11
144.082
21
-83.0391
0
LINE
8
Black
10
144.082
20
-83.0391
11
144.067
21
-83.0478
0
LINE
8
Black
10
144.067
20
-83.0478
11
144.05
21
-83.0508
0
LINE
8
Black
10
144.05
20
-83.0508
11
141.05
21
-83.0508
0
LINE
8
Black
10
141.05
20
-83.0508
11
141.05
21
-86.0508
0
LINE
8
Black
10
141.05
20
-86.0508
11
141.047
21
-86.0679
0
LINE
8
Black
10
141.047
20
-86.0679
11
141.039
21
-86.083
0
LINE
8
Black
10
141.039
20
-86.083
11
141.025
21
-86.0941
0
LINE
8
Black
10
141.025
20
-86.0941
11
141.009
21
-86.1001
0
LINE
8
Black
10
141.009
20
-86.1001
11
140.992
21
-86.1001
0
LINE
8
Black
10
140.992
20
-86.1001
11
140.975
21
-86.0941
0
LINE
8
Black
10
140.975
20
-86.0941
11
140.962
21
-86.083
0
LINE
8
Black
10
140.962
20
-86.083
11
140.953
21
-86.0679
0
LINE
8
Black
10
140.953
20
-86.0679
11
140.95
21
-86.0508
0
LINE
8
Black
10
140.95
20
-86.0508
11
140.95
21
-83.0508
0
LINE
8
Black
10
140.95
20
-83.0508
11
137.95
21
-83.0508
0
LINE
8
Black
10
137.95
20
-83.0508
11
137.933
21
-83.0478
0
LINE
8
Black
10
137.933
20
-83.0478
11
137.918
21
-83.0391
0
LINE
8
Black
10
137.918
20
-83.0391
11
137.907
21
-83.0258
0
LINE
8
Black
10
137.907
20
-83.0258
11
137.901
21
-83.0095
0
LINE
8
Black
10
137.901
20
-83.0095
11
137.901
21
-82.9922
0
LINE
8
Black
10
137.901
20
-82.9922
11
137.907
21
-82.9758
0
LINE
8
Black
10
137.907
20
-82.9758
11
137.918
21
-82.9625
0
LINE
8
Black
10
137.918
20
-82.9625
11
137.933
21
-82.9538
0
LINE
8
Black
10
137.933
20
-82.9538
11
137.95
21
-82.9508
0
LINE
8
Black
10
137.95
20
-82.9508
11
140.95
21
-82.9508
0
LINE
8
Black
10
140.95
20
-82.9508
11
140.95
21
-79.9508
0
LINE
8
Black
10
140.95
20
-79.9508
11
140.953
21
-79.9337
0
LINE
8
Black
10
140.953
20
-79.9337
11
140.962
21
-79.9187
0
LINE
8
Black
10
140.962
20
-79.9187
11
140.975
21
-79.9075
0
LINE
8
Black
10
140.975
20
-79.9075
11
140.992
21
-79.9016
0
LINE
8
Black
10
140.992
20
-79.9016
11
141.009
21
-79.9016
0
LINE
8
Black
10
141.009
20
-79.9016
11
141.025
21
-79.9075
0
LINE
8
Black
10
141.025
20
-57.9075
11
141.039
21
-57.9187
0
LINE
8
Black
10
141.039
20
-57.9187
11
141.047
21
-57.9337
0
LINE
8
Black
10
141.047
20
-57.9337
11
141.05
21
-57.9508
0
LINE
8
Black
10
141.05
20
-57.9508
11
141.05
21
-60.9508
0
LINE
8
Black
10
141.05
20
-60.9508
11
144.05
21
-60.9508
0
LINE
8
Black
10
144.05
20
-60.9508
11
144.067
21
-60.9538
0
LINE
8
Black
10
144.067
20
-60.9538
11
144.082
21
-60.9625
0
LINE
8
Black
10
144.082
20
-60.9625
11
144.094
21
-60.9758
0
LINE
8
Black
10
144.094
20
-60.9758
11
144.1
21
-60.9922
0
LINE
8
Black
10
144.1
20
-60.9922
11
144.1
21
-61.0095
0
LINE
8
Black
10
144.1
20
-61.0095
11
144.094
21
-61.0258
0
LINE
8
Black
10
144.094
20
-61.0258
11
144.082
21
-61.0391
0
LINE
8
Black
10
144.082
20
-61.0391
11
144.067
21
-61.0478
0
LINE
8
Black
10
144.067
20
-61.0478
11
144.05
21
-61.0508
0
LINE
8
Black
10
144.05
20
-61.0508
11
141.05
21
-61.0508
0
LINE
8
Black
10
141.05
20
-61.0508
11
141.05
21
-64.0508
0
LINE
8
Black
10
141.05
20
-64.0508
11
141.047
21
-64.0679
0
LINE
8
Black
10
141.047
20
-64.0679
11
141.039
21
-64.083
0
LINE
8
Black
10
141.039
20
-64.083
11
141.025
21
-64.0941
0
LINE
8
Black
10
141.025
20
-64.0941
11
141.009
21
-64.1001
0
LINE
8
Black
10
141.009
20
-64.1001
11
140.992
21
-64.1001
0
LINE
8
Black
10
140.992
20
-64.1001
11
140.975
21
-64.0941
0
LINE
8
Black
10
140.975
20
-64.0941
11
140.962
21
-64.083
0
LINE
8
Black
10
140.962
20
-64.083
11
140.953
21
-64.0679
0
LINE
8
Black
10
140.953
20
-64.0679
11
140.95
21
-64.0508
0
LINE
8
Black
10
140.95
20
-64.0508
11
140.95
21
-61.0508
0
LINE
8
Black
10
140.95
20
-61.0508
11
137.95
21
-61.0508
0
LINE
8
Black
10
137.95
20
-61.0508
11
137.933
21
-61.0478
0
LINE
8
Black
10
137.933
20
-61.0478
11
137.918
21
-61.0391
0
LINE
8
Black
10
137.918
20
-61.0391
11
137.907
21
-61.0258
0
LINE
8
Black
10
137.907
20
-61.0258
11
137.901
21
-61.0095
0
LINE
8
Black
10
137.901
20
-61.0095
11
137.901
21
-60.9922
0
LINE
8
Black
10
137.901
20
-60.9922
11
137.907
21
-60.9758
0
LINE
8
Black
10
137.907
20
-60.9758
11
137.918
21
-60.9625
0
LINE
8
Black
10
137.918
20
-60.9625
11
137.933
21
-60.9538
0
LINE
8
Black
10
137.933
20
-60.9538
11
137.95
21
-60.9508
0
LINE
8
Black
10
137.95
20
-60.9508
11
140.95
21
-60.9508
0
LINE
8
Black
10
140.95
20
-60.9508
11
140.95
21
-57.9508
0
LINE
8
Black
10
140.95
20
-57.9508
11
140.953
21
-57.9337
0
LINE
8
Black
10
140.953
20
-57.9337
11
140.962
21
-57.9187
0
LINE
8
Black
10
140.962
20
-57.9187
11
140.975
21
-57.9075
0
LINE
8
Black
10
140.975
20
-57.9075
11
140.992
21
-57.9016
0
LINE
8
Black
10
140.992
20
-57.9016
11
141.009
21
-57.9016
0
LINE
8
Black
10
141.009
20
-57.9016
11
141.025
21
-57.9075
0
LINE
8
Black
10
120.025
20
-57.9075
11
120.039
21
-57.9187
0
LINE
8
Black
10
120.039
20
-57.9187
11
120.047
21
-57.9337
0
LINE
8
Black
10
120.047
20
-57.9337
11
120.05
21
-57.9508
0
LINE
8
Black
10
120.05
20
-57.9508
11
120.05
21
-60.9508
0
LINE
8
Black
10
120.05
20
-60.9508
11
123.05
21
-60.9508
0
LINE
8
Black
10
123.05
20
-60.9508
11
123.067
21
-60.9538
0
LINE
8
Black
10
123.067
20
-60.9538
11
123.082
21
-60.9625
0
LINE
8
Black
10
123.082
20
-60.9625
11
123.094
21
-60.9758
0
LINE
8
Black
10
123.094
20
-60.9758
11
123.1
21
-60.9922
0
LINE
8
Black
10
123.1
20
-60.9922
11
123.1
21
-61.0095
0
LINE
8
Black
10
123.1
20
-61.0095
11
123.094
21
-61.0258
0
LINE
8
Black
10
123.094
20
-61.0258
11
123.082
21
-61.0391
0
LINE
8
Black
10
123.082
20
-61.0391
11
123.067
21
-61.0478
0
LINE
8
Black
10
123.067
20
-61.0478
11
123.05
21
-61.0508
0
LINE
8
Black
10
123.05
20
-61.0508
11
120.05
21
-61.0508
0
LINE
8
Black
10
120.05
20
-61.0508
11
120.05
21
-64.0508
0
LINE
8
Black
10
120.05
20
-64.0508
11
120.047
21
-64.0679
0
LINE
8
Black
10
120.047
20
-64.0679
11
120.039
21
-64.083
0
LINE
8
Black
10
120.039
20
-64.083
11
120.025
21
-64.0941
0
LINE
8
Black
10
120.025
20
-64.0941
11
120.009
21
-64.1001
0
LINE
8
Black
10
120.009
20
-64.1001
11
119.992
21
-64.1001
0
LINE
8
Black
10
119.992
20
-64.1001
11
119.975
21
-64.0941
0
LINE
8
Black
10
119.975
20
-64.0941
11
119.962
21
-64.083
0
LINE
8
Black
10
119.962
20
-64.083
11
119.953
21
-64.0679
0
LINE
8
Black
10
119.953
20
-64.0679
11
119.95
21
-64.0508
0
LINE
8
Black
10
119.95
20
-64.0508
11
119.95
21
-61.0508
0
LINE
8
Black
10
119.95
20
-61.0508
11
116.95
21
-61.0508
0
LINE
8
Black
10
116.95
20
-61.0508
11
116.933
21
-61.0478
0
LINE
8
Black
10
116.933
20
-61.0478
11
116.918
21
-61.0391
0
LINE
8
Black
10
116.918
20
-61.0391
11
116.907
21
-61.0258
0
LINE
8
Black
10
116.907
20
-61.0258
11
116.901
21
-61.0095
0
LINE
8
Black
10
116.901
20
-61.0095
11
116.901
21
-60.9922
0
LINE
8
Black
10
116.901
20
-60.9922
11
116.907
21
-60.9758
0
LINE
8
Black
10
116.907
20
-60.9758
11
116.918
21
-60.9625
0
LINE
8
Black
10
116.918
20
-60.9625
11
116.933
21
-60.9538
0
LINE
8
Black
10
116.933
20
-60.9538
11
116.95
21
-60.9508
0
LINE
8
Black
10
116.95
20
-60.9508
11
119.95
21
-60.9508
0
LINE
8
Black
10
119.95
20
-60.9508
11
119.95
21
-57.9508
0
LINE
8
Black
10
119.95
20
-57.9508
11
119.953
21
-57.9337
0
LINE
8
Black
10
119.953
20
-57.9337
11
119.962
21
-57.9187
0
LINE
8
Black
10
119.962
20
-57.9187
11
119.975
21
-57.9075
0
LINE
8
Black
10
119.975
20
-57.9075
11
119.992
21
-57.9016
0
LINE
8
Black
10
119.992
20
-57.9016
11
120.009
21
-57.9016
0
LINE
8
Black
10
120.009
20
-57.9016
11
120.025
21
-57.9075
0
LINE
8
Black
10
149.506
20
-54.9261
11
149.513
21
-54.9261
0
LINE
8
Black
10
149.513
20
-54.9261
11
149.519
21
-54.9284
0
LINE
8
Black
10
149.519
20
-54.9284
11
149.526
21
-54.9295
0
LINE
8
Black
10
149.526
20
-54.9295
11
149.531
21
-54.9328
0
LINE
8
Black
10
149.531
20
-54.9328
11
149.537
21
-54.935
0
LINE
8
Black
10
149.537
20
-54.935
11
149.543
21
-54.9393
0
LINE
8
Black
10
149.543
20
-54.9393
11
149.548
21
-54.9425
0
LINE
8
Black
10
149.548
20
-54.9425
11
149.552
21
-54.9476
0
LINE
8
Black
10
149.552
20
-54.9476
11
149.557
21
-54.9518
0
LINE
8
Black
10
149.557
20
-54.9518
11
149.561
21
-54.9575
0
LINE
8
Black
10
149.561
20
-54.9575
11
149.565
21
-54.9625
0
LINE
8
Black
10
149.565
20
-54.9625
11
149.567
21
-54.9687
0
LINE
8
Black
10
149.567
20
-54.9687
11
149.57
21
-54.9743
0
LINE
8
Black
10
149.57
20
-54.9743
11
149.572
21
-54.9808
0
LINE
8
Black
10
149.572
20
-54.9808
11
149.574
21
-54.987
0
LINE
8
Black
10
149.574
20
-54.987
11
149.574
21
-54.9935
0
LINE
8
Black
10
149.574
20
-54.9935
11
149.575
21
-55
0
LINE
8
Black
10
149.575
20
-55
11
149.575
21
-160
0
LINE
8
Black
10
149.575
20
-160
11
149.574
21
-160.006
0
LINE
8
Black
10
149.574
20
-160.006
11
149.574
21
-160.013
0
LINE
8
Black
10
149.574
20
-160.013
11
149.572
21
-160.019
0
LINE
8
Black
10
149.572
20
-160.019
11
149.57
21
-160.026
0
LINE
8
Black
10
149.57
20
-160.026
11
149.567
21
-160.031
0
LINE
8
Black
10
149.567
20
-160.031
11
149.565
21
-160.037
0
LINE
8
Black
10
149.565
20
-160.037
11
149.561
21
-160.043
0
LINE
8
Black
10
149.561
20
-160.043
11
149.557
21
-160.048
0
LINE
8
Black
10
149.557
20
-160.048
11
149.552
21
-160.052
0
LINE
8
Black
10
149.552
20
-160.052
11
149.548
21
-160.057
0
LINE
8
Black
10
149.548
20
-160.057
11
149.543
21
-160.061
0
LINE
8
Black
10
149.543
20
-160.061
11
149.537
21
-160.065
0
LINE
8
Black
10
149.537
20
-160.065
11
149.531
21
-160.067
0
LINE
8
Black
10
149.531
20
-160.067
11
149.526
21
-160.07
0
LINE
8
Black
10
149.526
20
-160.07
11
149.519
21
-160.072
0
LINE
8
Black
10
149.519
20
-160.072
11
149.513
21
-160.074
0
LINE
8
Black
10
149.513
20
-160.074
11
149.506
21
-160.074
0
LINE
8
Black
10
149.506
20
-160.074
11
149.5
21
-160.075
0
LINE
8
Black
10
149.5
20
-160.075
11
111.5
21
-160.075
0
LINE
8
Black
10
111.5
20
-160.075
11
111.494
21
-160.074
0
LINE
8
Black
10
111.494
20
-160.074
11
111.487
21
-160.074
0
LINE
8
Black
10
111.487
20
-160.074
11
111.481
21
-160.072
0
LINE
8
Black
10
111.481
20
-160.072
11
111.474
21
-160.07
0
LINE
8
Black
10
111.474
20
-160.07
11
111.469
21
-160.067
0
LINE
8
Black
10
111.469
20
-160.067
11
111.462
21
-160.065
0
LINE
8
Black
10
111.462
20
-160.065
11
111.457
21
-160.061
0
LINE
8
Black
10
111.457
20
-160.061
11
111.452
21
-160.057
0
LINE
8
Black
10
111.452
20
-160.057
11
111.448
21
-160.052
0
LINE
8
Black
10
111.448
20
-160.052
11
111.443
21
-160.048
0
LINE
8
Black
10
111.443
20
-160.048
11
111.439
21
-160.043
0
LINE
8
Black
10
111.439
20
-160.043
11
111.435
21
-160.037
0
LINE
8
Black
10
111.435
20
-160.037
11
111.433
21
-160.031
0
LINE
8
Black
10
111.433
20
-160.031
11
111.43
21
-160.026
0
LINE
8
Black
10
111.43
20
-160.026
11
111.428
21
-160.019
0
LINE
8
Black
10
111.428
20
-160.019
11
111.426
21
-160.013
0
LINE
8
Black
10
111.426
20
-160.013
11
111.426
21
-160.006
0
LINE
8
Black
10
111.426
20
-160.006
11
111.425
21
-160
0
LINE
8
Black
10
111.425
20
-160
11
111.425
21
-55
0
LINE
8
Black
10
111.425
20
-55
11
111.426
21
-54.9935
0
LINE
8
Black
10
111.426
20
-54.9935
11
111.426
21
-54.987
0
LINE
8
Black
10
111.426
20
-54.987
11
111.428
21
-54.9808
0
LINE
8
Black
10
111.428
20
-54.9808
11
111.43
21
-54.9743
0
LINE
8
Black
10
111.43
20
-54.9743
11
111.433
21
-54.9687
0
LINE
8
Black
10
111.433
20
-54.9687
11
111.435
21
-54.9625
0
LINE
8
Black
10
111.435
20
-54.9625
11
111.439
21
-54.9575
0
LINE
8
Black
10
111.439
20
-54.9575
11
111.443
21
-54.9518
0
LINE
8
Black
10
111.443
20
-54.9518
11
111.448
21
-54.9476
0
LINE
8
Black
10
111.448
20
-54.9476
11
111.452
21
-54.9425
0
LINE
8
Black
10
111.452
20
-54.9425
11
111.457
21
-54.9393
0
LINE
8
Black
10
111.457
20
-54.9393
11
111.462
21
-54.935
0
LINE
8
Black
10
111.462
20
-54.935
11
111.469
21
-54.9328
0
LINE
8
Black
10
111.469
20
-54.9328
11
111.474
21
-54.9295
0
LINE
8
Black
10
111.474
20
-54.9295
11
111.481
21
-54.9284
0
LINE
8
Black
10
111.481
20
-54.9284
11
111.487
21
-54.9261
0
LINE
8
Black
10
111.487
20
-54.9261
11
111.494
21
-54.9261
0
LINE
8
Black
10
111.494
20
-54.9261
11
111.5
21
-54.925
0
LINE
8
Black
10
111.5
20
-54.925
11
149.5
21
-54.925
0
LINE
8
Black
10
149.5
20
-54.925
11
149.506
21
-54.9261
0
LINE
8
Black
10
111.575
20
-55.075
11
111.575
21
-159.925
0
LINE
8
Black
10
111.575
20
-159.925
11
149.425
21
-159.925
0
LINE
8
Black
10
149.425
20
-159.925
11
149.425
21
-55.075
0
LINE
8
Black
10
149.425
20
-55.075
11
111.575
21
-55.075
  0
ENDSEC
  0
EOF
