<?xml version="1.0" standalone="no"?>
 <!DOCTYPE svg PUBLIC "-//W3C//DTD SVG 1.1//EN" 
 "http://www.w3.org/Graphics/SVG/1.1/DTD/svg11.dtd"> 
<svg xmlns="http://www.w3.org/2000/svg" version="1.1" 
    width="29.7002cm" height="21.0007cm" viewBox="0 0 116930 82680 ">
<title>SVG Picture created as 881-Dwgs.User.svg date 2020/10/17 21:34:15 </title>
  <desc>Picture generated by PCBNEW </desc>
<g style="fill:#000000; fill-opacity:1;stroke:#000000; stroke-opacity:1;
stroke-linecap:round; stroke-linejoin:round; "
 transform="translate(0 0) scale(1 1)">
</g>
<g style="fill:#000000; fill-opacity:0.0; 
stroke:#000000; stroke-width:-0.000393701; stroke-opacity:1; 
stroke-linecap:round; stroke-linejoin:round;">
</g>
<g style="fill:#000000; fill-opacity:0.0; 
stroke:#000000; stroke-width:39.3701; stroke-opacity:1; 
stroke-linecap:round; stroke-linejoin:round;">
<path d="M47244 22815
L47244 25216
" />
<path d="M48445 24016
L46043 24016
" />
<path d="M55511 22815
L55511 25216
" />
<path d="M56712 24016
L54311 24016
" />
<path d="M55511 31476
L55511 33878
" />
<path d="M56712 32677
L54311 32677
" />
<path d="M47244 31476
L47244 33878
" />
<path d="M48445 32677
L46043 32677
" />
<path d="M43897 21653
L49175 21653
" />
<path d="M43897 21653
L57786 21653
" />
<path d="M52578 61023
L50177 61023
" />
<path d="M51377 59823
L51377 62224
" />
<path d="M43897 62992
L43897 21653
" />
<path d="M58858 62992
L43897 62992
" />
<path d="M58858 21653
L58858 62992
" />
<path d="M43897 21653
L58858 21653
" />
<path d="M57697 61024
L55295 61024
" />
<path d="M56496 59823
L56496 62224
" />
<path d="M47460 61023
L45058 61023
" />
<path d="M46259 59823
L46259 62224
" />
<path d="M47460 55905
L45058 55905
" />
<path d="M46259 54705
L46259 57106
" />
<path d="M52578 55905
L50177 55905
" />
<path d="M51377 54704
L51377 57106
" />
<path d="M57696 55905
L55295 55905
" />
<path d="M56496 54704
L56496 57106
" />
<path d="M57696 50787
L55295 50787
" />
<path d="M56495 49586
L56495 51988
" />
<path d="M52578 50787
L50177 50787
" />
<path d="M51377 49586
L51377 51988
" />
<path d="M47460 50787
L45059 50787
" />
<path d="M46259 49586
L46259 51988
" />
<path d="M57696 45669
L55295 45669
" />
<path d="M56495 44468
L56495 46870
" />
<path d="M52578 45669
L50177 45669
" />
<path d="M51377 44468
L51377 46870
" />
<path d="M47460 45669
L45059 45669
" />
<path d="M46259 44468
L46259 46870
" />
<path d="M57696 40551
L55295 40551
" />
<path d="M56496 39350
L56496 41752
" />
<path d="M52578 40551
L50177 40551
" />
<path d="M51377 39350
L51377 41752
" />
<path d="M47460 40551
L45059 40551
" />
<path d="M46259 39350
L46259 41752
" />
</g>
<g style="fill:#000000; fill-opacity:0.0; 
stroke:#000000; stroke-width:59.0551; stroke-opacity:1; 
stroke-linecap:round; stroke-linejoin:round;">
<path d="M43897 62992
L43897 21653
" />
<path d="M58858 62992
L43897 62992
" />
<path d="M58858 21653
L58858 62992
" />
<path d="M43897 21653
L58858 21653
" />
</g> 
</svg>
