G04 #@! TF.FileFunction,Copper,L3,Inr,Signal*
%FSLAX46Y46*%
G04 Gerber Fmt 4.6, Leading zero omitted, Abs format (unit mm)*
G04 Created by KiCad (PCBNEW 4.0.2-stable) date 2020-09-28 8:48:27 PM*
%MOMM*%
G01*
G04 APERTURE LIST*
%ADD10C,0.200000*%
%ADD11C,2.500000*%
%ADD12R,1.800000X1.800000*%
%ADD13C,1.800000*%
%ADD14R,1.600000X2.000000*%
%ADD15R,2.000000X1.500000*%
%ADD16O,2.000000X1.500000*%
%ADD17O,2.500000X4.000000*%
%ADD18O,2.000000X2.500000*%
%ADD19O,3.500000X1.500000*%
%ADD20C,1.000000*%
%ADD21C,0.900000*%
%ADD22C,0.350000*%
%ADD23C,0.250000*%
%ADD24C,0.254000*%
G04 APERTURE END LIST*
D10*
D11*
X135500000Y-83000000D03*
X146500000Y-83000000D03*
X141000000Y-88500000D03*
X141000000Y-78500000D03*
X137110000Y-86890000D03*
X144890000Y-86890000D03*
D12*
X130500000Y-153250000D03*
D13*
X130500000Y-156750000D03*
D14*
X130500000Y-155000000D03*
D15*
X132020000Y-85960000D03*
D16*
X128980000Y-85960000D03*
X132020000Y-88500000D03*
X128980000Y-88500000D03*
X132020000Y-91040000D03*
X128980000Y-91040000D03*
D17*
X115300000Y-61000000D03*
D18*
X124700000Y-61000000D03*
D19*
X120000000Y-56100000D03*
X120000000Y-64300000D03*
D17*
X136300000Y-61000000D03*
D18*
X145700000Y-61000000D03*
D19*
X141000000Y-56100000D03*
X141000000Y-64300000D03*
D17*
X112800000Y-155000000D03*
D18*
X122200000Y-155000000D03*
D19*
X117500000Y-150100000D03*
X117500000Y-158300000D03*
D17*
X138800000Y-155000000D03*
D18*
X148200000Y-155000000D03*
D19*
X143500000Y-150100000D03*
X143500000Y-158300000D03*
D17*
X112800000Y-103000000D03*
D18*
X122200000Y-103000000D03*
D19*
X117500000Y-98100000D03*
X117500000Y-106300000D03*
D17*
X125800000Y-103000000D03*
D18*
X135200000Y-103000000D03*
D19*
X130500000Y-98100000D03*
X130500000Y-106300000D03*
D17*
X138800000Y-103000000D03*
D18*
X148200000Y-103000000D03*
D19*
X143500000Y-98100000D03*
X143500000Y-106300000D03*
D17*
X112800000Y-116000000D03*
D18*
X122200000Y-116000000D03*
D19*
X117500000Y-111100000D03*
X117500000Y-119300000D03*
D17*
X125800000Y-116000000D03*
D18*
X135200000Y-116000000D03*
D19*
X130500000Y-111100000D03*
X130500000Y-119300000D03*
D17*
X138800000Y-116000000D03*
D18*
X148200000Y-116000000D03*
D19*
X143500000Y-111100000D03*
X143500000Y-119300000D03*
D17*
X112800000Y-129000000D03*
D18*
X122200000Y-129000000D03*
D19*
X117500000Y-124100000D03*
X117500000Y-132300000D03*
D17*
X125800000Y-129000000D03*
D18*
X135200000Y-129000000D03*
D19*
X130500000Y-124100000D03*
X130500000Y-132300000D03*
D17*
X138800000Y-129000000D03*
D18*
X148200000Y-129000000D03*
D19*
X143500000Y-124100000D03*
X143500000Y-132300000D03*
D17*
X112800000Y-142000000D03*
D18*
X122200000Y-142000000D03*
D19*
X117500000Y-137100000D03*
X117500000Y-145300000D03*
D17*
X125800000Y-142000000D03*
D18*
X135200000Y-142000000D03*
D19*
X130500000Y-137100000D03*
X130500000Y-145300000D03*
D17*
X138800000Y-142000000D03*
D18*
X148200000Y-142000000D03*
D19*
X143500000Y-137100000D03*
X143500000Y-145300000D03*
D16*
X128980000Y-68310000D03*
X132020000Y-68310000D03*
D15*
X132020000Y-60690000D03*
D16*
X128980000Y-60690000D03*
X132020000Y-63230000D03*
X128980000Y-63230000D03*
X132020000Y-65770000D03*
X128980000Y-65770000D03*
D11*
X114500000Y-83000000D03*
X125500000Y-83000000D03*
X120000000Y-88500000D03*
X120000000Y-78500000D03*
X116110000Y-86890000D03*
X123890000Y-86890000D03*
D20*
X116875020Y-96045933D03*
X125300000Y-68300000D03*
X116600000Y-77300000D03*
X138400000Y-77300000D03*
X116300000Y-72100000D03*
X127400000Y-80500000D03*
X129500000Y-77100000D03*
X127400000Y-77100000D03*
X134750000Y-105250000D03*
X128502485Y-83774980D03*
X116000000Y-75500000D03*
X144100000Y-135000000D03*
X131300000Y-135000000D03*
X118300000Y-135000000D03*
X144300000Y-122000000D03*
X131300000Y-122000000D03*
X118300000Y-122000000D03*
X144400000Y-109000000D03*
X118300000Y-109000000D03*
X137200000Y-95400000D03*
X144500000Y-96000000D03*
X118300000Y-96000000D03*
X143300000Y-155400000D03*
X135400000Y-153800000D03*
X138100000Y-151100000D03*
X117300000Y-155100000D03*
X143750000Y-81000000D03*
X143500000Y-78750000D03*
X128500000Y-82700000D03*
X128500000Y-81600000D03*
X128500000Y-80500000D03*
X127400000Y-79000000D03*
X136000000Y-75700000D03*
D21*
X134000000Y-94499996D03*
X138300002Y-70000000D03*
X116300000Y-66600000D03*
X135900000Y-71100000D03*
X115100000Y-66600000D03*
X144700000Y-75800000D03*
X146700000Y-157700000D03*
X148100000Y-148000000D03*
X119800000Y-70225031D03*
X131900000Y-109100000D03*
X118900000Y-65700000D03*
X147100000Y-107800000D03*
X118600000Y-71000051D03*
X121100000Y-121100008D03*
X122600000Y-70400000D03*
X134100002Y-121000000D03*
X143400000Y-72300000D03*
X147100000Y-121100000D03*
X142200000Y-72300000D03*
X122100000Y-135000000D03*
X140900000Y-75200000D03*
X134100000Y-134000000D03*
X147025031Y-133900000D03*
X139600000Y-75200000D03*
X144700000Y-72299998D03*
X124000000Y-75000000D03*
D22*
X127400000Y-79000000D02*
X127400000Y-80500000D01*
X128500000Y-83772495D02*
X128502485Y-83774980D01*
X128500000Y-82700000D02*
X128500000Y-83772495D01*
X128500000Y-80500000D02*
X128500000Y-81600000D01*
D23*
X144700000Y-75800000D02*
X145575001Y-74924999D01*
X145575001Y-74924999D02*
X145575001Y-71927999D01*
X136500000Y-69800000D02*
X127800000Y-69800000D01*
X127630000Y-65770000D02*
X129230000Y-65770000D01*
X145575001Y-71927999D02*
X144447002Y-70800000D01*
X144447002Y-70800000D02*
X137500000Y-70800000D01*
X137500000Y-70800000D02*
X136500000Y-69800000D01*
X127800000Y-69800000D02*
X126800000Y-68800000D01*
X126800000Y-68800000D02*
X126800000Y-66600000D01*
X126800000Y-66600000D02*
X127630000Y-65770000D01*
X114500000Y-83000000D02*
X114500000Y-81232234D01*
X114500000Y-81232234D02*
X113600000Y-80332234D01*
X113600000Y-80332234D02*
X113600000Y-69500000D01*
X113600000Y-69500000D02*
X114700000Y-68400000D01*
X114700000Y-68400000D02*
X121300000Y-68400000D01*
X121300000Y-68400000D02*
X126470000Y-63230000D01*
X126470000Y-63230000D02*
X129230000Y-63230000D01*
X131770000Y-60690000D02*
X131770000Y-59530000D01*
X131770000Y-59530000D02*
X133200000Y-58100000D01*
X133200000Y-58100000D02*
X142300000Y-58100000D01*
X142300000Y-58100000D02*
X143400000Y-59200000D01*
X143400000Y-59200000D02*
X143400000Y-62400000D01*
X145800000Y-89600000D02*
X145800000Y-156800000D01*
X143400000Y-62400000D02*
X148075001Y-67075001D01*
X148075001Y-67075001D02*
X148075001Y-87324999D01*
X148075001Y-87324999D02*
X145800000Y-89600000D01*
X145800000Y-156800000D02*
X146700000Y-157700000D01*
X129230000Y-60690000D02*
X132270011Y-57649989D01*
X146250011Y-146150011D02*
X147650001Y-147550001D01*
X132270011Y-57649989D02*
X145749989Y-57649989D01*
X145749989Y-57649989D02*
X148525012Y-60425012D01*
X148525012Y-60425012D02*
X148525012Y-87874988D01*
X148525012Y-87874988D02*
X146250011Y-90149989D01*
X146250011Y-90149989D02*
X146250011Y-146150011D01*
X147650001Y-147550001D02*
X148100000Y-148000000D01*
X124000000Y-75000000D02*
X126800000Y-72200000D01*
X126800000Y-72200000D02*
X136700000Y-72200000D01*
X136700000Y-72200000D02*
X137375001Y-71524999D01*
X137375001Y-71524999D02*
X143925001Y-71524999D01*
X143925001Y-71524999D02*
X144250001Y-71849999D01*
X144250001Y-71849999D02*
X144700000Y-72299998D01*
D24*
G36*
X115418847Y-72274473D02*
X115552689Y-72598395D01*
X115800302Y-72846440D01*
X116123989Y-72980847D01*
X116474473Y-72981153D01*
X116798395Y-72847311D01*
X117046440Y-72599698D01*
X117180847Y-72276011D01*
X117180977Y-72127000D01*
X126157408Y-72127000D01*
X124115307Y-74169101D01*
X123835429Y-74168856D01*
X123529891Y-74295102D01*
X123295923Y-74528662D01*
X123169145Y-74833979D01*
X123168856Y-75164571D01*
X123295102Y-75470109D01*
X123528662Y-75704077D01*
X123833979Y-75830855D01*
X124164571Y-75831144D01*
X124470109Y-75704898D01*
X124704077Y-75471338D01*
X124830855Y-75166021D01*
X124831101Y-74884491D01*
X127009592Y-72706000D01*
X136700000Y-72706000D01*
X136893638Y-72667483D01*
X137057796Y-72557796D01*
X137488592Y-72127000D01*
X141372043Y-72127000D01*
X141369145Y-72133979D01*
X141368856Y-72464571D01*
X141495102Y-72770109D01*
X141728662Y-73004077D01*
X142033979Y-73130855D01*
X142364571Y-73131144D01*
X142670109Y-73004898D01*
X142800022Y-72875212D01*
X142928662Y-73004077D01*
X143233979Y-73130855D01*
X143564571Y-73131144D01*
X143870109Y-73004898D01*
X144050110Y-72825211D01*
X144228662Y-73004075D01*
X144533979Y-73130853D01*
X144864571Y-73131142D01*
X145069001Y-73046673D01*
X145069001Y-74715407D01*
X144815307Y-74969101D01*
X144535429Y-74968856D01*
X144229891Y-75095102D01*
X143995923Y-75328662D01*
X143869145Y-75633979D01*
X143868856Y-75964571D01*
X143995102Y-76270109D01*
X144228662Y-76504077D01*
X144533979Y-76630855D01*
X144864571Y-76631144D01*
X145170109Y-76504898D01*
X145404077Y-76271338D01*
X145530855Y-75966021D01*
X145531101Y-75684491D01*
X145932797Y-75282795D01*
X146042484Y-75118637D01*
X146081001Y-74924999D01*
X146081001Y-72127000D01*
X147373000Y-72127000D01*
X147373000Y-81596481D01*
X146825849Y-81369284D01*
X146176997Y-81368718D01*
X145577320Y-81616499D01*
X145118112Y-82074907D01*
X144869284Y-82674151D01*
X144868718Y-83323003D01*
X145116499Y-83922680D01*
X145574907Y-84381888D01*
X146174151Y-84630716D01*
X146823003Y-84631282D01*
X147373000Y-84404028D01*
X147373000Y-87311408D01*
X145442204Y-89242204D01*
X145332517Y-89406362D01*
X145294000Y-89600000D01*
X145294000Y-93404765D01*
X145023650Y-92750468D01*
X144452538Y-92178359D01*
X143705963Y-91868354D01*
X142897584Y-91867648D01*
X142150468Y-92176350D01*
X141578359Y-92747462D01*
X141268354Y-93494037D01*
X141267648Y-94302416D01*
X141576350Y-95049532D01*
X142147462Y-95621641D01*
X142894037Y-95931646D01*
X143702416Y-95932352D01*
X144449532Y-95623650D01*
X145021641Y-95052538D01*
X145294000Y-94396625D01*
X145294000Y-97268532D01*
X144974564Y-97055092D01*
X144541749Y-96969000D01*
X142458251Y-96969000D01*
X142025436Y-97055092D01*
X141658513Y-97300262D01*
X141413343Y-97667185D01*
X141327251Y-98100000D01*
X141413343Y-98532815D01*
X141658513Y-98899738D01*
X142025436Y-99144908D01*
X142458251Y-99231000D01*
X144541749Y-99231000D01*
X144974564Y-99144908D01*
X145294000Y-98931468D01*
X145294000Y-105468532D01*
X144974564Y-105255092D01*
X144541749Y-105169000D01*
X142458251Y-105169000D01*
X142025436Y-105255092D01*
X141658513Y-105500262D01*
X141413343Y-105867185D01*
X141327251Y-106300000D01*
X141413343Y-106732815D01*
X141658513Y-107099738D01*
X142025436Y-107344908D01*
X142458251Y-107431000D01*
X144541749Y-107431000D01*
X144974564Y-107344908D01*
X145294000Y-107131468D01*
X145294000Y-110268532D01*
X144974564Y-110055092D01*
X144541749Y-109969000D01*
X142458251Y-109969000D01*
X142025436Y-110055092D01*
X141658513Y-110300262D01*
X141413343Y-110667185D01*
X141327251Y-111100000D01*
X141413343Y-111532815D01*
X141658513Y-111899738D01*
X142025436Y-112144908D01*
X142458251Y-112231000D01*
X144541749Y-112231000D01*
X144974564Y-112144908D01*
X145294000Y-111931468D01*
X145294000Y-118468532D01*
X144974564Y-118255092D01*
X144541749Y-118169000D01*
X142458251Y-118169000D01*
X142025436Y-118255092D01*
X141658513Y-118500262D01*
X141413343Y-118867185D01*
X141327251Y-119300000D01*
X141413343Y-119732815D01*
X141658513Y-120099738D01*
X142025436Y-120344908D01*
X142458251Y-120431000D01*
X144541749Y-120431000D01*
X144974564Y-120344908D01*
X145294000Y-120131468D01*
X145294000Y-123268532D01*
X144974564Y-123055092D01*
X144541749Y-122969000D01*
X142458251Y-122969000D01*
X142025436Y-123055092D01*
X141658513Y-123300262D01*
X141413343Y-123667185D01*
X141327251Y-124100000D01*
X141413343Y-124532815D01*
X141658513Y-124899738D01*
X142025436Y-125144908D01*
X142458251Y-125231000D01*
X144541749Y-125231000D01*
X144974564Y-125144908D01*
X145294000Y-124931468D01*
X145294000Y-131468532D01*
X144974564Y-131255092D01*
X144541749Y-131169000D01*
X142458251Y-131169000D01*
X142025436Y-131255092D01*
X141658513Y-131500262D01*
X141413343Y-131867185D01*
X141327251Y-132300000D01*
X141413343Y-132732815D01*
X141658513Y-133099738D01*
X142025436Y-133344908D01*
X142458251Y-133431000D01*
X144541749Y-133431000D01*
X144974564Y-133344908D01*
X145294000Y-133131468D01*
X145294000Y-136268532D01*
X144974564Y-136055092D01*
X144541749Y-135969000D01*
X142458251Y-135969000D01*
X142025436Y-136055092D01*
X141658513Y-136300262D01*
X141413343Y-136667185D01*
X141327251Y-137100000D01*
X141413343Y-137532815D01*
X141658513Y-137899738D01*
X142025436Y-138144908D01*
X142458251Y-138231000D01*
X144541749Y-138231000D01*
X144974564Y-138144908D01*
X145294000Y-137931468D01*
X145294000Y-144468532D01*
X144974564Y-144255092D01*
X144541749Y-144169000D01*
X142458251Y-144169000D01*
X142025436Y-144255092D01*
X141658513Y-144500262D01*
X141413343Y-144867185D01*
X141327251Y-145300000D01*
X141413343Y-145732815D01*
X141658513Y-146099738D01*
X142025436Y-146344908D01*
X142458251Y-146431000D01*
X144541749Y-146431000D01*
X144974564Y-146344908D01*
X145294000Y-146131468D01*
X145294000Y-149268532D01*
X144974564Y-149055092D01*
X144541749Y-148969000D01*
X142458251Y-148969000D01*
X142025436Y-149055092D01*
X141658513Y-149300262D01*
X141413343Y-149667185D01*
X141327251Y-150100000D01*
X141413343Y-150532815D01*
X141658513Y-150899738D01*
X142025436Y-151144908D01*
X142458251Y-151231000D01*
X144541749Y-151231000D01*
X144974564Y-151144908D01*
X145294000Y-150931468D01*
X145294000Y-156373000D01*
X140316357Y-156373000D01*
X140431000Y-155796647D01*
X140431000Y-154203353D01*
X140306848Y-153579196D01*
X139953291Y-153050062D01*
X139424157Y-152696505D01*
X138800000Y-152572353D01*
X138175843Y-152696505D01*
X137646709Y-153050062D01*
X137293152Y-153579196D01*
X137169000Y-154203353D01*
X137169000Y-155796647D01*
X137283643Y-156373000D01*
X131730271Y-156373000D01*
X131645856Y-156168701D01*
X131657859Y-156151134D01*
X131688464Y-156000000D01*
X131688464Y-154402697D01*
X131757859Y-154301134D01*
X131788464Y-154150000D01*
X131788464Y-152350000D01*
X131761897Y-152208810D01*
X131678454Y-152079135D01*
X131551134Y-151992141D01*
X131400000Y-151961536D01*
X129600000Y-151961536D01*
X129458810Y-151988103D01*
X129329135Y-152071546D01*
X129242141Y-152198866D01*
X129211536Y-152350000D01*
X129211536Y-154150000D01*
X129238103Y-154291190D01*
X129311536Y-154405309D01*
X129311536Y-156000000D01*
X129338103Y-156141190D01*
X129354909Y-156167308D01*
X129269498Y-156373000D01*
X123005104Y-156373000D01*
X123176514Y-156258467D01*
X123475878Y-155810439D01*
X123581000Y-155281953D01*
X123581000Y-154718047D01*
X123475878Y-154189561D01*
X123176514Y-153741533D01*
X122728486Y-153442169D01*
X122200000Y-153337047D01*
X121671514Y-153442169D01*
X121223486Y-153741533D01*
X120924122Y-154189561D01*
X120819000Y-154718047D01*
X120819000Y-155281953D01*
X120924122Y-155810439D01*
X121223486Y-156258467D01*
X121394896Y-156373000D01*
X114316357Y-156373000D01*
X114431000Y-155796647D01*
X114431000Y-154203353D01*
X114306848Y-153579196D01*
X114127000Y-153310035D01*
X114127000Y-150100000D01*
X115327251Y-150100000D01*
X115413343Y-150532815D01*
X115658513Y-150899738D01*
X116025436Y-151144908D01*
X116458251Y-151231000D01*
X118541749Y-151231000D01*
X118974564Y-151144908D01*
X119341487Y-150899738D01*
X119586657Y-150532815D01*
X119672749Y-150100000D01*
X119586657Y-149667185D01*
X119341487Y-149300262D01*
X118974564Y-149055092D01*
X118541749Y-148969000D01*
X116458251Y-148969000D01*
X116025436Y-149055092D01*
X115658513Y-149300262D01*
X115413343Y-149667185D01*
X115327251Y-150100000D01*
X114127000Y-150100000D01*
X114127000Y-148302416D01*
X121967648Y-148302416D01*
X122276350Y-149049532D01*
X122847462Y-149621641D01*
X123594037Y-149931646D01*
X124402416Y-149932352D01*
X125149532Y-149623650D01*
X125721641Y-149052538D01*
X126031646Y-148305963D01*
X126032352Y-147497584D01*
X125723650Y-146750468D01*
X125152538Y-146178359D01*
X124405963Y-145868354D01*
X123597584Y-145867648D01*
X122850468Y-146176350D01*
X122278359Y-146747462D01*
X121968354Y-147494037D01*
X121967648Y-148302416D01*
X114127000Y-148302416D01*
X114127000Y-145300000D01*
X115327251Y-145300000D01*
X115413343Y-145732815D01*
X115658513Y-146099738D01*
X116025436Y-146344908D01*
X116458251Y-146431000D01*
X118541749Y-146431000D01*
X118974564Y-146344908D01*
X119341487Y-146099738D01*
X119586657Y-145732815D01*
X119672749Y-145300000D01*
X128327251Y-145300000D01*
X128413343Y-145732815D01*
X128658513Y-146099738D01*
X129025436Y-146344908D01*
X129458251Y-146431000D01*
X131541749Y-146431000D01*
X131974564Y-146344908D01*
X132341487Y-146099738D01*
X132586657Y-145732815D01*
X132672749Y-145300000D01*
X132586657Y-144867185D01*
X132341487Y-144500262D01*
X131974564Y-144255092D01*
X131541749Y-144169000D01*
X129458251Y-144169000D01*
X129025436Y-144255092D01*
X128658513Y-144500262D01*
X128413343Y-144867185D01*
X128327251Y-145300000D01*
X119672749Y-145300000D01*
X119586657Y-144867185D01*
X119341487Y-144500262D01*
X118974564Y-144255092D01*
X118541749Y-144169000D01*
X116458251Y-144169000D01*
X116025436Y-144255092D01*
X115658513Y-144500262D01*
X115413343Y-144867185D01*
X115327251Y-145300000D01*
X114127000Y-145300000D01*
X114127000Y-143689965D01*
X114306848Y-143420804D01*
X114431000Y-142796647D01*
X114431000Y-141718047D01*
X120819000Y-141718047D01*
X120819000Y-142281953D01*
X120924122Y-142810439D01*
X121223486Y-143258467D01*
X121671514Y-143557831D01*
X122200000Y-143662953D01*
X122728486Y-143557831D01*
X123176514Y-143258467D01*
X123475878Y-142810439D01*
X123581000Y-142281953D01*
X123581000Y-141718047D01*
X123478622Y-141203353D01*
X124169000Y-141203353D01*
X124169000Y-142796647D01*
X124293152Y-143420804D01*
X124646709Y-143949938D01*
X125175843Y-144303495D01*
X125800000Y-144427647D01*
X126424157Y-144303495D01*
X126953291Y-143949938D01*
X127306848Y-143420804D01*
X127431000Y-142796647D01*
X127431000Y-141718047D01*
X133819000Y-141718047D01*
X133819000Y-142281953D01*
X133924122Y-142810439D01*
X134223486Y-143258467D01*
X134671514Y-143557831D01*
X135200000Y-143662953D01*
X135728486Y-143557831D01*
X136176514Y-143258467D01*
X136475878Y-142810439D01*
X136581000Y-142281953D01*
X136581000Y-141718047D01*
X136478622Y-141203353D01*
X137169000Y-141203353D01*
X137169000Y-142796647D01*
X137293152Y-143420804D01*
X137646709Y-143949938D01*
X138175843Y-144303495D01*
X138800000Y-144427647D01*
X139424157Y-144303495D01*
X139953291Y-143949938D01*
X140306848Y-143420804D01*
X140431000Y-142796647D01*
X140431000Y-141203353D01*
X140306848Y-140579196D01*
X139953291Y-140050062D01*
X139424157Y-139696505D01*
X138800000Y-139572353D01*
X138175843Y-139696505D01*
X137646709Y-140050062D01*
X137293152Y-140579196D01*
X137169000Y-141203353D01*
X136478622Y-141203353D01*
X136475878Y-141189561D01*
X136176514Y-140741533D01*
X135728486Y-140442169D01*
X135200000Y-140337047D01*
X134671514Y-140442169D01*
X134223486Y-140741533D01*
X133924122Y-141189561D01*
X133819000Y-141718047D01*
X127431000Y-141718047D01*
X127431000Y-141203353D01*
X127306848Y-140579196D01*
X126953291Y-140050062D01*
X126424157Y-139696505D01*
X125800000Y-139572353D01*
X125175843Y-139696505D01*
X124646709Y-140050062D01*
X124293152Y-140579196D01*
X124169000Y-141203353D01*
X123478622Y-141203353D01*
X123475878Y-141189561D01*
X123176514Y-140741533D01*
X122728486Y-140442169D01*
X122200000Y-140337047D01*
X121671514Y-140442169D01*
X121223486Y-140741533D01*
X120924122Y-141189561D01*
X120819000Y-141718047D01*
X114431000Y-141718047D01*
X114431000Y-141203353D01*
X114306848Y-140579196D01*
X114127000Y-140310035D01*
X114127000Y-137100000D01*
X115327251Y-137100000D01*
X115413343Y-137532815D01*
X115658513Y-137899738D01*
X116025436Y-138144908D01*
X116458251Y-138231000D01*
X118541749Y-138231000D01*
X118974564Y-138144908D01*
X119341487Y-137899738D01*
X119586657Y-137532815D01*
X119672749Y-137100000D01*
X128327251Y-137100000D01*
X128413343Y-137532815D01*
X128658513Y-137899738D01*
X129025436Y-138144908D01*
X129458251Y-138231000D01*
X131541749Y-138231000D01*
X131974564Y-138144908D01*
X132341487Y-137899738D01*
X132586657Y-137532815D01*
X132672749Y-137100000D01*
X132586657Y-136667185D01*
X132341487Y-136300262D01*
X131974564Y-136055092D01*
X131541749Y-135969000D01*
X129458251Y-135969000D01*
X129025436Y-136055092D01*
X128658513Y-136300262D01*
X128413343Y-136667185D01*
X128327251Y-137100000D01*
X119672749Y-137100000D01*
X119586657Y-136667185D01*
X119341487Y-136300262D01*
X118974564Y-136055092D01*
X118541749Y-135969000D01*
X116458251Y-135969000D01*
X116025436Y-136055092D01*
X115658513Y-136300262D01*
X115413343Y-136667185D01*
X115327251Y-137100000D01*
X114127000Y-137100000D01*
X114127000Y-135164571D01*
X121268856Y-135164571D01*
X121395102Y-135470109D01*
X121628662Y-135704077D01*
X121933979Y-135830855D01*
X122264571Y-135831144D01*
X122570109Y-135704898D01*
X122804077Y-135471338D01*
X122930855Y-135166021D01*
X122931144Y-134835429D01*
X122804898Y-134529891D01*
X122571338Y-134295923D01*
X122266021Y-134169145D01*
X121935429Y-134168856D01*
X121629891Y-134295102D01*
X121395923Y-134528662D01*
X121269145Y-134833979D01*
X121268856Y-135164571D01*
X114127000Y-135164571D01*
X114127000Y-134164571D01*
X133268856Y-134164571D01*
X133395102Y-134470109D01*
X133628662Y-134704077D01*
X133933979Y-134830855D01*
X134264571Y-134831144D01*
X134570109Y-134704898D01*
X134804077Y-134471338D01*
X134930855Y-134166021D01*
X134931144Y-133835429D01*
X134804898Y-133529891D01*
X134571338Y-133295923D01*
X134266021Y-133169145D01*
X133935429Y-133168856D01*
X133629891Y-133295102D01*
X133395923Y-133528662D01*
X133269145Y-133833979D01*
X133268856Y-134164571D01*
X114127000Y-134164571D01*
X114127000Y-132300000D01*
X115327251Y-132300000D01*
X115413343Y-132732815D01*
X115658513Y-133099738D01*
X116025436Y-133344908D01*
X116458251Y-133431000D01*
X118541749Y-133431000D01*
X118974564Y-133344908D01*
X119341487Y-133099738D01*
X119586657Y-132732815D01*
X119672749Y-132300000D01*
X128327251Y-132300000D01*
X128413343Y-132732815D01*
X128658513Y-133099738D01*
X129025436Y-133344908D01*
X129458251Y-133431000D01*
X131541749Y-133431000D01*
X131974564Y-133344908D01*
X132341487Y-133099738D01*
X132586657Y-132732815D01*
X132672749Y-132300000D01*
X132586657Y-131867185D01*
X132341487Y-131500262D01*
X131974564Y-131255092D01*
X131541749Y-131169000D01*
X129458251Y-131169000D01*
X129025436Y-131255092D01*
X128658513Y-131500262D01*
X128413343Y-131867185D01*
X128327251Y-132300000D01*
X119672749Y-132300000D01*
X119586657Y-131867185D01*
X119341487Y-131500262D01*
X118974564Y-131255092D01*
X118541749Y-131169000D01*
X116458251Y-131169000D01*
X116025436Y-131255092D01*
X115658513Y-131500262D01*
X115413343Y-131867185D01*
X115327251Y-132300000D01*
X114127000Y-132300000D01*
X114127000Y-130689965D01*
X114306848Y-130420804D01*
X114431000Y-129796647D01*
X114431000Y-128718047D01*
X120819000Y-128718047D01*
X120819000Y-129281953D01*
X120924122Y-129810439D01*
X121223486Y-130258467D01*
X121671514Y-130557831D01*
X122200000Y-130662953D01*
X122728486Y-130557831D01*
X123176514Y-130258467D01*
X123475878Y-129810439D01*
X123581000Y-129281953D01*
X123581000Y-128718047D01*
X123478622Y-128203353D01*
X124169000Y-128203353D01*
X124169000Y-129796647D01*
X124293152Y-130420804D01*
X124646709Y-130949938D01*
X125175843Y-131303495D01*
X125800000Y-131427647D01*
X126424157Y-131303495D01*
X126953291Y-130949938D01*
X127306848Y-130420804D01*
X127431000Y-129796647D01*
X127431000Y-128718047D01*
X133819000Y-128718047D01*
X133819000Y-129281953D01*
X133924122Y-129810439D01*
X134223486Y-130258467D01*
X134671514Y-130557831D01*
X135200000Y-130662953D01*
X135728486Y-130557831D01*
X136176514Y-130258467D01*
X136475878Y-129810439D01*
X136581000Y-129281953D01*
X136581000Y-128718047D01*
X136478622Y-128203353D01*
X137169000Y-128203353D01*
X137169000Y-129796647D01*
X137293152Y-130420804D01*
X137646709Y-130949938D01*
X138175843Y-131303495D01*
X138800000Y-131427647D01*
X139424157Y-131303495D01*
X139953291Y-130949938D01*
X140306848Y-130420804D01*
X140431000Y-129796647D01*
X140431000Y-128203353D01*
X140306848Y-127579196D01*
X139953291Y-127050062D01*
X139424157Y-126696505D01*
X138800000Y-126572353D01*
X138175843Y-126696505D01*
X137646709Y-127050062D01*
X137293152Y-127579196D01*
X137169000Y-128203353D01*
X136478622Y-128203353D01*
X136475878Y-128189561D01*
X136176514Y-127741533D01*
X135728486Y-127442169D01*
X135200000Y-127337047D01*
X134671514Y-127442169D01*
X134223486Y-127741533D01*
X133924122Y-128189561D01*
X133819000Y-128718047D01*
X127431000Y-128718047D01*
X127431000Y-128203353D01*
X127306848Y-127579196D01*
X126953291Y-127050062D01*
X126424157Y-126696505D01*
X125800000Y-126572353D01*
X125175843Y-126696505D01*
X124646709Y-127050062D01*
X124293152Y-127579196D01*
X124169000Y-128203353D01*
X123478622Y-128203353D01*
X123475878Y-128189561D01*
X123176514Y-127741533D01*
X122728486Y-127442169D01*
X122200000Y-127337047D01*
X121671514Y-127442169D01*
X121223486Y-127741533D01*
X120924122Y-128189561D01*
X120819000Y-128718047D01*
X114431000Y-128718047D01*
X114431000Y-128203353D01*
X114306848Y-127579196D01*
X114127000Y-127310035D01*
X114127000Y-124100000D01*
X115327251Y-124100000D01*
X115413343Y-124532815D01*
X115658513Y-124899738D01*
X116025436Y-125144908D01*
X116458251Y-125231000D01*
X118541749Y-125231000D01*
X118974564Y-125144908D01*
X119341487Y-124899738D01*
X119586657Y-124532815D01*
X119672749Y-124100000D01*
X128327251Y-124100000D01*
X128413343Y-124532815D01*
X128658513Y-124899738D01*
X129025436Y-125144908D01*
X129458251Y-125231000D01*
X131541749Y-125231000D01*
X131974564Y-125144908D01*
X132341487Y-124899738D01*
X132586657Y-124532815D01*
X132672749Y-124100000D01*
X132586657Y-123667185D01*
X132341487Y-123300262D01*
X131974564Y-123055092D01*
X131541749Y-122969000D01*
X129458251Y-122969000D01*
X129025436Y-123055092D01*
X128658513Y-123300262D01*
X128413343Y-123667185D01*
X128327251Y-124100000D01*
X119672749Y-124100000D01*
X119586657Y-123667185D01*
X119341487Y-123300262D01*
X118974564Y-123055092D01*
X118541749Y-122969000D01*
X116458251Y-122969000D01*
X116025436Y-123055092D01*
X115658513Y-123300262D01*
X115413343Y-123667185D01*
X115327251Y-124100000D01*
X114127000Y-124100000D01*
X114127000Y-121264579D01*
X120268856Y-121264579D01*
X120395102Y-121570117D01*
X120628662Y-121804085D01*
X120933979Y-121930863D01*
X121264571Y-121931152D01*
X121570109Y-121804906D01*
X121804077Y-121571346D01*
X121930855Y-121266029D01*
X121930943Y-121164571D01*
X133268858Y-121164571D01*
X133395104Y-121470109D01*
X133628664Y-121704077D01*
X133933981Y-121830855D01*
X134264573Y-121831144D01*
X134570111Y-121704898D01*
X134804079Y-121471338D01*
X134930857Y-121166021D01*
X134931146Y-120835429D01*
X134804900Y-120529891D01*
X134571340Y-120295923D01*
X134266023Y-120169145D01*
X133935431Y-120168856D01*
X133629893Y-120295102D01*
X133395925Y-120528662D01*
X133269147Y-120833979D01*
X133268858Y-121164571D01*
X121930943Y-121164571D01*
X121931144Y-120935437D01*
X121804898Y-120629899D01*
X121571338Y-120395931D01*
X121266021Y-120269153D01*
X120935429Y-120268864D01*
X120629891Y-120395110D01*
X120395923Y-120628670D01*
X120269145Y-120933987D01*
X120268856Y-121264579D01*
X114127000Y-121264579D01*
X114127000Y-119300000D01*
X115327251Y-119300000D01*
X115413343Y-119732815D01*
X115658513Y-120099738D01*
X116025436Y-120344908D01*
X116458251Y-120431000D01*
X118541749Y-120431000D01*
X118974564Y-120344908D01*
X119341487Y-120099738D01*
X119586657Y-119732815D01*
X119672749Y-119300000D01*
X128327251Y-119300000D01*
X128413343Y-119732815D01*
X128658513Y-120099738D01*
X129025436Y-120344908D01*
X129458251Y-120431000D01*
X131541749Y-120431000D01*
X131974564Y-120344908D01*
X132341487Y-120099738D01*
X132586657Y-119732815D01*
X132672749Y-119300000D01*
X132586657Y-118867185D01*
X132341487Y-118500262D01*
X131974564Y-118255092D01*
X131541749Y-118169000D01*
X129458251Y-118169000D01*
X129025436Y-118255092D01*
X128658513Y-118500262D01*
X128413343Y-118867185D01*
X128327251Y-119300000D01*
X119672749Y-119300000D01*
X119586657Y-118867185D01*
X119341487Y-118500262D01*
X118974564Y-118255092D01*
X118541749Y-118169000D01*
X116458251Y-118169000D01*
X116025436Y-118255092D01*
X115658513Y-118500262D01*
X115413343Y-118867185D01*
X115327251Y-119300000D01*
X114127000Y-119300000D01*
X114127000Y-117689965D01*
X114306848Y-117420804D01*
X114431000Y-116796647D01*
X114431000Y-115718047D01*
X120819000Y-115718047D01*
X120819000Y-116281953D01*
X120924122Y-116810439D01*
X121223486Y-117258467D01*
X121671514Y-117557831D01*
X122200000Y-117662953D01*
X122728486Y-117557831D01*
X123176514Y-117258467D01*
X123475878Y-116810439D01*
X123581000Y-116281953D01*
X123581000Y-115718047D01*
X123478622Y-115203353D01*
X124169000Y-115203353D01*
X124169000Y-116796647D01*
X124293152Y-117420804D01*
X124646709Y-117949938D01*
X125175843Y-118303495D01*
X125800000Y-118427647D01*
X126424157Y-118303495D01*
X126953291Y-117949938D01*
X127306848Y-117420804D01*
X127431000Y-116796647D01*
X127431000Y-115718047D01*
X133819000Y-115718047D01*
X133819000Y-116281953D01*
X133924122Y-116810439D01*
X134223486Y-117258467D01*
X134671514Y-117557831D01*
X135200000Y-117662953D01*
X135728486Y-117557831D01*
X136176514Y-117258467D01*
X136475878Y-116810439D01*
X136581000Y-116281953D01*
X136581000Y-115718047D01*
X136478622Y-115203353D01*
X137169000Y-115203353D01*
X137169000Y-116796647D01*
X137293152Y-117420804D01*
X137646709Y-117949938D01*
X138175843Y-118303495D01*
X138800000Y-118427647D01*
X139424157Y-118303495D01*
X139953291Y-117949938D01*
X140306848Y-117420804D01*
X140431000Y-116796647D01*
X140431000Y-115203353D01*
X140306848Y-114579196D01*
X139953291Y-114050062D01*
X139424157Y-113696505D01*
X138800000Y-113572353D01*
X138175843Y-113696505D01*
X137646709Y-114050062D01*
X137293152Y-114579196D01*
X137169000Y-115203353D01*
X136478622Y-115203353D01*
X136475878Y-115189561D01*
X136176514Y-114741533D01*
X135728486Y-114442169D01*
X135200000Y-114337047D01*
X134671514Y-114442169D01*
X134223486Y-114741533D01*
X133924122Y-115189561D01*
X133819000Y-115718047D01*
X127431000Y-115718047D01*
X127431000Y-115203353D01*
X127306848Y-114579196D01*
X126953291Y-114050062D01*
X126424157Y-113696505D01*
X125800000Y-113572353D01*
X125175843Y-113696505D01*
X124646709Y-114050062D01*
X124293152Y-114579196D01*
X124169000Y-115203353D01*
X123478622Y-115203353D01*
X123475878Y-115189561D01*
X123176514Y-114741533D01*
X122728486Y-114442169D01*
X122200000Y-114337047D01*
X121671514Y-114442169D01*
X121223486Y-114741533D01*
X120924122Y-115189561D01*
X120819000Y-115718047D01*
X114431000Y-115718047D01*
X114431000Y-115203353D01*
X114306848Y-114579196D01*
X114127000Y-114310035D01*
X114127000Y-111100000D01*
X115327251Y-111100000D01*
X115413343Y-111532815D01*
X115658513Y-111899738D01*
X116025436Y-112144908D01*
X116458251Y-112231000D01*
X118541749Y-112231000D01*
X118974564Y-112144908D01*
X119341487Y-111899738D01*
X119586657Y-111532815D01*
X119672749Y-111100000D01*
X128327251Y-111100000D01*
X128413343Y-111532815D01*
X128658513Y-111899738D01*
X129025436Y-112144908D01*
X129458251Y-112231000D01*
X131541749Y-112231000D01*
X131974564Y-112144908D01*
X132341487Y-111899738D01*
X132586657Y-111532815D01*
X132672749Y-111100000D01*
X132586657Y-110667185D01*
X132341487Y-110300262D01*
X131974564Y-110055092D01*
X131541749Y-109969000D01*
X129458251Y-109969000D01*
X129025436Y-110055092D01*
X128658513Y-110300262D01*
X128413343Y-110667185D01*
X128327251Y-111100000D01*
X119672749Y-111100000D01*
X119586657Y-110667185D01*
X119341487Y-110300262D01*
X118974564Y-110055092D01*
X118541749Y-109969000D01*
X116458251Y-109969000D01*
X116025436Y-110055092D01*
X115658513Y-110300262D01*
X115413343Y-110667185D01*
X115327251Y-111100000D01*
X114127000Y-111100000D01*
X114127000Y-109264571D01*
X131068856Y-109264571D01*
X131195102Y-109570109D01*
X131428662Y-109804077D01*
X131733979Y-109930855D01*
X132064571Y-109931144D01*
X132370109Y-109804898D01*
X132604077Y-109571338D01*
X132730855Y-109266021D01*
X132731144Y-108935429D01*
X132604898Y-108629891D01*
X132371338Y-108395923D01*
X132066021Y-108269145D01*
X131735429Y-108268856D01*
X131429891Y-108395102D01*
X131195923Y-108628662D01*
X131069145Y-108933979D01*
X131068856Y-109264571D01*
X114127000Y-109264571D01*
X114127000Y-106300000D01*
X115327251Y-106300000D01*
X115413343Y-106732815D01*
X115658513Y-107099738D01*
X116025436Y-107344908D01*
X116458251Y-107431000D01*
X118541749Y-107431000D01*
X118974564Y-107344908D01*
X119341487Y-107099738D01*
X119586657Y-106732815D01*
X119672749Y-106300000D01*
X128327251Y-106300000D01*
X128413343Y-106732815D01*
X128658513Y-107099738D01*
X129025436Y-107344908D01*
X129458251Y-107431000D01*
X131541749Y-107431000D01*
X131974564Y-107344908D01*
X132341487Y-107099738D01*
X132586657Y-106732815D01*
X132672749Y-106300000D01*
X132586657Y-105867185D01*
X132341487Y-105500262D01*
X131974564Y-105255092D01*
X131541749Y-105169000D01*
X129458251Y-105169000D01*
X129025436Y-105255092D01*
X128658513Y-105500262D01*
X128413343Y-105867185D01*
X128327251Y-106300000D01*
X119672749Y-106300000D01*
X119586657Y-105867185D01*
X119341487Y-105500262D01*
X118974564Y-105255092D01*
X118541749Y-105169000D01*
X116458251Y-105169000D01*
X116025436Y-105255092D01*
X115658513Y-105500262D01*
X115413343Y-105867185D01*
X115327251Y-106300000D01*
X114127000Y-106300000D01*
X114127000Y-104689965D01*
X114306848Y-104420804D01*
X114431000Y-103796647D01*
X114431000Y-102718047D01*
X120819000Y-102718047D01*
X120819000Y-103281953D01*
X120924122Y-103810439D01*
X121223486Y-104258467D01*
X121671514Y-104557831D01*
X122200000Y-104662953D01*
X122728486Y-104557831D01*
X123176514Y-104258467D01*
X123475878Y-103810439D01*
X123581000Y-103281953D01*
X123581000Y-102718047D01*
X123478622Y-102203353D01*
X124169000Y-102203353D01*
X124169000Y-103796647D01*
X124293152Y-104420804D01*
X124646709Y-104949938D01*
X125175843Y-105303495D01*
X125800000Y-105427647D01*
X126424157Y-105303495D01*
X126953291Y-104949938D01*
X127306848Y-104420804D01*
X127431000Y-103796647D01*
X127431000Y-102718047D01*
X133819000Y-102718047D01*
X133819000Y-103281953D01*
X133924122Y-103810439D01*
X134223486Y-104258467D01*
X134671514Y-104557831D01*
X135200000Y-104662953D01*
X135728486Y-104557831D01*
X136176514Y-104258467D01*
X136475878Y-103810439D01*
X136581000Y-103281953D01*
X136581000Y-102718047D01*
X136478622Y-102203353D01*
X137169000Y-102203353D01*
X137169000Y-103796647D01*
X137293152Y-104420804D01*
X137646709Y-104949938D01*
X138175843Y-105303495D01*
X138800000Y-105427647D01*
X139424157Y-105303495D01*
X139953291Y-104949938D01*
X140306848Y-104420804D01*
X140431000Y-103796647D01*
X140431000Y-102203353D01*
X140306848Y-101579196D01*
X139953291Y-101050062D01*
X139424157Y-100696505D01*
X138800000Y-100572353D01*
X138175843Y-100696505D01*
X137646709Y-101050062D01*
X137293152Y-101579196D01*
X137169000Y-102203353D01*
X136478622Y-102203353D01*
X136475878Y-102189561D01*
X136176514Y-101741533D01*
X135728486Y-101442169D01*
X135200000Y-101337047D01*
X134671514Y-101442169D01*
X134223486Y-101741533D01*
X133924122Y-102189561D01*
X133819000Y-102718047D01*
X127431000Y-102718047D01*
X127431000Y-102203353D01*
X127306848Y-101579196D01*
X126953291Y-101050062D01*
X126424157Y-100696505D01*
X125800000Y-100572353D01*
X125175843Y-100696505D01*
X124646709Y-101050062D01*
X124293152Y-101579196D01*
X124169000Y-102203353D01*
X123478622Y-102203353D01*
X123475878Y-102189561D01*
X123176514Y-101741533D01*
X122728486Y-101442169D01*
X122200000Y-101337047D01*
X121671514Y-101442169D01*
X121223486Y-101741533D01*
X120924122Y-102189561D01*
X120819000Y-102718047D01*
X114431000Y-102718047D01*
X114431000Y-102203353D01*
X114306848Y-101579196D01*
X114127000Y-101310035D01*
X114127000Y-98100000D01*
X115327251Y-98100000D01*
X115413343Y-98532815D01*
X115658513Y-98899738D01*
X116025436Y-99144908D01*
X116458251Y-99231000D01*
X118541749Y-99231000D01*
X118974564Y-99144908D01*
X119341487Y-98899738D01*
X119586657Y-98532815D01*
X119672749Y-98100000D01*
X128327251Y-98100000D01*
X128413343Y-98532815D01*
X128658513Y-98899738D01*
X129025436Y-99144908D01*
X129458251Y-99231000D01*
X131541749Y-99231000D01*
X131974564Y-99144908D01*
X132341487Y-98899738D01*
X132586657Y-98532815D01*
X132672749Y-98100000D01*
X132586657Y-97667185D01*
X132341487Y-97300262D01*
X131974564Y-97055092D01*
X131541749Y-96969000D01*
X129458251Y-96969000D01*
X129025436Y-97055092D01*
X128658513Y-97300262D01*
X128413343Y-97667185D01*
X128327251Y-98100000D01*
X119672749Y-98100000D01*
X119586657Y-97667185D01*
X119341487Y-97300262D01*
X118974564Y-97055092D01*
X118541749Y-96969000D01*
X116458251Y-96969000D01*
X116025436Y-97055092D01*
X115658513Y-97300262D01*
X115413343Y-97667185D01*
X115327251Y-98100000D01*
X114127000Y-98100000D01*
X114127000Y-96220406D01*
X115993867Y-96220406D01*
X116127709Y-96544328D01*
X116375322Y-96792373D01*
X116699009Y-96926780D01*
X117049493Y-96927086D01*
X117373415Y-96793244D01*
X117621460Y-96545631D01*
X117755867Y-96221944D01*
X117756173Y-95871460D01*
X117622331Y-95547538D01*
X117374718Y-95299493D01*
X117051031Y-95165086D01*
X116700547Y-95164780D01*
X116376625Y-95298622D01*
X116128580Y-95546235D01*
X115994173Y-95869922D01*
X115993867Y-96220406D01*
X114127000Y-96220406D01*
X114127000Y-95781675D01*
X114902416Y-95782352D01*
X115649532Y-95473650D01*
X116221641Y-94902538D01*
X116320455Y-94664567D01*
X133168856Y-94664567D01*
X133295102Y-94970105D01*
X133528662Y-95204073D01*
X133833979Y-95330851D01*
X134164571Y-95331140D01*
X134470109Y-95204894D01*
X134704077Y-94971334D01*
X134830855Y-94666017D01*
X134831144Y-94335425D01*
X134704898Y-94029887D01*
X134471338Y-93795919D01*
X134166021Y-93669141D01*
X133835429Y-93668852D01*
X133529891Y-93795098D01*
X133295923Y-94028658D01*
X133169145Y-94333975D01*
X133168856Y-94664567D01*
X116320455Y-94664567D01*
X116531646Y-94155963D01*
X116532352Y-93347584D01*
X116223650Y-92600468D01*
X115652538Y-92028359D01*
X114905963Y-91718354D01*
X114127000Y-91717674D01*
X114127000Y-91040000D01*
X127571945Y-91040000D01*
X127658037Y-91472815D01*
X127903207Y-91839738D01*
X128270130Y-92084908D01*
X128702945Y-92171000D01*
X129257055Y-92171000D01*
X129689870Y-92084908D01*
X130056793Y-91839738D01*
X130301963Y-91472815D01*
X130388055Y-91040000D01*
X130611945Y-91040000D01*
X130698037Y-91472815D01*
X130943207Y-91839738D01*
X131310130Y-92084908D01*
X131742945Y-92171000D01*
X132297055Y-92171000D01*
X132729870Y-92084908D01*
X133096793Y-91839738D01*
X133341963Y-91472815D01*
X133428055Y-91040000D01*
X133341963Y-90607185D01*
X133096793Y-90240262D01*
X132729870Y-89995092D01*
X132297055Y-89909000D01*
X131742945Y-89909000D01*
X131310130Y-89995092D01*
X130943207Y-90240262D01*
X130698037Y-90607185D01*
X130611945Y-91040000D01*
X130388055Y-91040000D01*
X130301963Y-90607185D01*
X130056793Y-90240262D01*
X129689870Y-89995092D01*
X129257055Y-89909000D01*
X128702945Y-89909000D01*
X128270130Y-89995092D01*
X127903207Y-90240262D01*
X127658037Y-90607185D01*
X127571945Y-91040000D01*
X114127000Y-91040000D01*
X114127000Y-88823003D01*
X118368718Y-88823003D01*
X118616499Y-89422680D01*
X119074907Y-89881888D01*
X119674151Y-90130716D01*
X120323003Y-90131282D01*
X120922680Y-89883501D01*
X121381888Y-89425093D01*
X121630716Y-88825849D01*
X121631282Y-88176997D01*
X121383501Y-87577320D01*
X121019819Y-87213003D01*
X122258718Y-87213003D01*
X122506499Y-87812680D01*
X122964907Y-88271888D01*
X123564151Y-88520716D01*
X124213003Y-88521282D01*
X124264509Y-88500000D01*
X127571945Y-88500000D01*
X127658037Y-88932815D01*
X127903207Y-89299738D01*
X128270130Y-89544908D01*
X128702945Y-89631000D01*
X129257055Y-89631000D01*
X129689870Y-89544908D01*
X130056793Y-89299738D01*
X130301963Y-88932815D01*
X130388055Y-88500000D01*
X130611945Y-88500000D01*
X130698037Y-88932815D01*
X130943207Y-89299738D01*
X131310130Y-89544908D01*
X131742945Y-89631000D01*
X132297055Y-89631000D01*
X132729870Y-89544908D01*
X133096793Y-89299738D01*
X133341963Y-88932815D01*
X133363805Y-88823003D01*
X139368718Y-88823003D01*
X139616499Y-89422680D01*
X140074907Y-89881888D01*
X140674151Y-90130716D01*
X141323003Y-90131282D01*
X141922680Y-89883501D01*
X142381888Y-89425093D01*
X142630716Y-88825849D01*
X142631282Y-88176997D01*
X142383501Y-87577320D01*
X142019819Y-87213003D01*
X143258718Y-87213003D01*
X143506499Y-87812680D01*
X143964907Y-88271888D01*
X144564151Y-88520716D01*
X145213003Y-88521282D01*
X145812680Y-88273501D01*
X146271888Y-87815093D01*
X146520716Y-87215849D01*
X146521282Y-86566997D01*
X146273501Y-85967320D01*
X145815093Y-85508112D01*
X145215849Y-85259284D01*
X144566997Y-85258718D01*
X143967320Y-85506499D01*
X143508112Y-85964907D01*
X143259284Y-86564151D01*
X143258718Y-87213003D01*
X142019819Y-87213003D01*
X141925093Y-87118112D01*
X141325849Y-86869284D01*
X140676997Y-86868718D01*
X140077320Y-87116499D01*
X139618112Y-87574907D01*
X139369284Y-88174151D01*
X139368718Y-88823003D01*
X133363805Y-88823003D01*
X133428055Y-88500000D01*
X133341963Y-88067185D01*
X133096793Y-87700262D01*
X132729870Y-87455092D01*
X132297055Y-87369000D01*
X131742945Y-87369000D01*
X131310130Y-87455092D01*
X130943207Y-87700262D01*
X130698037Y-88067185D01*
X130611945Y-88500000D01*
X130388055Y-88500000D01*
X130301963Y-88067185D01*
X130056793Y-87700262D01*
X129689870Y-87455092D01*
X129257055Y-87369000D01*
X128702945Y-87369000D01*
X128270130Y-87455092D01*
X127903207Y-87700262D01*
X127658037Y-88067185D01*
X127571945Y-88500000D01*
X124264509Y-88500000D01*
X124812680Y-88273501D01*
X125271888Y-87815093D01*
X125520716Y-87215849D01*
X125521282Y-86566997D01*
X125411451Y-86301185D01*
X127387682Y-86301185D01*
X127406519Y-86404235D01*
X127677264Y-86876894D01*
X128108279Y-87209964D01*
X128633945Y-87352739D01*
X128853000Y-87191868D01*
X128853000Y-86087000D01*
X129107000Y-86087000D01*
X129107000Y-87191868D01*
X129326055Y-87352739D01*
X129840532Y-87213003D01*
X135478718Y-87213003D01*
X135726499Y-87812680D01*
X136184907Y-88271888D01*
X136784151Y-88520716D01*
X137433003Y-88521282D01*
X138032680Y-88273501D01*
X138491888Y-87815093D01*
X138740716Y-87215849D01*
X138741282Y-86566997D01*
X138493501Y-85967320D01*
X138035093Y-85508112D01*
X137435849Y-85259284D01*
X136786997Y-85258718D01*
X136187320Y-85506499D01*
X135728112Y-85964907D01*
X135479284Y-86564151D01*
X135478718Y-87213003D01*
X129840532Y-87213003D01*
X129851721Y-87209964D01*
X130282736Y-86876894D01*
X130553481Y-86404235D01*
X130572318Y-86301185D01*
X130449656Y-86087000D01*
X129107000Y-86087000D01*
X128853000Y-86087000D01*
X127510344Y-86087000D01*
X127387682Y-86301185D01*
X125411451Y-86301185D01*
X125273501Y-85967320D01*
X124925604Y-85618815D01*
X127387682Y-85618815D01*
X127510344Y-85833000D01*
X128853000Y-85833000D01*
X128853000Y-84728132D01*
X129107000Y-84728132D01*
X129107000Y-85833000D01*
X130449656Y-85833000D01*
X130572318Y-85618815D01*
X130553481Y-85515765D01*
X130378335Y-85210000D01*
X130631536Y-85210000D01*
X130631536Y-86710000D01*
X130658103Y-86851190D01*
X130741546Y-86980865D01*
X130868866Y-87067859D01*
X131020000Y-87098464D01*
X133020000Y-87098464D01*
X133161190Y-87071897D01*
X133290865Y-86988454D01*
X133377859Y-86861134D01*
X133408464Y-86710000D01*
X133408464Y-85210000D01*
X133381897Y-85068810D01*
X133298454Y-84939135D01*
X133171134Y-84852141D01*
X133020000Y-84821536D01*
X131020000Y-84821536D01*
X130878810Y-84848103D01*
X130749135Y-84931546D01*
X130662141Y-85058866D01*
X130631536Y-85210000D01*
X130378335Y-85210000D01*
X130282736Y-85043106D01*
X129851721Y-84710036D01*
X129326055Y-84567261D01*
X129107000Y-84728132D01*
X128853000Y-84728132D01*
X128633945Y-84567261D01*
X128108279Y-84710036D01*
X127677264Y-85043106D01*
X127406519Y-85515765D01*
X127387682Y-85618815D01*
X124925604Y-85618815D01*
X124815093Y-85508112D01*
X124215849Y-85259284D01*
X123566997Y-85258718D01*
X122967320Y-85506499D01*
X122508112Y-85964907D01*
X122259284Y-86564151D01*
X122258718Y-87213003D01*
X121019819Y-87213003D01*
X120925093Y-87118112D01*
X120325849Y-86869284D01*
X119676997Y-86868718D01*
X119077320Y-87116499D01*
X118618112Y-87574907D01*
X118369284Y-88174151D01*
X118368718Y-88823003D01*
X114127000Y-88823003D01*
X114127000Y-87213003D01*
X114478718Y-87213003D01*
X114726499Y-87812680D01*
X115184907Y-88271888D01*
X115784151Y-88520716D01*
X116433003Y-88521282D01*
X117032680Y-88273501D01*
X117491888Y-87815093D01*
X117740716Y-87215849D01*
X117741282Y-86566997D01*
X117493501Y-85967320D01*
X117035093Y-85508112D01*
X116435849Y-85259284D01*
X115786997Y-85258718D01*
X115187320Y-85506499D01*
X114728112Y-85964907D01*
X114479284Y-86564151D01*
X114478718Y-87213003D01*
X114127000Y-87213003D01*
X114127000Y-84611137D01*
X114174151Y-84630716D01*
X114823003Y-84631282D01*
X115422680Y-84383501D01*
X115881888Y-83925093D01*
X116130716Y-83325849D01*
X116130718Y-83323003D01*
X123868718Y-83323003D01*
X124116499Y-83922680D01*
X124574907Y-84381888D01*
X125174151Y-84630716D01*
X125823003Y-84631282D01*
X126422680Y-84383501D01*
X126881888Y-83925093D01*
X127130716Y-83325849D01*
X127130718Y-83323003D01*
X133868718Y-83323003D01*
X134116499Y-83922680D01*
X134574907Y-84381888D01*
X135174151Y-84630716D01*
X135823003Y-84631282D01*
X136422680Y-84383501D01*
X136881888Y-83925093D01*
X137130716Y-83325849D01*
X137131282Y-82676997D01*
X136883501Y-82077320D01*
X136425093Y-81618112D01*
X135825849Y-81369284D01*
X135176997Y-81368718D01*
X134577320Y-81616499D01*
X134118112Y-82074907D01*
X133869284Y-82674151D01*
X133868718Y-83323003D01*
X127130718Y-83323003D01*
X127131282Y-82676997D01*
X126883501Y-82077320D01*
X126425093Y-81618112D01*
X125825849Y-81369284D01*
X125176997Y-81368718D01*
X124577320Y-81616499D01*
X124118112Y-82074907D01*
X123869284Y-82674151D01*
X123868718Y-83323003D01*
X116130718Y-83323003D01*
X116131282Y-82676997D01*
X115883501Y-82077320D01*
X115425093Y-81618112D01*
X115006000Y-81444089D01*
X115006000Y-81232234D01*
X114967483Y-81038596D01*
X114857796Y-80874438D01*
X114127000Y-80143642D01*
X114127000Y-78823003D01*
X118368718Y-78823003D01*
X118616499Y-79422680D01*
X119074907Y-79881888D01*
X119674151Y-80130716D01*
X120323003Y-80131282D01*
X120922680Y-79883501D01*
X121381888Y-79425093D01*
X121630716Y-78825849D01*
X121630718Y-78823003D01*
X139368718Y-78823003D01*
X139616499Y-79422680D01*
X140074907Y-79881888D01*
X140674151Y-80130716D01*
X141323003Y-80131282D01*
X141922680Y-79883501D01*
X142381888Y-79425093D01*
X142630716Y-78825849D01*
X142631282Y-78176997D01*
X142383501Y-77577320D01*
X141925093Y-77118112D01*
X141325849Y-76869284D01*
X140676997Y-76868718D01*
X140077320Y-77116499D01*
X139618112Y-77574907D01*
X139369284Y-78174151D01*
X139368718Y-78823003D01*
X121630718Y-78823003D01*
X121631282Y-78176997D01*
X121383501Y-77577320D01*
X120925093Y-77118112D01*
X120325849Y-76869284D01*
X119676997Y-76868718D01*
X119077320Y-77116499D01*
X118618112Y-77574907D01*
X118369284Y-78174151D01*
X118368718Y-78823003D01*
X114127000Y-78823003D01*
X114127000Y-77474473D01*
X115718847Y-77474473D01*
X115852689Y-77798395D01*
X116100302Y-78046440D01*
X116423989Y-78180847D01*
X116774473Y-78181153D01*
X117098395Y-78047311D01*
X117346440Y-77799698D01*
X117480847Y-77476011D01*
X117481153Y-77125527D01*
X117347311Y-76801605D01*
X117099698Y-76553560D01*
X116776011Y-76419153D01*
X116425527Y-76418847D01*
X116101605Y-76552689D01*
X115853560Y-76800302D01*
X115719153Y-77123989D01*
X115718847Y-77474473D01*
X114127000Y-77474473D01*
X114127000Y-76202416D01*
X129667648Y-76202416D01*
X129976350Y-76949532D01*
X130547462Y-77521641D01*
X131294037Y-77831646D01*
X132102416Y-77832352D01*
X132849532Y-77523650D01*
X132898794Y-77474473D01*
X137518847Y-77474473D01*
X137652689Y-77798395D01*
X137900302Y-78046440D01*
X138223989Y-78180847D01*
X138574473Y-78181153D01*
X138898395Y-78047311D01*
X139146440Y-77799698D01*
X139280847Y-77476011D01*
X139281153Y-77125527D01*
X139147311Y-76801605D01*
X138899698Y-76553560D01*
X138576011Y-76419153D01*
X138225527Y-76418847D01*
X137901605Y-76552689D01*
X137653560Y-76800302D01*
X137519153Y-77123989D01*
X137518847Y-77474473D01*
X132898794Y-77474473D01*
X133421641Y-76952538D01*
X133731646Y-76205963D01*
X133732352Y-75397584D01*
X133718712Y-75364571D01*
X138768856Y-75364571D01*
X138895102Y-75670109D01*
X139128662Y-75904077D01*
X139433979Y-76030855D01*
X139764571Y-76031144D01*
X140070109Y-75904898D01*
X140250109Y-75725212D01*
X140428662Y-75904077D01*
X140733979Y-76030855D01*
X141064571Y-76031144D01*
X141370109Y-75904898D01*
X141604077Y-75671338D01*
X141730855Y-75366021D01*
X141731144Y-75035429D01*
X141604898Y-74729891D01*
X141371338Y-74495923D01*
X141066021Y-74369145D01*
X140735429Y-74368856D01*
X140429891Y-74495102D01*
X140249891Y-74674788D01*
X140071338Y-74495923D01*
X139766021Y-74369145D01*
X139435429Y-74368856D01*
X139129891Y-74495102D01*
X138895923Y-74728662D01*
X138769145Y-75033979D01*
X138768856Y-75364571D01*
X133718712Y-75364571D01*
X133423650Y-74650468D01*
X132852538Y-74078359D01*
X132105963Y-73768354D01*
X131297584Y-73767648D01*
X130550468Y-74076350D01*
X129978359Y-74647462D01*
X129668354Y-75394037D01*
X129667648Y-76202416D01*
X114127000Y-76202416D01*
X114127000Y-72127000D01*
X115418976Y-72127000D01*
X115418847Y-72274473D01*
X115418847Y-72274473D01*
G37*
X115418847Y-72274473D02*
X115552689Y-72598395D01*
X115800302Y-72846440D01*
X116123989Y-72980847D01*
X116474473Y-72981153D01*
X116798395Y-72847311D01*
X117046440Y-72599698D01*
X117180847Y-72276011D01*
X117180977Y-72127000D01*
X126157408Y-72127000D01*
X124115307Y-74169101D01*
X123835429Y-74168856D01*
X123529891Y-74295102D01*
X123295923Y-74528662D01*
X123169145Y-74833979D01*
X123168856Y-75164571D01*
X123295102Y-75470109D01*
X123528662Y-75704077D01*
X123833979Y-75830855D01*
X124164571Y-75831144D01*
X124470109Y-75704898D01*
X124704077Y-75471338D01*
X124830855Y-75166021D01*
X124831101Y-74884491D01*
X127009592Y-72706000D01*
X136700000Y-72706000D01*
X136893638Y-72667483D01*
X137057796Y-72557796D01*
X137488592Y-72127000D01*
X141372043Y-72127000D01*
X141369145Y-72133979D01*
X141368856Y-72464571D01*
X141495102Y-72770109D01*
X141728662Y-73004077D01*
X142033979Y-73130855D01*
X142364571Y-73131144D01*
X142670109Y-73004898D01*
X142800022Y-72875212D01*
X142928662Y-73004077D01*
X143233979Y-73130855D01*
X143564571Y-73131144D01*
X143870109Y-73004898D01*
X144050110Y-72825211D01*
X144228662Y-73004075D01*
X144533979Y-73130853D01*
X144864571Y-73131142D01*
X145069001Y-73046673D01*
X145069001Y-74715407D01*
X144815307Y-74969101D01*
X144535429Y-74968856D01*
X144229891Y-75095102D01*
X143995923Y-75328662D01*
X143869145Y-75633979D01*
X143868856Y-75964571D01*
X143995102Y-76270109D01*
X144228662Y-76504077D01*
X144533979Y-76630855D01*
X144864571Y-76631144D01*
X145170109Y-76504898D01*
X145404077Y-76271338D01*
X145530855Y-75966021D01*
X145531101Y-75684491D01*
X145932797Y-75282795D01*
X146042484Y-75118637D01*
X146081001Y-74924999D01*
X146081001Y-72127000D01*
X147373000Y-72127000D01*
X147373000Y-81596481D01*
X146825849Y-81369284D01*
X146176997Y-81368718D01*
X145577320Y-81616499D01*
X145118112Y-82074907D01*
X144869284Y-82674151D01*
X144868718Y-83323003D01*
X145116499Y-83922680D01*
X145574907Y-84381888D01*
X146174151Y-84630716D01*
X146823003Y-84631282D01*
X147373000Y-84404028D01*
X147373000Y-87311408D01*
X145442204Y-89242204D01*
X145332517Y-89406362D01*
X145294000Y-89600000D01*
X145294000Y-93404765D01*
X145023650Y-92750468D01*
X144452538Y-92178359D01*
X143705963Y-91868354D01*
X142897584Y-91867648D01*
X142150468Y-92176350D01*
X141578359Y-92747462D01*
X141268354Y-93494037D01*
X141267648Y-94302416D01*
X141576350Y-95049532D01*
X142147462Y-95621641D01*
X142894037Y-95931646D01*
X143702416Y-95932352D01*
X144449532Y-95623650D01*
X145021641Y-95052538D01*
X145294000Y-94396625D01*
X145294000Y-97268532D01*
X144974564Y-97055092D01*
X144541749Y-96969000D01*
X142458251Y-96969000D01*
X142025436Y-97055092D01*
X141658513Y-97300262D01*
X141413343Y-97667185D01*
X141327251Y-98100000D01*
X141413343Y-98532815D01*
X141658513Y-98899738D01*
X142025436Y-99144908D01*
X142458251Y-99231000D01*
X144541749Y-99231000D01*
X144974564Y-99144908D01*
X145294000Y-98931468D01*
X145294000Y-105468532D01*
X144974564Y-105255092D01*
X144541749Y-105169000D01*
X142458251Y-105169000D01*
X142025436Y-105255092D01*
X141658513Y-105500262D01*
X141413343Y-105867185D01*
X141327251Y-106300000D01*
X141413343Y-106732815D01*
X141658513Y-107099738D01*
X142025436Y-107344908D01*
X142458251Y-107431000D01*
X144541749Y-107431000D01*
X144974564Y-107344908D01*
X145294000Y-107131468D01*
X145294000Y-110268532D01*
X144974564Y-110055092D01*
X144541749Y-109969000D01*
X142458251Y-109969000D01*
X142025436Y-110055092D01*
X141658513Y-110300262D01*
X141413343Y-110667185D01*
X141327251Y-111100000D01*
X141413343Y-111532815D01*
X141658513Y-111899738D01*
X142025436Y-112144908D01*
X142458251Y-112231000D01*
X144541749Y-112231000D01*
X144974564Y-112144908D01*
X145294000Y-111931468D01*
X145294000Y-118468532D01*
X144974564Y-118255092D01*
X144541749Y-118169000D01*
X142458251Y-118169000D01*
X142025436Y-118255092D01*
X141658513Y-118500262D01*
X141413343Y-118867185D01*
X141327251Y-119300000D01*
X141413343Y-119732815D01*
X141658513Y-120099738D01*
X142025436Y-120344908D01*
X142458251Y-120431000D01*
X144541749Y-120431000D01*
X144974564Y-120344908D01*
X145294000Y-120131468D01*
X145294000Y-123268532D01*
X144974564Y-123055092D01*
X144541749Y-122969000D01*
X142458251Y-122969000D01*
X142025436Y-123055092D01*
X141658513Y-123300262D01*
X141413343Y-123667185D01*
X141327251Y-124100000D01*
X141413343Y-124532815D01*
X141658513Y-124899738D01*
X142025436Y-125144908D01*
X142458251Y-125231000D01*
X144541749Y-125231000D01*
X144974564Y-125144908D01*
X145294000Y-124931468D01*
X145294000Y-131468532D01*
X144974564Y-131255092D01*
X144541749Y-131169000D01*
X142458251Y-131169000D01*
X142025436Y-131255092D01*
X141658513Y-131500262D01*
X141413343Y-131867185D01*
X141327251Y-132300000D01*
X141413343Y-132732815D01*
X141658513Y-133099738D01*
X142025436Y-133344908D01*
X142458251Y-133431000D01*
X144541749Y-133431000D01*
X144974564Y-133344908D01*
X145294000Y-133131468D01*
X145294000Y-136268532D01*
X144974564Y-136055092D01*
X144541749Y-135969000D01*
X142458251Y-135969000D01*
X142025436Y-136055092D01*
X141658513Y-136300262D01*
X141413343Y-136667185D01*
X141327251Y-137100000D01*
X141413343Y-137532815D01*
X141658513Y-137899738D01*
X142025436Y-138144908D01*
X142458251Y-138231000D01*
X144541749Y-138231000D01*
X144974564Y-138144908D01*
X145294000Y-137931468D01*
X145294000Y-144468532D01*
X144974564Y-144255092D01*
X144541749Y-144169000D01*
X142458251Y-144169000D01*
X142025436Y-144255092D01*
X141658513Y-144500262D01*
X141413343Y-144867185D01*
X141327251Y-145300000D01*
X141413343Y-145732815D01*
X141658513Y-146099738D01*
X142025436Y-146344908D01*
X142458251Y-146431000D01*
X144541749Y-146431000D01*
X144974564Y-146344908D01*
X145294000Y-146131468D01*
X145294000Y-149268532D01*
X144974564Y-149055092D01*
X144541749Y-148969000D01*
X142458251Y-148969000D01*
X142025436Y-149055092D01*
X141658513Y-149300262D01*
X141413343Y-149667185D01*
X141327251Y-150100000D01*
X141413343Y-150532815D01*
X141658513Y-150899738D01*
X142025436Y-151144908D01*
X142458251Y-151231000D01*
X144541749Y-151231000D01*
X144974564Y-151144908D01*
X145294000Y-150931468D01*
X145294000Y-156373000D01*
X140316357Y-156373000D01*
X140431000Y-155796647D01*
X140431000Y-154203353D01*
X140306848Y-153579196D01*
X139953291Y-153050062D01*
X139424157Y-152696505D01*
X138800000Y-152572353D01*
X138175843Y-152696505D01*
X137646709Y-153050062D01*
X137293152Y-153579196D01*
X137169000Y-154203353D01*
X137169000Y-155796647D01*
X137283643Y-156373000D01*
X131730271Y-156373000D01*
X131645856Y-156168701D01*
X131657859Y-156151134D01*
X131688464Y-156000000D01*
X131688464Y-154402697D01*
X131757859Y-154301134D01*
X131788464Y-154150000D01*
X131788464Y-152350000D01*
X131761897Y-152208810D01*
X131678454Y-152079135D01*
X131551134Y-151992141D01*
X131400000Y-151961536D01*
X129600000Y-151961536D01*
X129458810Y-151988103D01*
X129329135Y-152071546D01*
X129242141Y-152198866D01*
X129211536Y-152350000D01*
X129211536Y-154150000D01*
X129238103Y-154291190D01*
X129311536Y-154405309D01*
X129311536Y-156000000D01*
X129338103Y-156141190D01*
X129354909Y-156167308D01*
X129269498Y-156373000D01*
X123005104Y-156373000D01*
X123176514Y-156258467D01*
X123475878Y-155810439D01*
X123581000Y-155281953D01*
X123581000Y-154718047D01*
X123475878Y-154189561D01*
X123176514Y-153741533D01*
X122728486Y-153442169D01*
X122200000Y-153337047D01*
X121671514Y-153442169D01*
X121223486Y-153741533D01*
X120924122Y-154189561D01*
X120819000Y-154718047D01*
X120819000Y-155281953D01*
X120924122Y-155810439D01*
X121223486Y-156258467D01*
X121394896Y-156373000D01*
X114316357Y-156373000D01*
X114431000Y-155796647D01*
X114431000Y-154203353D01*
X114306848Y-153579196D01*
X114127000Y-153310035D01*
X114127000Y-150100000D01*
X115327251Y-150100000D01*
X115413343Y-150532815D01*
X115658513Y-150899738D01*
X116025436Y-151144908D01*
X116458251Y-151231000D01*
X118541749Y-151231000D01*
X118974564Y-151144908D01*
X119341487Y-150899738D01*
X119586657Y-150532815D01*
X119672749Y-150100000D01*
X119586657Y-149667185D01*
X119341487Y-149300262D01*
X118974564Y-149055092D01*
X118541749Y-148969000D01*
X116458251Y-148969000D01*
X116025436Y-149055092D01*
X115658513Y-149300262D01*
X115413343Y-149667185D01*
X115327251Y-150100000D01*
X114127000Y-150100000D01*
X114127000Y-148302416D01*
X121967648Y-148302416D01*
X122276350Y-149049532D01*
X122847462Y-149621641D01*
X123594037Y-149931646D01*
X124402416Y-149932352D01*
X125149532Y-149623650D01*
X125721641Y-149052538D01*
X126031646Y-148305963D01*
X126032352Y-147497584D01*
X125723650Y-146750468D01*
X125152538Y-146178359D01*
X124405963Y-145868354D01*
X123597584Y-145867648D01*
X122850468Y-146176350D01*
X122278359Y-146747462D01*
X121968354Y-147494037D01*
X121967648Y-148302416D01*
X114127000Y-148302416D01*
X114127000Y-145300000D01*
X115327251Y-145300000D01*
X115413343Y-145732815D01*
X115658513Y-146099738D01*
X116025436Y-146344908D01*
X116458251Y-146431000D01*
X118541749Y-146431000D01*
X118974564Y-146344908D01*
X119341487Y-146099738D01*
X119586657Y-145732815D01*
X119672749Y-145300000D01*
X128327251Y-145300000D01*
X128413343Y-145732815D01*
X128658513Y-146099738D01*
X129025436Y-146344908D01*
X129458251Y-146431000D01*
X131541749Y-146431000D01*
X131974564Y-146344908D01*
X132341487Y-146099738D01*
X132586657Y-145732815D01*
X132672749Y-145300000D01*
X132586657Y-144867185D01*
X132341487Y-144500262D01*
X131974564Y-144255092D01*
X131541749Y-144169000D01*
X129458251Y-144169000D01*
X129025436Y-144255092D01*
X128658513Y-144500262D01*
X128413343Y-144867185D01*
X128327251Y-145300000D01*
X119672749Y-145300000D01*
X119586657Y-144867185D01*
X119341487Y-144500262D01*
X118974564Y-144255092D01*
X118541749Y-144169000D01*
X116458251Y-144169000D01*
X116025436Y-144255092D01*
X115658513Y-144500262D01*
X115413343Y-144867185D01*
X115327251Y-145300000D01*
X114127000Y-145300000D01*
X114127000Y-143689965D01*
X114306848Y-143420804D01*
X114431000Y-142796647D01*
X114431000Y-141718047D01*
X120819000Y-141718047D01*
X120819000Y-142281953D01*
X120924122Y-142810439D01*
X121223486Y-143258467D01*
X121671514Y-143557831D01*
X122200000Y-143662953D01*
X122728486Y-143557831D01*
X123176514Y-143258467D01*
X123475878Y-142810439D01*
X123581000Y-142281953D01*
X123581000Y-141718047D01*
X123478622Y-141203353D01*
X124169000Y-141203353D01*
X124169000Y-142796647D01*
X124293152Y-143420804D01*
X124646709Y-143949938D01*
X125175843Y-144303495D01*
X125800000Y-144427647D01*
X126424157Y-144303495D01*
X126953291Y-143949938D01*
X127306848Y-143420804D01*
X127431000Y-142796647D01*
X127431000Y-141718047D01*
X133819000Y-141718047D01*
X133819000Y-142281953D01*
X133924122Y-142810439D01*
X134223486Y-143258467D01*
X134671514Y-143557831D01*
X135200000Y-143662953D01*
X135728486Y-143557831D01*
X136176514Y-143258467D01*
X136475878Y-142810439D01*
X136581000Y-142281953D01*
X136581000Y-141718047D01*
X136478622Y-141203353D01*
X137169000Y-141203353D01*
X137169000Y-142796647D01*
X137293152Y-143420804D01*
X137646709Y-143949938D01*
X138175843Y-144303495D01*
X138800000Y-144427647D01*
X139424157Y-144303495D01*
X139953291Y-143949938D01*
X140306848Y-143420804D01*
X140431000Y-142796647D01*
X140431000Y-141203353D01*
X140306848Y-140579196D01*
X139953291Y-140050062D01*
X139424157Y-139696505D01*
X138800000Y-139572353D01*
X138175843Y-139696505D01*
X137646709Y-140050062D01*
X137293152Y-140579196D01*
X137169000Y-141203353D01*
X136478622Y-141203353D01*
X136475878Y-141189561D01*
X136176514Y-140741533D01*
X135728486Y-140442169D01*
X135200000Y-140337047D01*
X134671514Y-140442169D01*
X134223486Y-140741533D01*
X133924122Y-141189561D01*
X133819000Y-141718047D01*
X127431000Y-141718047D01*
X127431000Y-141203353D01*
X127306848Y-140579196D01*
X126953291Y-140050062D01*
X126424157Y-139696505D01*
X125800000Y-139572353D01*
X125175843Y-139696505D01*
X124646709Y-140050062D01*
X124293152Y-140579196D01*
X124169000Y-141203353D01*
X123478622Y-141203353D01*
X123475878Y-141189561D01*
X123176514Y-140741533D01*
X122728486Y-140442169D01*
X122200000Y-140337047D01*
X121671514Y-140442169D01*
X121223486Y-140741533D01*
X120924122Y-141189561D01*
X120819000Y-141718047D01*
X114431000Y-141718047D01*
X114431000Y-141203353D01*
X114306848Y-140579196D01*
X114127000Y-140310035D01*
X114127000Y-137100000D01*
X115327251Y-137100000D01*
X115413343Y-137532815D01*
X115658513Y-137899738D01*
X116025436Y-138144908D01*
X116458251Y-138231000D01*
X118541749Y-138231000D01*
X118974564Y-138144908D01*
X119341487Y-137899738D01*
X119586657Y-137532815D01*
X119672749Y-137100000D01*
X128327251Y-137100000D01*
X128413343Y-137532815D01*
X128658513Y-137899738D01*
X129025436Y-138144908D01*
X129458251Y-138231000D01*
X131541749Y-138231000D01*
X131974564Y-138144908D01*
X132341487Y-137899738D01*
X132586657Y-137532815D01*
X132672749Y-137100000D01*
X132586657Y-136667185D01*
X132341487Y-136300262D01*
X131974564Y-136055092D01*
X131541749Y-135969000D01*
X129458251Y-135969000D01*
X129025436Y-136055092D01*
X128658513Y-136300262D01*
X128413343Y-136667185D01*
X128327251Y-137100000D01*
X119672749Y-137100000D01*
X119586657Y-136667185D01*
X119341487Y-136300262D01*
X118974564Y-136055092D01*
X118541749Y-135969000D01*
X116458251Y-135969000D01*
X116025436Y-136055092D01*
X115658513Y-136300262D01*
X115413343Y-136667185D01*
X115327251Y-137100000D01*
X114127000Y-137100000D01*
X114127000Y-135164571D01*
X121268856Y-135164571D01*
X121395102Y-135470109D01*
X121628662Y-135704077D01*
X121933979Y-135830855D01*
X122264571Y-135831144D01*
X122570109Y-135704898D01*
X122804077Y-135471338D01*
X122930855Y-135166021D01*
X122931144Y-134835429D01*
X122804898Y-134529891D01*
X122571338Y-134295923D01*
X122266021Y-134169145D01*
X121935429Y-134168856D01*
X121629891Y-134295102D01*
X121395923Y-134528662D01*
X121269145Y-134833979D01*
X121268856Y-135164571D01*
X114127000Y-135164571D01*
X114127000Y-134164571D01*
X133268856Y-134164571D01*
X133395102Y-134470109D01*
X133628662Y-134704077D01*
X133933979Y-134830855D01*
X134264571Y-134831144D01*
X134570109Y-134704898D01*
X134804077Y-134471338D01*
X134930855Y-134166021D01*
X134931144Y-133835429D01*
X134804898Y-133529891D01*
X134571338Y-133295923D01*
X134266021Y-133169145D01*
X133935429Y-133168856D01*
X133629891Y-133295102D01*
X133395923Y-133528662D01*
X133269145Y-133833979D01*
X133268856Y-134164571D01*
X114127000Y-134164571D01*
X114127000Y-132300000D01*
X115327251Y-132300000D01*
X115413343Y-132732815D01*
X115658513Y-133099738D01*
X116025436Y-133344908D01*
X116458251Y-133431000D01*
X118541749Y-133431000D01*
X118974564Y-133344908D01*
X119341487Y-133099738D01*
X119586657Y-132732815D01*
X119672749Y-132300000D01*
X128327251Y-132300000D01*
X128413343Y-132732815D01*
X128658513Y-133099738D01*
X129025436Y-133344908D01*
X129458251Y-133431000D01*
X131541749Y-133431000D01*
X131974564Y-133344908D01*
X132341487Y-133099738D01*
X132586657Y-132732815D01*
X132672749Y-132300000D01*
X132586657Y-131867185D01*
X132341487Y-131500262D01*
X131974564Y-131255092D01*
X131541749Y-131169000D01*
X129458251Y-131169000D01*
X129025436Y-131255092D01*
X128658513Y-131500262D01*
X128413343Y-131867185D01*
X128327251Y-132300000D01*
X119672749Y-132300000D01*
X119586657Y-131867185D01*
X119341487Y-131500262D01*
X118974564Y-131255092D01*
X118541749Y-131169000D01*
X116458251Y-131169000D01*
X116025436Y-131255092D01*
X115658513Y-131500262D01*
X115413343Y-131867185D01*
X115327251Y-132300000D01*
X114127000Y-132300000D01*
X114127000Y-130689965D01*
X114306848Y-130420804D01*
X114431000Y-129796647D01*
X114431000Y-128718047D01*
X120819000Y-128718047D01*
X120819000Y-129281953D01*
X120924122Y-129810439D01*
X121223486Y-130258467D01*
X121671514Y-130557831D01*
X122200000Y-130662953D01*
X122728486Y-130557831D01*
X123176514Y-130258467D01*
X123475878Y-129810439D01*
X123581000Y-129281953D01*
X123581000Y-128718047D01*
X123478622Y-128203353D01*
X124169000Y-128203353D01*
X124169000Y-129796647D01*
X124293152Y-130420804D01*
X124646709Y-130949938D01*
X125175843Y-131303495D01*
X125800000Y-131427647D01*
X126424157Y-131303495D01*
X126953291Y-130949938D01*
X127306848Y-130420804D01*
X127431000Y-129796647D01*
X127431000Y-128718047D01*
X133819000Y-128718047D01*
X133819000Y-129281953D01*
X133924122Y-129810439D01*
X134223486Y-130258467D01*
X134671514Y-130557831D01*
X135200000Y-130662953D01*
X135728486Y-130557831D01*
X136176514Y-130258467D01*
X136475878Y-129810439D01*
X136581000Y-129281953D01*
X136581000Y-128718047D01*
X136478622Y-128203353D01*
X137169000Y-128203353D01*
X137169000Y-129796647D01*
X137293152Y-130420804D01*
X137646709Y-130949938D01*
X138175843Y-131303495D01*
X138800000Y-131427647D01*
X139424157Y-131303495D01*
X139953291Y-130949938D01*
X140306848Y-130420804D01*
X140431000Y-129796647D01*
X140431000Y-128203353D01*
X140306848Y-127579196D01*
X139953291Y-127050062D01*
X139424157Y-126696505D01*
X138800000Y-126572353D01*
X138175843Y-126696505D01*
X137646709Y-127050062D01*
X137293152Y-127579196D01*
X137169000Y-128203353D01*
X136478622Y-128203353D01*
X136475878Y-128189561D01*
X136176514Y-127741533D01*
X135728486Y-127442169D01*
X135200000Y-127337047D01*
X134671514Y-127442169D01*
X134223486Y-127741533D01*
X133924122Y-128189561D01*
X133819000Y-128718047D01*
X127431000Y-128718047D01*
X127431000Y-128203353D01*
X127306848Y-127579196D01*
X126953291Y-127050062D01*
X126424157Y-126696505D01*
X125800000Y-126572353D01*
X125175843Y-126696505D01*
X124646709Y-127050062D01*
X124293152Y-127579196D01*
X124169000Y-128203353D01*
X123478622Y-128203353D01*
X123475878Y-128189561D01*
X123176514Y-127741533D01*
X122728486Y-127442169D01*
X122200000Y-127337047D01*
X121671514Y-127442169D01*
X121223486Y-127741533D01*
X120924122Y-128189561D01*
X120819000Y-128718047D01*
X114431000Y-128718047D01*
X114431000Y-128203353D01*
X114306848Y-127579196D01*
X114127000Y-127310035D01*
X114127000Y-124100000D01*
X115327251Y-124100000D01*
X115413343Y-124532815D01*
X115658513Y-124899738D01*
X116025436Y-125144908D01*
X116458251Y-125231000D01*
X118541749Y-125231000D01*
X118974564Y-125144908D01*
X119341487Y-124899738D01*
X119586657Y-124532815D01*
X119672749Y-124100000D01*
X128327251Y-124100000D01*
X128413343Y-124532815D01*
X128658513Y-124899738D01*
X129025436Y-125144908D01*
X129458251Y-125231000D01*
X131541749Y-125231000D01*
X131974564Y-125144908D01*
X132341487Y-124899738D01*
X132586657Y-124532815D01*
X132672749Y-124100000D01*
X132586657Y-123667185D01*
X132341487Y-123300262D01*
X131974564Y-123055092D01*
X131541749Y-122969000D01*
X129458251Y-122969000D01*
X129025436Y-123055092D01*
X128658513Y-123300262D01*
X128413343Y-123667185D01*
X128327251Y-124100000D01*
X119672749Y-124100000D01*
X119586657Y-123667185D01*
X119341487Y-123300262D01*
X118974564Y-123055092D01*
X118541749Y-122969000D01*
X116458251Y-122969000D01*
X116025436Y-123055092D01*
X115658513Y-123300262D01*
X115413343Y-123667185D01*
X115327251Y-124100000D01*
X114127000Y-124100000D01*
X114127000Y-121264579D01*
X120268856Y-121264579D01*
X120395102Y-121570117D01*
X120628662Y-121804085D01*
X120933979Y-121930863D01*
X121264571Y-121931152D01*
X121570109Y-121804906D01*
X121804077Y-121571346D01*
X121930855Y-121266029D01*
X121930943Y-121164571D01*
X133268858Y-121164571D01*
X133395104Y-121470109D01*
X133628664Y-121704077D01*
X133933981Y-121830855D01*
X134264573Y-121831144D01*
X134570111Y-121704898D01*
X134804079Y-121471338D01*
X134930857Y-121166021D01*
X134931146Y-120835429D01*
X134804900Y-120529891D01*
X134571340Y-120295923D01*
X134266023Y-120169145D01*
X133935431Y-120168856D01*
X133629893Y-120295102D01*
X133395925Y-120528662D01*
X133269147Y-120833979D01*
X133268858Y-121164571D01*
X121930943Y-121164571D01*
X121931144Y-120935437D01*
X121804898Y-120629899D01*
X121571338Y-120395931D01*
X121266021Y-120269153D01*
X120935429Y-120268864D01*
X120629891Y-120395110D01*
X120395923Y-120628670D01*
X120269145Y-120933987D01*
X120268856Y-121264579D01*
X114127000Y-121264579D01*
X114127000Y-119300000D01*
X115327251Y-119300000D01*
X115413343Y-119732815D01*
X115658513Y-120099738D01*
X116025436Y-120344908D01*
X116458251Y-120431000D01*
X118541749Y-120431000D01*
X118974564Y-120344908D01*
X119341487Y-120099738D01*
X119586657Y-119732815D01*
X119672749Y-119300000D01*
X128327251Y-119300000D01*
X128413343Y-119732815D01*
X128658513Y-120099738D01*
X129025436Y-120344908D01*
X129458251Y-120431000D01*
X131541749Y-120431000D01*
X131974564Y-120344908D01*
X132341487Y-120099738D01*
X132586657Y-119732815D01*
X132672749Y-119300000D01*
X132586657Y-118867185D01*
X132341487Y-118500262D01*
X131974564Y-118255092D01*
X131541749Y-118169000D01*
X129458251Y-118169000D01*
X129025436Y-118255092D01*
X128658513Y-118500262D01*
X128413343Y-118867185D01*
X128327251Y-119300000D01*
X119672749Y-119300000D01*
X119586657Y-118867185D01*
X119341487Y-118500262D01*
X118974564Y-118255092D01*
X118541749Y-118169000D01*
X116458251Y-118169000D01*
X116025436Y-118255092D01*
X115658513Y-118500262D01*
X115413343Y-118867185D01*
X115327251Y-119300000D01*
X114127000Y-119300000D01*
X114127000Y-117689965D01*
X114306848Y-117420804D01*
X114431000Y-116796647D01*
X114431000Y-115718047D01*
X120819000Y-115718047D01*
X120819000Y-116281953D01*
X120924122Y-116810439D01*
X121223486Y-117258467D01*
X121671514Y-117557831D01*
X122200000Y-117662953D01*
X122728486Y-117557831D01*
X123176514Y-117258467D01*
X123475878Y-116810439D01*
X123581000Y-116281953D01*
X123581000Y-115718047D01*
X123478622Y-115203353D01*
X124169000Y-115203353D01*
X124169000Y-116796647D01*
X124293152Y-117420804D01*
X124646709Y-117949938D01*
X125175843Y-118303495D01*
X125800000Y-118427647D01*
X126424157Y-118303495D01*
X126953291Y-117949938D01*
X127306848Y-117420804D01*
X127431000Y-116796647D01*
X127431000Y-115718047D01*
X133819000Y-115718047D01*
X133819000Y-116281953D01*
X133924122Y-116810439D01*
X134223486Y-117258467D01*
X134671514Y-117557831D01*
X135200000Y-117662953D01*
X135728486Y-117557831D01*
X136176514Y-117258467D01*
X136475878Y-116810439D01*
X136581000Y-116281953D01*
X136581000Y-115718047D01*
X136478622Y-115203353D01*
X137169000Y-115203353D01*
X137169000Y-116796647D01*
X137293152Y-117420804D01*
X137646709Y-117949938D01*
X138175843Y-118303495D01*
X138800000Y-118427647D01*
X139424157Y-118303495D01*
X139953291Y-117949938D01*
X140306848Y-117420804D01*
X140431000Y-116796647D01*
X140431000Y-115203353D01*
X140306848Y-114579196D01*
X139953291Y-114050062D01*
X139424157Y-113696505D01*
X138800000Y-113572353D01*
X138175843Y-113696505D01*
X137646709Y-114050062D01*
X137293152Y-114579196D01*
X137169000Y-115203353D01*
X136478622Y-115203353D01*
X136475878Y-115189561D01*
X136176514Y-114741533D01*
X135728486Y-114442169D01*
X135200000Y-114337047D01*
X134671514Y-114442169D01*
X134223486Y-114741533D01*
X133924122Y-115189561D01*
X133819000Y-115718047D01*
X127431000Y-115718047D01*
X127431000Y-115203353D01*
X127306848Y-114579196D01*
X126953291Y-114050062D01*
X126424157Y-113696505D01*
X125800000Y-113572353D01*
X125175843Y-113696505D01*
X124646709Y-114050062D01*
X124293152Y-114579196D01*
X124169000Y-115203353D01*
X123478622Y-115203353D01*
X123475878Y-115189561D01*
X123176514Y-114741533D01*
X122728486Y-114442169D01*
X122200000Y-114337047D01*
X121671514Y-114442169D01*
X121223486Y-114741533D01*
X120924122Y-115189561D01*
X120819000Y-115718047D01*
X114431000Y-115718047D01*
X114431000Y-115203353D01*
X114306848Y-114579196D01*
X114127000Y-114310035D01*
X114127000Y-111100000D01*
X115327251Y-111100000D01*
X115413343Y-111532815D01*
X115658513Y-111899738D01*
X116025436Y-112144908D01*
X116458251Y-112231000D01*
X118541749Y-112231000D01*
X118974564Y-112144908D01*
X119341487Y-111899738D01*
X119586657Y-111532815D01*
X119672749Y-111100000D01*
X128327251Y-111100000D01*
X128413343Y-111532815D01*
X128658513Y-111899738D01*
X129025436Y-112144908D01*
X129458251Y-112231000D01*
X131541749Y-112231000D01*
X131974564Y-112144908D01*
X132341487Y-111899738D01*
X132586657Y-111532815D01*
X132672749Y-111100000D01*
X132586657Y-110667185D01*
X132341487Y-110300262D01*
X131974564Y-110055092D01*
X131541749Y-109969000D01*
X129458251Y-109969000D01*
X129025436Y-110055092D01*
X128658513Y-110300262D01*
X128413343Y-110667185D01*
X128327251Y-111100000D01*
X119672749Y-111100000D01*
X119586657Y-110667185D01*
X119341487Y-110300262D01*
X118974564Y-110055092D01*
X118541749Y-109969000D01*
X116458251Y-109969000D01*
X116025436Y-110055092D01*
X115658513Y-110300262D01*
X115413343Y-110667185D01*
X115327251Y-111100000D01*
X114127000Y-111100000D01*
X114127000Y-109264571D01*
X131068856Y-109264571D01*
X131195102Y-109570109D01*
X131428662Y-109804077D01*
X131733979Y-109930855D01*
X132064571Y-109931144D01*
X132370109Y-109804898D01*
X132604077Y-109571338D01*
X132730855Y-109266021D01*
X132731144Y-108935429D01*
X132604898Y-108629891D01*
X132371338Y-108395923D01*
X132066021Y-108269145D01*
X131735429Y-108268856D01*
X131429891Y-108395102D01*
X131195923Y-108628662D01*
X131069145Y-108933979D01*
X131068856Y-109264571D01*
X114127000Y-109264571D01*
X114127000Y-106300000D01*
X115327251Y-106300000D01*
X115413343Y-106732815D01*
X115658513Y-107099738D01*
X116025436Y-107344908D01*
X116458251Y-107431000D01*
X118541749Y-107431000D01*
X118974564Y-107344908D01*
X119341487Y-107099738D01*
X119586657Y-106732815D01*
X119672749Y-106300000D01*
X128327251Y-106300000D01*
X128413343Y-106732815D01*
X128658513Y-107099738D01*
X129025436Y-107344908D01*
X129458251Y-107431000D01*
X131541749Y-107431000D01*
X131974564Y-107344908D01*
X132341487Y-107099738D01*
X132586657Y-106732815D01*
X132672749Y-106300000D01*
X132586657Y-105867185D01*
X132341487Y-105500262D01*
X131974564Y-105255092D01*
X131541749Y-105169000D01*
X129458251Y-105169000D01*
X129025436Y-105255092D01*
X128658513Y-105500262D01*
X128413343Y-105867185D01*
X128327251Y-106300000D01*
X119672749Y-106300000D01*
X119586657Y-105867185D01*
X119341487Y-105500262D01*
X118974564Y-105255092D01*
X118541749Y-105169000D01*
X116458251Y-105169000D01*
X116025436Y-105255092D01*
X115658513Y-105500262D01*
X115413343Y-105867185D01*
X115327251Y-106300000D01*
X114127000Y-106300000D01*
X114127000Y-104689965D01*
X114306848Y-104420804D01*
X114431000Y-103796647D01*
X114431000Y-102718047D01*
X120819000Y-102718047D01*
X120819000Y-103281953D01*
X120924122Y-103810439D01*
X121223486Y-104258467D01*
X121671514Y-104557831D01*
X122200000Y-104662953D01*
X122728486Y-104557831D01*
X123176514Y-104258467D01*
X123475878Y-103810439D01*
X123581000Y-103281953D01*
X123581000Y-102718047D01*
X123478622Y-102203353D01*
X124169000Y-102203353D01*
X124169000Y-103796647D01*
X124293152Y-104420804D01*
X124646709Y-104949938D01*
X125175843Y-105303495D01*
X125800000Y-105427647D01*
X126424157Y-105303495D01*
X126953291Y-104949938D01*
X127306848Y-104420804D01*
X127431000Y-103796647D01*
X127431000Y-102718047D01*
X133819000Y-102718047D01*
X133819000Y-103281953D01*
X133924122Y-103810439D01*
X134223486Y-104258467D01*
X134671514Y-104557831D01*
X135200000Y-104662953D01*
X135728486Y-104557831D01*
X136176514Y-104258467D01*
X136475878Y-103810439D01*
X136581000Y-103281953D01*
X136581000Y-102718047D01*
X136478622Y-102203353D01*
X137169000Y-102203353D01*
X137169000Y-103796647D01*
X137293152Y-104420804D01*
X137646709Y-104949938D01*
X138175843Y-105303495D01*
X138800000Y-105427647D01*
X139424157Y-105303495D01*
X139953291Y-104949938D01*
X140306848Y-104420804D01*
X140431000Y-103796647D01*
X140431000Y-102203353D01*
X140306848Y-101579196D01*
X139953291Y-101050062D01*
X139424157Y-100696505D01*
X138800000Y-100572353D01*
X138175843Y-100696505D01*
X137646709Y-101050062D01*
X137293152Y-101579196D01*
X137169000Y-102203353D01*
X136478622Y-102203353D01*
X136475878Y-102189561D01*
X136176514Y-101741533D01*
X135728486Y-101442169D01*
X135200000Y-101337047D01*
X134671514Y-101442169D01*
X134223486Y-101741533D01*
X133924122Y-102189561D01*
X133819000Y-102718047D01*
X127431000Y-102718047D01*
X127431000Y-102203353D01*
X127306848Y-101579196D01*
X126953291Y-101050062D01*
X126424157Y-100696505D01*
X125800000Y-100572353D01*
X125175843Y-100696505D01*
X124646709Y-101050062D01*
X124293152Y-101579196D01*
X124169000Y-102203353D01*
X123478622Y-102203353D01*
X123475878Y-102189561D01*
X123176514Y-101741533D01*
X122728486Y-101442169D01*
X122200000Y-101337047D01*
X121671514Y-101442169D01*
X121223486Y-101741533D01*
X120924122Y-102189561D01*
X120819000Y-102718047D01*
X114431000Y-102718047D01*
X114431000Y-102203353D01*
X114306848Y-101579196D01*
X114127000Y-101310035D01*
X114127000Y-98100000D01*
X115327251Y-98100000D01*
X115413343Y-98532815D01*
X115658513Y-98899738D01*
X116025436Y-99144908D01*
X116458251Y-99231000D01*
X118541749Y-99231000D01*
X118974564Y-99144908D01*
X119341487Y-98899738D01*
X119586657Y-98532815D01*
X119672749Y-98100000D01*
X128327251Y-98100000D01*
X128413343Y-98532815D01*
X128658513Y-98899738D01*
X129025436Y-99144908D01*
X129458251Y-99231000D01*
X131541749Y-99231000D01*
X131974564Y-99144908D01*
X132341487Y-98899738D01*
X132586657Y-98532815D01*
X132672749Y-98100000D01*
X132586657Y-97667185D01*
X132341487Y-97300262D01*
X131974564Y-97055092D01*
X131541749Y-96969000D01*
X129458251Y-96969000D01*
X129025436Y-97055092D01*
X128658513Y-97300262D01*
X128413343Y-97667185D01*
X128327251Y-98100000D01*
X119672749Y-98100000D01*
X119586657Y-97667185D01*
X119341487Y-97300262D01*
X118974564Y-97055092D01*
X118541749Y-96969000D01*
X116458251Y-96969000D01*
X116025436Y-97055092D01*
X115658513Y-97300262D01*
X115413343Y-97667185D01*
X115327251Y-98100000D01*
X114127000Y-98100000D01*
X114127000Y-96220406D01*
X115993867Y-96220406D01*
X116127709Y-96544328D01*
X116375322Y-96792373D01*
X116699009Y-96926780D01*
X117049493Y-96927086D01*
X117373415Y-96793244D01*
X117621460Y-96545631D01*
X117755867Y-96221944D01*
X117756173Y-95871460D01*
X117622331Y-95547538D01*
X117374718Y-95299493D01*
X117051031Y-95165086D01*
X116700547Y-95164780D01*
X116376625Y-95298622D01*
X116128580Y-95546235D01*
X115994173Y-95869922D01*
X115993867Y-96220406D01*
X114127000Y-96220406D01*
X114127000Y-95781675D01*
X114902416Y-95782352D01*
X115649532Y-95473650D01*
X116221641Y-94902538D01*
X116320455Y-94664567D01*
X133168856Y-94664567D01*
X133295102Y-94970105D01*
X133528662Y-95204073D01*
X133833979Y-95330851D01*
X134164571Y-95331140D01*
X134470109Y-95204894D01*
X134704077Y-94971334D01*
X134830855Y-94666017D01*
X134831144Y-94335425D01*
X134704898Y-94029887D01*
X134471338Y-93795919D01*
X134166021Y-93669141D01*
X133835429Y-93668852D01*
X133529891Y-93795098D01*
X133295923Y-94028658D01*
X133169145Y-94333975D01*
X133168856Y-94664567D01*
X116320455Y-94664567D01*
X116531646Y-94155963D01*
X116532352Y-93347584D01*
X116223650Y-92600468D01*
X115652538Y-92028359D01*
X114905963Y-91718354D01*
X114127000Y-91717674D01*
X114127000Y-91040000D01*
X127571945Y-91040000D01*
X127658037Y-91472815D01*
X127903207Y-91839738D01*
X128270130Y-92084908D01*
X128702945Y-92171000D01*
X129257055Y-92171000D01*
X129689870Y-92084908D01*
X130056793Y-91839738D01*
X130301963Y-91472815D01*
X130388055Y-91040000D01*
X130611945Y-91040000D01*
X130698037Y-91472815D01*
X130943207Y-91839738D01*
X131310130Y-92084908D01*
X131742945Y-92171000D01*
X132297055Y-92171000D01*
X132729870Y-92084908D01*
X133096793Y-91839738D01*
X133341963Y-91472815D01*
X133428055Y-91040000D01*
X133341963Y-90607185D01*
X133096793Y-90240262D01*
X132729870Y-89995092D01*
X132297055Y-89909000D01*
X131742945Y-89909000D01*
X131310130Y-89995092D01*
X130943207Y-90240262D01*
X130698037Y-90607185D01*
X130611945Y-91040000D01*
X130388055Y-91040000D01*
X130301963Y-90607185D01*
X130056793Y-90240262D01*
X129689870Y-89995092D01*
X129257055Y-89909000D01*
X128702945Y-89909000D01*
X128270130Y-89995092D01*
X127903207Y-90240262D01*
X127658037Y-90607185D01*
X127571945Y-91040000D01*
X114127000Y-91040000D01*
X114127000Y-88823003D01*
X118368718Y-88823003D01*
X118616499Y-89422680D01*
X119074907Y-89881888D01*
X119674151Y-90130716D01*
X120323003Y-90131282D01*
X120922680Y-89883501D01*
X121381888Y-89425093D01*
X121630716Y-88825849D01*
X121631282Y-88176997D01*
X121383501Y-87577320D01*
X121019819Y-87213003D01*
X122258718Y-87213003D01*
X122506499Y-87812680D01*
X122964907Y-88271888D01*
X123564151Y-88520716D01*
X124213003Y-88521282D01*
X124264509Y-88500000D01*
X127571945Y-88500000D01*
X127658037Y-88932815D01*
X127903207Y-89299738D01*
X128270130Y-89544908D01*
X128702945Y-89631000D01*
X129257055Y-89631000D01*
X129689870Y-89544908D01*
X130056793Y-89299738D01*
X130301963Y-88932815D01*
X130388055Y-88500000D01*
X130611945Y-88500000D01*
X130698037Y-88932815D01*
X130943207Y-89299738D01*
X131310130Y-89544908D01*
X131742945Y-89631000D01*
X132297055Y-89631000D01*
X132729870Y-89544908D01*
X133096793Y-89299738D01*
X133341963Y-88932815D01*
X133363805Y-88823003D01*
X139368718Y-88823003D01*
X139616499Y-89422680D01*
X140074907Y-89881888D01*
X140674151Y-90130716D01*
X141323003Y-90131282D01*
X141922680Y-89883501D01*
X142381888Y-89425093D01*
X142630716Y-88825849D01*
X142631282Y-88176997D01*
X142383501Y-87577320D01*
X142019819Y-87213003D01*
X143258718Y-87213003D01*
X143506499Y-87812680D01*
X143964907Y-88271888D01*
X144564151Y-88520716D01*
X145213003Y-88521282D01*
X145812680Y-88273501D01*
X146271888Y-87815093D01*
X146520716Y-87215849D01*
X146521282Y-86566997D01*
X146273501Y-85967320D01*
X145815093Y-85508112D01*
X145215849Y-85259284D01*
X144566997Y-85258718D01*
X143967320Y-85506499D01*
X143508112Y-85964907D01*
X143259284Y-86564151D01*
X143258718Y-87213003D01*
X142019819Y-87213003D01*
X141925093Y-87118112D01*
X141325849Y-86869284D01*
X140676997Y-86868718D01*
X140077320Y-87116499D01*
X139618112Y-87574907D01*
X139369284Y-88174151D01*
X139368718Y-88823003D01*
X133363805Y-88823003D01*
X133428055Y-88500000D01*
X133341963Y-88067185D01*
X133096793Y-87700262D01*
X132729870Y-87455092D01*
X132297055Y-87369000D01*
X131742945Y-87369000D01*
X131310130Y-87455092D01*
X130943207Y-87700262D01*
X130698037Y-88067185D01*
X130611945Y-88500000D01*
X130388055Y-88500000D01*
X130301963Y-88067185D01*
X130056793Y-87700262D01*
X129689870Y-87455092D01*
X129257055Y-87369000D01*
X128702945Y-87369000D01*
X128270130Y-87455092D01*
X127903207Y-87700262D01*
X127658037Y-88067185D01*
X127571945Y-88500000D01*
X124264509Y-88500000D01*
X124812680Y-88273501D01*
X125271888Y-87815093D01*
X125520716Y-87215849D01*
X125521282Y-86566997D01*
X125411451Y-86301185D01*
X127387682Y-86301185D01*
X127406519Y-86404235D01*
X127677264Y-86876894D01*
X128108279Y-87209964D01*
X128633945Y-87352739D01*
X128853000Y-87191868D01*
X128853000Y-86087000D01*
X129107000Y-86087000D01*
X129107000Y-87191868D01*
X129326055Y-87352739D01*
X129840532Y-87213003D01*
X135478718Y-87213003D01*
X135726499Y-87812680D01*
X136184907Y-88271888D01*
X136784151Y-88520716D01*
X137433003Y-88521282D01*
X138032680Y-88273501D01*
X138491888Y-87815093D01*
X138740716Y-87215849D01*
X138741282Y-86566997D01*
X138493501Y-85967320D01*
X138035093Y-85508112D01*
X137435849Y-85259284D01*
X136786997Y-85258718D01*
X136187320Y-85506499D01*
X135728112Y-85964907D01*
X135479284Y-86564151D01*
X135478718Y-87213003D01*
X129840532Y-87213003D01*
X129851721Y-87209964D01*
X130282736Y-86876894D01*
X130553481Y-86404235D01*
X130572318Y-86301185D01*
X130449656Y-86087000D01*
X129107000Y-86087000D01*
X128853000Y-86087000D01*
X127510344Y-86087000D01*
X127387682Y-86301185D01*
X125411451Y-86301185D01*
X125273501Y-85967320D01*
X124925604Y-85618815D01*
X127387682Y-85618815D01*
X127510344Y-85833000D01*
X128853000Y-85833000D01*
X128853000Y-84728132D01*
X129107000Y-84728132D01*
X129107000Y-85833000D01*
X130449656Y-85833000D01*
X130572318Y-85618815D01*
X130553481Y-85515765D01*
X130378335Y-85210000D01*
X130631536Y-85210000D01*
X130631536Y-86710000D01*
X130658103Y-86851190D01*
X130741546Y-86980865D01*
X130868866Y-87067859D01*
X131020000Y-87098464D01*
X133020000Y-87098464D01*
X133161190Y-87071897D01*
X133290865Y-86988454D01*
X133377859Y-86861134D01*
X133408464Y-86710000D01*
X133408464Y-85210000D01*
X133381897Y-85068810D01*
X133298454Y-84939135D01*
X133171134Y-84852141D01*
X133020000Y-84821536D01*
X131020000Y-84821536D01*
X130878810Y-84848103D01*
X130749135Y-84931546D01*
X130662141Y-85058866D01*
X130631536Y-85210000D01*
X130378335Y-85210000D01*
X130282736Y-85043106D01*
X129851721Y-84710036D01*
X129326055Y-84567261D01*
X129107000Y-84728132D01*
X128853000Y-84728132D01*
X128633945Y-84567261D01*
X128108279Y-84710036D01*
X127677264Y-85043106D01*
X127406519Y-85515765D01*
X127387682Y-85618815D01*
X124925604Y-85618815D01*
X124815093Y-85508112D01*
X124215849Y-85259284D01*
X123566997Y-85258718D01*
X122967320Y-85506499D01*
X122508112Y-85964907D01*
X122259284Y-86564151D01*
X122258718Y-87213003D01*
X121019819Y-87213003D01*
X120925093Y-87118112D01*
X120325849Y-86869284D01*
X119676997Y-86868718D01*
X119077320Y-87116499D01*
X118618112Y-87574907D01*
X118369284Y-88174151D01*
X118368718Y-88823003D01*
X114127000Y-88823003D01*
X114127000Y-87213003D01*
X114478718Y-87213003D01*
X114726499Y-87812680D01*
X115184907Y-88271888D01*
X115784151Y-88520716D01*
X116433003Y-88521282D01*
X117032680Y-88273501D01*
X117491888Y-87815093D01*
X117740716Y-87215849D01*
X117741282Y-86566997D01*
X117493501Y-85967320D01*
X117035093Y-85508112D01*
X116435849Y-85259284D01*
X115786997Y-85258718D01*
X115187320Y-85506499D01*
X114728112Y-85964907D01*
X114479284Y-86564151D01*
X114478718Y-87213003D01*
X114127000Y-87213003D01*
X114127000Y-84611137D01*
X114174151Y-84630716D01*
X114823003Y-84631282D01*
X115422680Y-84383501D01*
X115881888Y-83925093D01*
X116130716Y-83325849D01*
X116130718Y-83323003D01*
X123868718Y-83323003D01*
X124116499Y-83922680D01*
X124574907Y-84381888D01*
X125174151Y-84630716D01*
X125823003Y-84631282D01*
X126422680Y-84383501D01*
X126881888Y-83925093D01*
X127130716Y-83325849D01*
X127130718Y-83323003D01*
X133868718Y-83323003D01*
X134116499Y-83922680D01*
X134574907Y-84381888D01*
X135174151Y-84630716D01*
X135823003Y-84631282D01*
X136422680Y-84383501D01*
X136881888Y-83925093D01*
X137130716Y-83325849D01*
X137131282Y-82676997D01*
X136883501Y-82077320D01*
X136425093Y-81618112D01*
X135825849Y-81369284D01*
X135176997Y-81368718D01*
X134577320Y-81616499D01*
X134118112Y-82074907D01*
X133869284Y-82674151D01*
X133868718Y-83323003D01*
X127130718Y-83323003D01*
X127131282Y-82676997D01*
X126883501Y-82077320D01*
X126425093Y-81618112D01*
X125825849Y-81369284D01*
X125176997Y-81368718D01*
X124577320Y-81616499D01*
X124118112Y-82074907D01*
X123869284Y-82674151D01*
X123868718Y-83323003D01*
X116130718Y-83323003D01*
X116131282Y-82676997D01*
X115883501Y-82077320D01*
X115425093Y-81618112D01*
X115006000Y-81444089D01*
X115006000Y-81232234D01*
X114967483Y-81038596D01*
X114857796Y-80874438D01*
X114127000Y-80143642D01*
X114127000Y-78823003D01*
X118368718Y-78823003D01*
X118616499Y-79422680D01*
X119074907Y-79881888D01*
X119674151Y-80130716D01*
X120323003Y-80131282D01*
X120922680Y-79883501D01*
X121381888Y-79425093D01*
X121630716Y-78825849D01*
X121630718Y-78823003D01*
X139368718Y-78823003D01*
X139616499Y-79422680D01*
X140074907Y-79881888D01*
X140674151Y-80130716D01*
X141323003Y-80131282D01*
X141922680Y-79883501D01*
X142381888Y-79425093D01*
X142630716Y-78825849D01*
X142631282Y-78176997D01*
X142383501Y-77577320D01*
X141925093Y-77118112D01*
X141325849Y-76869284D01*
X140676997Y-76868718D01*
X140077320Y-77116499D01*
X139618112Y-77574907D01*
X139369284Y-78174151D01*
X139368718Y-78823003D01*
X121630718Y-78823003D01*
X121631282Y-78176997D01*
X121383501Y-77577320D01*
X120925093Y-77118112D01*
X120325849Y-76869284D01*
X119676997Y-76868718D01*
X119077320Y-77116499D01*
X118618112Y-77574907D01*
X118369284Y-78174151D01*
X118368718Y-78823003D01*
X114127000Y-78823003D01*
X114127000Y-77474473D01*
X115718847Y-77474473D01*
X115852689Y-77798395D01*
X116100302Y-78046440D01*
X116423989Y-78180847D01*
X116774473Y-78181153D01*
X117098395Y-78047311D01*
X117346440Y-77799698D01*
X117480847Y-77476011D01*
X117481153Y-77125527D01*
X117347311Y-76801605D01*
X117099698Y-76553560D01*
X116776011Y-76419153D01*
X116425527Y-76418847D01*
X116101605Y-76552689D01*
X115853560Y-76800302D01*
X115719153Y-77123989D01*
X115718847Y-77474473D01*
X114127000Y-77474473D01*
X114127000Y-76202416D01*
X129667648Y-76202416D01*
X129976350Y-76949532D01*
X130547462Y-77521641D01*
X131294037Y-77831646D01*
X132102416Y-77832352D01*
X132849532Y-77523650D01*
X132898794Y-77474473D01*
X137518847Y-77474473D01*
X137652689Y-77798395D01*
X137900302Y-78046440D01*
X138223989Y-78180847D01*
X138574473Y-78181153D01*
X138898395Y-78047311D01*
X139146440Y-77799698D01*
X139280847Y-77476011D01*
X139281153Y-77125527D01*
X139147311Y-76801605D01*
X138899698Y-76553560D01*
X138576011Y-76419153D01*
X138225527Y-76418847D01*
X137901605Y-76552689D01*
X137653560Y-76800302D01*
X137519153Y-77123989D01*
X137518847Y-77474473D01*
X132898794Y-77474473D01*
X133421641Y-76952538D01*
X133731646Y-76205963D01*
X133732352Y-75397584D01*
X133718712Y-75364571D01*
X138768856Y-75364571D01*
X138895102Y-75670109D01*
X139128662Y-75904077D01*
X139433979Y-76030855D01*
X139764571Y-76031144D01*
X140070109Y-75904898D01*
X140250109Y-75725212D01*
X140428662Y-75904077D01*
X140733979Y-76030855D01*
X141064571Y-76031144D01*
X141370109Y-75904898D01*
X141604077Y-75671338D01*
X141730855Y-75366021D01*
X141731144Y-75035429D01*
X141604898Y-74729891D01*
X141371338Y-74495923D01*
X141066021Y-74369145D01*
X140735429Y-74368856D01*
X140429891Y-74495102D01*
X140249891Y-74674788D01*
X140071338Y-74495923D01*
X139766021Y-74369145D01*
X139435429Y-74368856D01*
X139129891Y-74495102D01*
X138895923Y-74728662D01*
X138769145Y-75033979D01*
X138768856Y-75364571D01*
X133718712Y-75364571D01*
X133423650Y-74650468D01*
X132852538Y-74078359D01*
X132105963Y-73768354D01*
X131297584Y-73767648D01*
X130550468Y-74076350D01*
X129978359Y-74647462D01*
X129668354Y-75394037D01*
X129667648Y-76202416D01*
X114127000Y-76202416D01*
X114127000Y-72127000D01*
X115418976Y-72127000D01*
X115418847Y-72274473D01*
M02*
