G04 #@! TF.FileFunction,Legend,Top*
%FSLAX46Y46*%
G04 Gerber Fmt 4.6, Leading zero omitted, Abs format (unit mm)*
G04 Created by KiCad (PCBNEW 4.0.2-stable) date 2020-09-29 5:56:50 PM*
%MOMM*%
G01*
G04 APERTURE LIST*
%ADD10C,0.200000*%
%ADD11C,0.120000*%
%ADD12C,0.150000*%
%ADD13C,3.225000*%
%ADD14R,1.850000X1.850000*%
%ADD15C,1.850000*%
%ADD16R,1.650000X2.050000*%
%ADD17R,2.050000X1.550000*%
%ADD18O,2.050000X1.550000*%
%ADD19O,2.550000X4.050000*%
%ADD20O,2.050000X2.550000*%
%ADD21O,3.550000X1.550000*%
%ADD22C,2.550000*%
%ADD23R,2.550000X3.550000*%
%ADD24O,4.650000X1.500000*%
%ADD25O,4.350000X1.150000*%
%ADD26O,1.150000X4.350000*%
%ADD27C,1.150000*%
G04 APERTURE END LIST*
D10*
X138607143Y-148654762D02*
X138750000Y-148702381D01*
X138988096Y-148702381D01*
X139083334Y-148654762D01*
X139130953Y-148607143D01*
X139178572Y-148511905D01*
X139178572Y-148416667D01*
X139130953Y-148321429D01*
X139083334Y-148273810D01*
X138988096Y-148226190D01*
X138797619Y-148178571D01*
X138702381Y-148130952D01*
X138654762Y-148083333D01*
X138607143Y-147988095D01*
X138607143Y-147892857D01*
X138654762Y-147797619D01*
X138702381Y-147750000D01*
X138797619Y-147702381D01*
X139035715Y-147702381D01*
X139178572Y-147750000D01*
X139607143Y-148178571D02*
X139940477Y-148178571D01*
X140083334Y-148702381D02*
X139607143Y-148702381D01*
X139607143Y-147702381D01*
X140083334Y-147702381D01*
X140988096Y-148702381D02*
X140511905Y-148702381D01*
X140511905Y-147702381D01*
X142035715Y-147654762D02*
X141178572Y-148940476D01*
X142321429Y-147797619D02*
X142369048Y-147750000D01*
X142464286Y-147702381D01*
X142702382Y-147702381D01*
X142797620Y-147750000D01*
X142845239Y-147797619D01*
X142892858Y-147892857D01*
X142892858Y-147988095D01*
X142845239Y-148130952D01*
X142273810Y-148702381D01*
X142892858Y-148702381D01*
X112761905Y-148416667D02*
X113238096Y-148416667D01*
X112666667Y-148702381D02*
X113000000Y-147702381D01*
X113333334Y-148702381D01*
X114238096Y-148607143D02*
X114190477Y-148654762D01*
X114047620Y-148702381D01*
X113952382Y-148702381D01*
X113809524Y-148654762D01*
X113714286Y-148559524D01*
X113666667Y-148464286D01*
X113619048Y-148273810D01*
X113619048Y-148130952D01*
X113666667Y-147940476D01*
X113714286Y-147845238D01*
X113809524Y-147750000D01*
X113952382Y-147702381D01*
X114047620Y-147702381D01*
X114190477Y-147750000D01*
X114238096Y-147797619D01*
X115380953Y-147654762D02*
X114523810Y-148940476D01*
X116238096Y-148702381D02*
X115666667Y-148702381D01*
X115952381Y-148702381D02*
X115952381Y-147702381D01*
X115857143Y-147845238D01*
X115761905Y-147940476D01*
X115666667Y-147988095D01*
X139035715Y-135607143D02*
X138988096Y-135654762D01*
X138845239Y-135702381D01*
X138750001Y-135702381D01*
X138607143Y-135654762D01*
X138511905Y-135559524D01*
X138464286Y-135464286D01*
X138416667Y-135273810D01*
X138416667Y-135130952D01*
X138464286Y-134940476D01*
X138511905Y-134845238D01*
X138607143Y-134750000D01*
X138750001Y-134702381D01*
X138845239Y-134702381D01*
X138988096Y-134750000D01*
X139035715Y-134797619D01*
X139464286Y-135702381D02*
X139464286Y-134702381D01*
X139464286Y-135178571D02*
X140035715Y-135178571D01*
X140035715Y-135702381D02*
X140035715Y-134702381D01*
X125630952Y-134702381D02*
X125821429Y-134702381D01*
X125916667Y-134750000D01*
X126011905Y-134845238D01*
X126059524Y-135035714D01*
X126059524Y-135369048D01*
X126011905Y-135559524D01*
X125916667Y-135654762D01*
X125821429Y-135702381D01*
X125630952Y-135702381D01*
X125535714Y-135654762D01*
X125440476Y-135559524D01*
X125392857Y-135369048D01*
X125392857Y-135035714D01*
X125440476Y-134845238D01*
X125535714Y-134750000D01*
X125630952Y-134702381D01*
X126488095Y-135702381D02*
X126488095Y-134702381D01*
X126488095Y-135178571D02*
X127059524Y-135178571D01*
X127059524Y-135702381D02*
X127059524Y-134702381D01*
X113130953Y-135607143D02*
X113083334Y-135654762D01*
X112940477Y-135702381D01*
X112845239Y-135702381D01*
X112702381Y-135654762D01*
X112607143Y-135559524D01*
X112559524Y-135464286D01*
X112511905Y-135273810D01*
X112511905Y-135130952D01*
X112559524Y-134940476D01*
X112607143Y-134845238D01*
X112702381Y-134750000D01*
X112845239Y-134702381D01*
X112940477Y-134702381D01*
X113083334Y-134750000D01*
X113130953Y-134797619D01*
X113750000Y-135226190D02*
X113750000Y-135702381D01*
X113416667Y-134702381D02*
X113750000Y-135226190D01*
X114083334Y-134702381D01*
X139309524Y-122357143D02*
X139261905Y-122404762D01*
X139119048Y-122452381D01*
X139023810Y-122452381D01*
X138880952Y-122404762D01*
X138785714Y-122309524D01*
X138738095Y-122214286D01*
X138690476Y-122023810D01*
X138690476Y-121880952D01*
X138738095Y-121690476D01*
X138785714Y-121595238D01*
X138880952Y-121500000D01*
X139023810Y-121452381D01*
X139119048Y-121452381D01*
X139261905Y-121500000D01*
X139309524Y-121547619D01*
X140071429Y-121928571D02*
X140214286Y-121976190D01*
X140261905Y-122023810D01*
X140309524Y-122119048D01*
X140309524Y-122261905D01*
X140261905Y-122357143D01*
X140214286Y-122404762D01*
X140119048Y-122452381D01*
X139738095Y-122452381D01*
X139738095Y-121452381D01*
X140071429Y-121452381D01*
X140166667Y-121500000D01*
X140214286Y-121547619D01*
X140261905Y-121642857D01*
X140261905Y-121738095D01*
X140214286Y-121833333D01*
X140166667Y-121880952D01*
X140071429Y-121928571D01*
X139738095Y-121928571D01*
X125488095Y-122702381D02*
X125488095Y-121702381D01*
X125821429Y-122416667D01*
X126154762Y-121702381D01*
X126154762Y-122702381D01*
X126583333Y-122416667D02*
X127059524Y-122416667D01*
X126488095Y-122702381D02*
X126821428Y-121702381D01*
X127154762Y-122702381D01*
X113309524Y-122607143D02*
X113261905Y-122654762D01*
X113119048Y-122702381D01*
X113023810Y-122702381D01*
X112880952Y-122654762D01*
X112785714Y-122559524D01*
X112738095Y-122464286D01*
X112690476Y-122273810D01*
X112690476Y-122130952D01*
X112738095Y-121940476D01*
X112785714Y-121845238D01*
X112880952Y-121750000D01*
X113023810Y-121702381D01*
X113119048Y-121702381D01*
X113261905Y-121750000D01*
X113309524Y-121797619D01*
X113738095Y-122702381D02*
X113738095Y-121702381D01*
X114119048Y-121702381D01*
X114214286Y-121750000D01*
X114261905Y-121797619D01*
X114309524Y-121892857D01*
X114309524Y-122035714D01*
X114261905Y-122130952D01*
X114214286Y-122178571D01*
X114119048Y-122226190D01*
X113738095Y-122226190D01*
X139154762Y-109702381D02*
X138821428Y-109226190D01*
X138583333Y-109702381D02*
X138583333Y-108702381D01*
X138964286Y-108702381D01*
X139059524Y-108750000D01*
X139107143Y-108797619D01*
X139154762Y-108892857D01*
X139154762Y-109035714D01*
X139107143Y-109130952D01*
X139059524Y-109178571D01*
X138964286Y-109226190D01*
X138583333Y-109226190D01*
X139535714Y-109654762D02*
X139678571Y-109702381D01*
X139916667Y-109702381D01*
X140011905Y-109654762D01*
X140059524Y-109607143D01*
X140107143Y-109511905D01*
X140107143Y-109416667D01*
X140059524Y-109321429D01*
X140011905Y-109273810D01*
X139916667Y-109226190D01*
X139726190Y-109178571D01*
X139630952Y-109130952D01*
X139583333Y-109083333D01*
X139535714Y-108988095D01*
X139535714Y-108892857D01*
X139583333Y-108797619D01*
X139630952Y-108750000D01*
X139726190Y-108702381D01*
X139964286Y-108702381D01*
X140107143Y-108750000D01*
X141250000Y-108654762D02*
X140392857Y-109940476D01*
X142154762Y-109607143D02*
X142107143Y-109654762D01*
X141964286Y-109702381D01*
X141869048Y-109702381D01*
X141726190Y-109654762D01*
X141630952Y-109559524D01*
X141583333Y-109464286D01*
X141535714Y-109273810D01*
X141535714Y-109130952D01*
X141583333Y-108940476D01*
X141630952Y-108845238D01*
X141726190Y-108750000D01*
X141869048Y-108702381D01*
X141964286Y-108702381D01*
X142107143Y-108750000D01*
X142154762Y-108797619D01*
X143059524Y-109702381D02*
X142583333Y-109702381D01*
X142583333Y-108702381D01*
X125785714Y-109702381D02*
X125785714Y-108702381D01*
X125785714Y-109178571D02*
X126357143Y-109178571D01*
X126357143Y-109702381D02*
X126357143Y-108702381D01*
X126690476Y-108702381D02*
X127261905Y-108702381D01*
X126976190Y-109702381D02*
X126976190Y-108702381D01*
X128309524Y-108654762D02*
X127452381Y-109940476D01*
X128642857Y-109702381D02*
X128642857Y-108702381D01*
X128642857Y-109178571D02*
X129214286Y-109178571D01*
X129214286Y-109702381D02*
X129214286Y-108702381D01*
X130261905Y-109607143D02*
X130214286Y-109654762D01*
X130071429Y-109702381D01*
X129976191Y-109702381D01*
X129833333Y-109654762D01*
X129738095Y-109559524D01*
X129690476Y-109464286D01*
X129642857Y-109273810D01*
X129642857Y-109130952D01*
X129690476Y-108940476D01*
X129738095Y-108845238D01*
X129833333Y-108750000D01*
X129976191Y-108702381D01*
X130071429Y-108702381D01*
X130214286Y-108750000D01*
X130261905Y-108797619D01*
X112690476Y-109702381D02*
X112690476Y-108702381D01*
X113023810Y-109416667D01*
X113357143Y-108702381D01*
X113357143Y-109702381D01*
X113690476Y-108702381D02*
X114261905Y-108702381D01*
X113976190Y-109702381D02*
X113976190Y-108702381D01*
X115309524Y-108654762D02*
X114452381Y-109940476D01*
X115642857Y-109702381D02*
X115642857Y-108702381D01*
X115976191Y-109416667D01*
X116309524Y-108702381D01*
X116309524Y-109702381D01*
X117357143Y-109607143D02*
X117309524Y-109654762D01*
X117166667Y-109702381D01*
X117071429Y-109702381D01*
X116928571Y-109654762D01*
X116833333Y-109559524D01*
X116785714Y-109464286D01*
X116738095Y-109273810D01*
X116738095Y-109130952D01*
X116785714Y-108940476D01*
X116833333Y-108845238D01*
X116928571Y-108750000D01*
X117071429Y-108702381D01*
X117166667Y-108702381D01*
X117309524Y-108750000D01*
X117357143Y-108797619D01*
X139250000Y-96702381D02*
X138773809Y-96702381D01*
X138773809Y-95702381D01*
X139440476Y-95702381D02*
X140011905Y-95702381D01*
X139726190Y-96702381D02*
X139726190Y-95702381D01*
X141059524Y-95654762D02*
X140202381Y-96940476D01*
X141869048Y-96702381D02*
X141392857Y-96702381D01*
X141392857Y-95702381D01*
X142773810Y-96607143D02*
X142726191Y-96654762D01*
X142583334Y-96702381D01*
X142488096Y-96702381D01*
X142345238Y-96654762D01*
X142250000Y-96559524D01*
X142202381Y-96464286D01*
X142154762Y-96273810D01*
X142154762Y-96130952D01*
X142202381Y-95940476D01*
X142250000Y-95845238D01*
X142345238Y-95750000D01*
X142488096Y-95702381D01*
X142583334Y-95702381D01*
X142726191Y-95750000D01*
X142773810Y-95797619D01*
X125464286Y-96654762D02*
X125607143Y-96702381D01*
X125845239Y-96702381D01*
X125940477Y-96654762D01*
X125988096Y-96607143D01*
X126035715Y-96511905D01*
X126035715Y-96416667D01*
X125988096Y-96321429D01*
X125940477Y-96273810D01*
X125845239Y-96226190D01*
X125654762Y-96178571D01*
X125559524Y-96130952D01*
X125511905Y-96083333D01*
X125464286Y-95988095D01*
X125464286Y-95892857D01*
X125511905Y-95797619D01*
X125559524Y-95750000D01*
X125654762Y-95702381D01*
X125892858Y-95702381D01*
X126035715Y-95750000D01*
X126464286Y-96702381D02*
X126464286Y-95702381D01*
X126702381Y-95702381D01*
X126845239Y-95750000D01*
X126940477Y-95845238D01*
X126988096Y-95940476D01*
X127035715Y-96130952D01*
X127035715Y-96273810D01*
X126988096Y-96464286D01*
X126940477Y-96559524D01*
X126845239Y-96654762D01*
X126702381Y-96702381D01*
X126464286Y-96702381D01*
X137571429Y-67857143D02*
X137523810Y-67904762D01*
X137380953Y-67952381D01*
X137285715Y-67952381D01*
X137142857Y-67904762D01*
X137047619Y-67809524D01*
X137000000Y-67714286D01*
X136952381Y-67523810D01*
X136952381Y-67380952D01*
X137000000Y-67190476D01*
X137047619Y-67095238D01*
X137142857Y-67000000D01*
X137285715Y-66952381D01*
X137380953Y-66952381D01*
X137523810Y-67000000D01*
X137571429Y-67047619D01*
X138476191Y-67952381D02*
X138000000Y-67952381D01*
X138000000Y-66952381D01*
X139000000Y-66952381D02*
X139190477Y-66952381D01*
X139285715Y-67000000D01*
X139380953Y-67095238D01*
X139428572Y-67285714D01*
X139428572Y-67619048D01*
X139380953Y-67809524D01*
X139285715Y-67904762D01*
X139190477Y-67952381D01*
X139000000Y-67952381D01*
X138904762Y-67904762D01*
X138809524Y-67809524D01*
X138761905Y-67619048D01*
X138761905Y-67285714D01*
X138809524Y-67095238D01*
X138904762Y-67000000D01*
X139000000Y-66952381D01*
X140428572Y-67857143D02*
X140380953Y-67904762D01*
X140238096Y-67952381D01*
X140142858Y-67952381D01*
X140000000Y-67904762D01*
X139904762Y-67809524D01*
X139857143Y-67714286D01*
X139809524Y-67523810D01*
X139809524Y-67380952D01*
X139857143Y-67190476D01*
X139904762Y-67095238D01*
X140000000Y-67000000D01*
X140142858Y-66952381D01*
X140238096Y-66952381D01*
X140380953Y-67000000D01*
X140428572Y-67047619D01*
X140857143Y-67952381D02*
X140857143Y-66952381D01*
X141428572Y-67952381D02*
X141000000Y-67380952D01*
X141428572Y-66952381D02*
X140857143Y-67523810D01*
X142809524Y-66952381D02*
X143000001Y-66952381D01*
X143095239Y-67000000D01*
X143190477Y-67095238D01*
X143238096Y-67285714D01*
X143238096Y-67619048D01*
X143190477Y-67809524D01*
X143095239Y-67904762D01*
X143000001Y-67952381D01*
X142809524Y-67952381D01*
X142714286Y-67904762D01*
X142619048Y-67809524D01*
X142571429Y-67619048D01*
X142571429Y-67285714D01*
X142619048Y-67095238D01*
X142714286Y-67000000D01*
X142809524Y-66952381D01*
X143666667Y-66952381D02*
X143666667Y-67761905D01*
X143714286Y-67857143D01*
X143761905Y-67904762D01*
X143857143Y-67952381D01*
X144047620Y-67952381D01*
X144142858Y-67904762D01*
X144190477Y-67857143D01*
X144238096Y-67761905D01*
X144238096Y-66952381D01*
X144571429Y-66952381D02*
X145142858Y-66952381D01*
X144857143Y-67952381D02*
X144857143Y-66952381D01*
X113071429Y-96178571D02*
X113214286Y-96226190D01*
X113261905Y-96273810D01*
X113309524Y-96369048D01*
X113309524Y-96511905D01*
X113261905Y-96607143D01*
X113214286Y-96654762D01*
X113119048Y-96702381D01*
X112738095Y-96702381D01*
X112738095Y-95702381D01*
X113071429Y-95702381D01*
X113166667Y-95750000D01*
X113214286Y-95797619D01*
X113261905Y-95892857D01*
X113261905Y-95988095D01*
X113214286Y-96083333D01*
X113166667Y-96130952D01*
X113071429Y-96178571D01*
X112738095Y-96178571D01*
X113738095Y-96702381D02*
X113738095Y-95702381D01*
X113976190Y-95702381D01*
X114119048Y-95750000D01*
X114214286Y-95845238D01*
X114261905Y-95940476D01*
X114309524Y-96130952D01*
X114309524Y-96273810D01*
X114261905Y-96464286D01*
X114214286Y-96559524D01*
X114119048Y-96654762D01*
X113976190Y-96702381D01*
X113738095Y-96702381D01*
X116857143Y-68202381D02*
X116523809Y-67726190D01*
X116285714Y-68202381D02*
X116285714Y-67202381D01*
X116666667Y-67202381D01*
X116761905Y-67250000D01*
X116809524Y-67297619D01*
X116857143Y-67392857D01*
X116857143Y-67535714D01*
X116809524Y-67630952D01*
X116761905Y-67678571D01*
X116666667Y-67726190D01*
X116285714Y-67726190D01*
X117285714Y-67202381D02*
X117285714Y-68011905D01*
X117333333Y-68107143D01*
X117380952Y-68154762D01*
X117476190Y-68202381D01*
X117666667Y-68202381D01*
X117761905Y-68154762D01*
X117809524Y-68107143D01*
X117857143Y-68011905D01*
X117857143Y-67202381D01*
X118333333Y-68202381D02*
X118333333Y-67202381D01*
X118904762Y-68202381D01*
X118904762Y-67202381D01*
X120095238Y-67154762D02*
X119238095Y-68440476D01*
X120380952Y-68154762D02*
X120523809Y-68202381D01*
X120761905Y-68202381D01*
X120857143Y-68154762D01*
X120904762Y-68107143D01*
X120952381Y-68011905D01*
X120952381Y-67916667D01*
X120904762Y-67821429D01*
X120857143Y-67773810D01*
X120761905Y-67726190D01*
X120571428Y-67678571D01*
X120476190Y-67630952D01*
X120428571Y-67583333D01*
X120380952Y-67488095D01*
X120380952Y-67392857D01*
X120428571Y-67297619D01*
X120476190Y-67250000D01*
X120571428Y-67202381D01*
X120809524Y-67202381D01*
X120952381Y-67250000D01*
X121238095Y-67202381D02*
X121809524Y-67202381D01*
X121523809Y-68202381D02*
X121523809Y-67202381D01*
X122333333Y-67202381D02*
X122523810Y-67202381D01*
X122619048Y-67250000D01*
X122714286Y-67345238D01*
X122761905Y-67535714D01*
X122761905Y-67869048D01*
X122714286Y-68059524D01*
X122619048Y-68154762D01*
X122523810Y-68202381D01*
X122333333Y-68202381D01*
X122238095Y-68154762D01*
X122142857Y-68059524D01*
X122095238Y-67869048D01*
X122095238Y-67535714D01*
X122142857Y-67345238D01*
X122238095Y-67250000D01*
X122333333Y-67202381D01*
X123190476Y-68202381D02*
X123190476Y-67202381D01*
X123571429Y-67202381D01*
X123666667Y-67250000D01*
X123714286Y-67297619D01*
X123761905Y-67392857D01*
X123761905Y-67535714D01*
X123714286Y-67630952D01*
X123666667Y-67678571D01*
X123571429Y-67726190D01*
X123190476Y-67726190D01*
X137880953Y-91952381D02*
X137880953Y-90952381D01*
X138214287Y-91666667D01*
X138547620Y-90952381D01*
X138547620Y-91952381D01*
X139023810Y-91952381D02*
X139023810Y-90952381D01*
X139500000Y-91952381D02*
X139500000Y-90952381D01*
X139738095Y-90952381D01*
X139880953Y-91000000D01*
X139976191Y-91095238D01*
X140023810Y-91190476D01*
X140071429Y-91380952D01*
X140071429Y-91523810D01*
X140023810Y-91714286D01*
X139976191Y-91809524D01*
X139880953Y-91904762D01*
X139738095Y-91952381D01*
X139500000Y-91952381D01*
X140500000Y-91952381D02*
X140500000Y-90952381D01*
X141928571Y-90952381D02*
X142119048Y-90952381D01*
X142214286Y-91000000D01*
X142309524Y-91095238D01*
X142357143Y-91285714D01*
X142357143Y-91619048D01*
X142309524Y-91809524D01*
X142214286Y-91904762D01*
X142119048Y-91952381D01*
X141928571Y-91952381D01*
X141833333Y-91904762D01*
X141738095Y-91809524D01*
X141690476Y-91619048D01*
X141690476Y-91285714D01*
X141738095Y-91095238D01*
X141833333Y-91000000D01*
X141928571Y-90952381D01*
X142785714Y-90952381D02*
X142785714Y-91761905D01*
X142833333Y-91857143D01*
X142880952Y-91904762D01*
X142976190Y-91952381D01*
X143166667Y-91952381D01*
X143261905Y-91904762D01*
X143309524Y-91857143D01*
X143357143Y-91761905D01*
X143357143Y-90952381D01*
X143690476Y-90952381D02*
X144261905Y-90952381D01*
X143976190Y-91952381D02*
X143976190Y-90952381D01*
X117309524Y-91904762D02*
X117452381Y-91952381D01*
X117690477Y-91952381D01*
X117785715Y-91904762D01*
X117833334Y-91857143D01*
X117880953Y-91761905D01*
X117880953Y-91666667D01*
X117833334Y-91571429D01*
X117785715Y-91523810D01*
X117690477Y-91476190D01*
X117500000Y-91428571D01*
X117404762Y-91380952D01*
X117357143Y-91333333D01*
X117309524Y-91238095D01*
X117309524Y-91142857D01*
X117357143Y-91047619D01*
X117404762Y-91000000D01*
X117500000Y-90952381D01*
X117738096Y-90952381D01*
X117880953Y-91000000D01*
X118500000Y-91476190D02*
X118500000Y-91952381D01*
X118166667Y-90952381D02*
X118500000Y-91476190D01*
X118833334Y-90952381D01*
X119166667Y-91952381D02*
X119166667Y-90952381D01*
X119738096Y-91952381D01*
X119738096Y-90952381D01*
X120785715Y-91857143D02*
X120738096Y-91904762D01*
X120595239Y-91952381D01*
X120500001Y-91952381D01*
X120357143Y-91904762D01*
X120261905Y-91809524D01*
X120214286Y-91714286D01*
X120166667Y-91523810D01*
X120166667Y-91380952D01*
X120214286Y-91190476D01*
X120261905Y-91095238D01*
X120357143Y-91000000D01*
X120500001Y-90952381D01*
X120595239Y-90952381D01*
X120738096Y-91000000D01*
X120785715Y-91047619D01*
X121166667Y-91047619D02*
X121214286Y-91000000D01*
X121309524Y-90952381D01*
X121547620Y-90952381D01*
X121642858Y-91000000D01*
X121690477Y-91047619D01*
X121738096Y-91142857D01*
X121738096Y-91238095D01*
X121690477Y-91380952D01*
X121119048Y-91952381D01*
X121738096Y-91952381D01*
X122595239Y-91285714D02*
X122595239Y-91952381D01*
X122357143Y-90904762D02*
X122119048Y-91619048D01*
X122738096Y-91619048D01*
D11*
X131578608Y-156692335D02*
G75*
G03X131735516Y-153460000I-1078608J1672335D01*
G01*
X129421392Y-156692335D02*
G75*
G02X129264484Y-153460000I1078608J1672335D01*
G01*
X131579837Y-156061130D02*
G75*
G03X131580000Y-153979039I-1079837J1041130D01*
G01*
X129420163Y-156061130D02*
G75*
G02X129420000Y-153979039I1079837J1041130D01*
G01*
X131736000Y-153460000D02*
X131580000Y-153460000D01*
X129420000Y-153460000D02*
X129264000Y-153460000D01*
D12*
X122915476Y-61000000D02*
G75*
G03X122915476Y-61000000I-2915476J0D01*
G01*
X125000000Y-66000000D02*
X115000000Y-66000000D01*
X115000000Y-66000000D02*
X115000000Y-55000000D01*
X115000000Y-55000000D02*
X125000000Y-55000000D01*
X125000000Y-55000000D02*
X125000000Y-66000000D01*
X122000000Y-61000000D02*
G75*
G03X122000000Y-61000000I-2000000J0D01*
G01*
X143915476Y-61000000D02*
G75*
G03X143915476Y-61000000I-2915476J0D01*
G01*
X146000000Y-66000000D02*
X136000000Y-66000000D01*
X136000000Y-66000000D02*
X136000000Y-55000000D01*
X136000000Y-55000000D02*
X146000000Y-55000000D01*
X146000000Y-55000000D02*
X146000000Y-66000000D01*
X143000000Y-61000000D02*
G75*
G03X143000000Y-61000000I-2000000J0D01*
G01*
X120415476Y-155000000D02*
G75*
G03X120415476Y-155000000I-2915476J0D01*
G01*
X122500000Y-160000000D02*
X112500000Y-160000000D01*
X112500000Y-160000000D02*
X112500000Y-149000000D01*
X112500000Y-149000000D02*
X122500000Y-149000000D01*
X122500000Y-149000000D02*
X122500000Y-160000000D01*
X119500000Y-155000000D02*
G75*
G03X119500000Y-155000000I-2000000J0D01*
G01*
X146415476Y-155000000D02*
G75*
G03X146415476Y-155000000I-2915476J0D01*
G01*
X148500000Y-160000000D02*
X138500000Y-160000000D01*
X138500000Y-160000000D02*
X138500000Y-149000000D01*
X138500000Y-149000000D02*
X148500000Y-149000000D01*
X148500000Y-149000000D02*
X148500000Y-160000000D01*
X145500000Y-155000000D02*
G75*
G03X145500000Y-155000000I-2000000J0D01*
G01*
X120415476Y-103000000D02*
G75*
G03X120415476Y-103000000I-2915476J0D01*
G01*
X122500000Y-108000000D02*
X112500000Y-108000000D01*
X112500000Y-108000000D02*
X112500000Y-97000000D01*
X112500000Y-97000000D02*
X122500000Y-97000000D01*
X122500000Y-97000000D02*
X122500000Y-108000000D01*
X119500000Y-103000000D02*
G75*
G03X119500000Y-103000000I-2000000J0D01*
G01*
X133415476Y-103000000D02*
G75*
G03X133415476Y-103000000I-2915476J0D01*
G01*
X135500000Y-108000000D02*
X125500000Y-108000000D01*
X125500000Y-108000000D02*
X125500000Y-97000000D01*
X125500000Y-97000000D02*
X135500000Y-97000000D01*
X135500000Y-97000000D02*
X135500000Y-108000000D01*
X132500000Y-103000000D02*
G75*
G03X132500000Y-103000000I-2000000J0D01*
G01*
X146415476Y-103000000D02*
G75*
G03X146415476Y-103000000I-2915476J0D01*
G01*
X148500000Y-108000000D02*
X138500000Y-108000000D01*
X138500000Y-108000000D02*
X138500000Y-97000000D01*
X138500000Y-97000000D02*
X148500000Y-97000000D01*
X148500000Y-97000000D02*
X148500000Y-108000000D01*
X145500000Y-103000000D02*
G75*
G03X145500000Y-103000000I-2000000J0D01*
G01*
X120415476Y-116000000D02*
G75*
G03X120415476Y-116000000I-2915476J0D01*
G01*
X122500000Y-121000000D02*
X112500000Y-121000000D01*
X112500000Y-121000000D02*
X112500000Y-110000000D01*
X112500000Y-110000000D02*
X122500000Y-110000000D01*
X122500000Y-110000000D02*
X122500000Y-121000000D01*
X119500000Y-116000000D02*
G75*
G03X119500000Y-116000000I-2000000J0D01*
G01*
X133415476Y-116000000D02*
G75*
G03X133415476Y-116000000I-2915476J0D01*
G01*
X135500000Y-121000000D02*
X125500000Y-121000000D01*
X125500000Y-121000000D02*
X125500000Y-110000000D01*
X125500000Y-110000000D02*
X135500000Y-110000000D01*
X135500000Y-110000000D02*
X135500000Y-121000000D01*
X132500000Y-116000000D02*
G75*
G03X132500000Y-116000000I-2000000J0D01*
G01*
X146415476Y-116000000D02*
G75*
G03X146415476Y-116000000I-2915476J0D01*
G01*
X148500000Y-121000000D02*
X138500000Y-121000000D01*
X138500000Y-121000000D02*
X138500000Y-110000000D01*
X138500000Y-110000000D02*
X148500000Y-110000000D01*
X148500000Y-110000000D02*
X148500000Y-121000000D01*
X145500000Y-116000000D02*
G75*
G03X145500000Y-116000000I-2000000J0D01*
G01*
X120415476Y-129000000D02*
G75*
G03X120415476Y-129000000I-2915476J0D01*
G01*
X122500000Y-134000000D02*
X112500000Y-134000000D01*
X112500000Y-134000000D02*
X112500000Y-123000000D01*
X112500000Y-123000000D02*
X122500000Y-123000000D01*
X122500000Y-123000000D02*
X122500000Y-134000000D01*
X119500000Y-129000000D02*
G75*
G03X119500000Y-129000000I-2000000J0D01*
G01*
X133415476Y-129000000D02*
G75*
G03X133415476Y-129000000I-2915476J0D01*
G01*
X135500000Y-134000000D02*
X125500000Y-134000000D01*
X125500000Y-134000000D02*
X125500000Y-123000000D01*
X125500000Y-123000000D02*
X135500000Y-123000000D01*
X135500000Y-123000000D02*
X135500000Y-134000000D01*
X132500000Y-129000000D02*
G75*
G03X132500000Y-129000000I-2000000J0D01*
G01*
X146415476Y-129000000D02*
G75*
G03X146415476Y-129000000I-2915476J0D01*
G01*
X148500000Y-134000000D02*
X138500000Y-134000000D01*
X138500000Y-134000000D02*
X138500000Y-123000000D01*
X138500000Y-123000000D02*
X148500000Y-123000000D01*
X148500000Y-123000000D02*
X148500000Y-134000000D01*
X145500000Y-129000000D02*
G75*
G03X145500000Y-129000000I-2000000J0D01*
G01*
X120415476Y-142000000D02*
G75*
G03X120415476Y-142000000I-2915476J0D01*
G01*
X122500000Y-147000000D02*
X112500000Y-147000000D01*
X112500000Y-147000000D02*
X112500000Y-136000000D01*
X112500000Y-136000000D02*
X122500000Y-136000000D01*
X122500000Y-136000000D02*
X122500000Y-147000000D01*
X119500000Y-142000000D02*
G75*
G03X119500000Y-142000000I-2000000J0D01*
G01*
X133415476Y-142000000D02*
G75*
G03X133415476Y-142000000I-2915476J0D01*
G01*
X135500000Y-147000000D02*
X125500000Y-147000000D01*
X125500000Y-147000000D02*
X125500000Y-136000000D01*
X125500000Y-136000000D02*
X135500000Y-136000000D01*
X135500000Y-136000000D02*
X135500000Y-147000000D01*
X132500000Y-142000000D02*
G75*
G03X132500000Y-142000000I-2000000J0D01*
G01*
X146415476Y-142000000D02*
G75*
G03X146415476Y-142000000I-2915476J0D01*
G01*
X148500000Y-147000000D02*
X138500000Y-147000000D01*
X138500000Y-147000000D02*
X138500000Y-136000000D01*
X138500000Y-136000000D02*
X148500000Y-136000000D01*
X148500000Y-136000000D02*
X148500000Y-147000000D01*
X145500000Y-142000000D02*
G75*
G03X145500000Y-142000000I-2000000J0D01*
G01*
X125500000Y-83000000D02*
G75*
G03X125500000Y-83000000I-5500000J0D01*
G01*
X127500000Y-83000000D02*
G75*
G03X127500000Y-83000000I-7500000J0D01*
G01*
X146500000Y-83000000D02*
G75*
G03X146500000Y-83000000I-5500000J0D01*
G01*
X148500000Y-83000000D02*
G75*
G03X148500000Y-83000000I-7500000J0D01*
G01*
X133912381Y-156234286D02*
X132912381Y-156234286D01*
X132912381Y-155996191D01*
X132960000Y-155853333D01*
X133055238Y-155758095D01*
X133150476Y-155710476D01*
X133340952Y-155662857D01*
X133483810Y-155662857D01*
X133674286Y-155710476D01*
X133769524Y-155758095D01*
X133864762Y-155853333D01*
X133912381Y-155996191D01*
X133912381Y-156234286D01*
X133912381Y-154710476D02*
X133912381Y-155281905D01*
X133912381Y-154996191D02*
X132912381Y-154996191D01*
X133055238Y-155091429D01*
X133150476Y-155186667D01*
X133198095Y-155281905D01*
X133340952Y-154139048D02*
X133293333Y-154234286D01*
X133245714Y-154281905D01*
X133150476Y-154329524D01*
X133102857Y-154329524D01*
X133007619Y-154281905D01*
X132960000Y-154234286D01*
X132912381Y-154139048D01*
X132912381Y-153948571D01*
X132960000Y-153853333D01*
X133007619Y-153805714D01*
X133102857Y-153758095D01*
X133150476Y-153758095D01*
X133245714Y-153805714D01*
X133293333Y-153853333D01*
X133340952Y-153948571D01*
X133340952Y-154139048D01*
X133388571Y-154234286D01*
X133436190Y-154281905D01*
X133531429Y-154329524D01*
X133721905Y-154329524D01*
X133817143Y-154281905D01*
X133864762Y-154234286D01*
X133912381Y-154139048D01*
X133912381Y-153948571D01*
X133864762Y-153853333D01*
X133817143Y-153805714D01*
X133721905Y-153758095D01*
X133531429Y-153758095D01*
X133436190Y-153805714D01*
X133388571Y-153853333D01*
X133340952Y-153948571D01*
X123250000Y-64178571D02*
X123250000Y-65250000D01*
X123178572Y-65464286D01*
X123035715Y-65607143D01*
X122821429Y-65678571D01*
X122678572Y-65678571D01*
X124750000Y-65678571D02*
X123892857Y-65678571D01*
X124321429Y-65678571D02*
X124321429Y-64178571D01*
X124178572Y-64392857D01*
X124035714Y-64535714D01*
X123892857Y-64607143D01*
X144000000Y-64178571D02*
X144000000Y-65250000D01*
X143928572Y-65464286D01*
X143785715Y-65607143D01*
X143571429Y-65678571D01*
X143428572Y-65678571D01*
X144642857Y-64321429D02*
X144714286Y-64250000D01*
X144857143Y-64178571D01*
X145214286Y-64178571D01*
X145357143Y-64250000D01*
X145428572Y-64321429D01*
X145500000Y-64464286D01*
X145500000Y-64607143D01*
X145428572Y-64821429D01*
X144571429Y-65678571D01*
X145500000Y-65678571D01*
X121166667Y-158702381D02*
X121166667Y-159416667D01*
X121119047Y-159559524D01*
X121023809Y-159654762D01*
X120880952Y-159702381D01*
X120785714Y-159702381D01*
X121547619Y-158702381D02*
X122166667Y-158702381D01*
X121833333Y-159083333D01*
X121976191Y-159083333D01*
X122071429Y-159130952D01*
X122119048Y-159178571D01*
X122166667Y-159273810D01*
X122166667Y-159511905D01*
X122119048Y-159607143D01*
X122071429Y-159654762D01*
X121976191Y-159702381D01*
X121690476Y-159702381D01*
X121595238Y-159654762D01*
X121547619Y-159607143D01*
X147166667Y-158702381D02*
X147166667Y-159416667D01*
X147119047Y-159559524D01*
X147023809Y-159654762D01*
X146880952Y-159702381D01*
X146785714Y-159702381D01*
X148071429Y-159035714D02*
X148071429Y-159702381D01*
X147833333Y-158654762D02*
X147595238Y-159369048D01*
X148214286Y-159369048D01*
X120666667Y-106452381D02*
X120666667Y-107166667D01*
X120619047Y-107309524D01*
X120523809Y-107404762D01*
X120380952Y-107452381D01*
X120285714Y-107452381D01*
X121619048Y-106452381D02*
X121142857Y-106452381D01*
X121095238Y-106928571D01*
X121142857Y-106880952D01*
X121238095Y-106833333D01*
X121476191Y-106833333D01*
X121571429Y-106880952D01*
X121619048Y-106928571D01*
X121666667Y-107023810D01*
X121666667Y-107261905D01*
X121619048Y-107357143D01*
X121571429Y-107404762D01*
X121476191Y-107452381D01*
X121238095Y-107452381D01*
X121142857Y-107404762D01*
X121095238Y-107357143D01*
X133916667Y-106452381D02*
X133916667Y-107166667D01*
X133869047Y-107309524D01*
X133773809Y-107404762D01*
X133630952Y-107452381D01*
X133535714Y-107452381D01*
X134821429Y-106452381D02*
X134630952Y-106452381D01*
X134535714Y-106500000D01*
X134488095Y-106547619D01*
X134392857Y-106690476D01*
X134345238Y-106880952D01*
X134345238Y-107261905D01*
X134392857Y-107357143D01*
X134440476Y-107404762D01*
X134535714Y-107452381D01*
X134726191Y-107452381D01*
X134821429Y-107404762D01*
X134869048Y-107357143D01*
X134916667Y-107261905D01*
X134916667Y-107023810D01*
X134869048Y-106928571D01*
X134821429Y-106880952D01*
X134726191Y-106833333D01*
X134535714Y-106833333D01*
X134440476Y-106880952D01*
X134392857Y-106928571D01*
X134345238Y-107023810D01*
X146916667Y-106452381D02*
X146916667Y-107166667D01*
X146869047Y-107309524D01*
X146773809Y-107404762D01*
X146630952Y-107452381D01*
X146535714Y-107452381D01*
X147297619Y-106452381D02*
X147964286Y-106452381D01*
X147535714Y-107452381D01*
X120916667Y-119452381D02*
X120916667Y-120166667D01*
X120869047Y-120309524D01*
X120773809Y-120404762D01*
X120630952Y-120452381D01*
X120535714Y-120452381D01*
X121535714Y-119880952D02*
X121440476Y-119833333D01*
X121392857Y-119785714D01*
X121345238Y-119690476D01*
X121345238Y-119642857D01*
X121392857Y-119547619D01*
X121440476Y-119500000D01*
X121535714Y-119452381D01*
X121726191Y-119452381D01*
X121821429Y-119500000D01*
X121869048Y-119547619D01*
X121916667Y-119642857D01*
X121916667Y-119690476D01*
X121869048Y-119785714D01*
X121821429Y-119833333D01*
X121726191Y-119880952D01*
X121535714Y-119880952D01*
X121440476Y-119928571D01*
X121392857Y-119976190D01*
X121345238Y-120071429D01*
X121345238Y-120261905D01*
X121392857Y-120357143D01*
X121440476Y-120404762D01*
X121535714Y-120452381D01*
X121726191Y-120452381D01*
X121821429Y-120404762D01*
X121869048Y-120357143D01*
X121916667Y-120261905D01*
X121916667Y-120071429D01*
X121869048Y-119976190D01*
X121821429Y-119928571D01*
X121726191Y-119880952D01*
X133916667Y-119452381D02*
X133916667Y-120166667D01*
X133869047Y-120309524D01*
X133773809Y-120404762D01*
X133630952Y-120452381D01*
X133535714Y-120452381D01*
X134440476Y-120452381D02*
X134630952Y-120452381D01*
X134726191Y-120404762D01*
X134773810Y-120357143D01*
X134869048Y-120214286D01*
X134916667Y-120023810D01*
X134916667Y-119642857D01*
X134869048Y-119547619D01*
X134821429Y-119500000D01*
X134726191Y-119452381D01*
X134535714Y-119452381D01*
X134440476Y-119500000D01*
X134392857Y-119547619D01*
X134345238Y-119642857D01*
X134345238Y-119880952D01*
X134392857Y-119976190D01*
X134440476Y-120023810D01*
X134535714Y-120071429D01*
X134726191Y-120071429D01*
X134821429Y-120023810D01*
X134869048Y-119976190D01*
X134916667Y-119880952D01*
X145690477Y-119452381D02*
X145690477Y-120166667D01*
X145642857Y-120309524D01*
X145547619Y-120404762D01*
X145404762Y-120452381D01*
X145309524Y-120452381D01*
X146690477Y-120452381D02*
X146119048Y-120452381D01*
X146404762Y-120452381D02*
X146404762Y-119452381D01*
X146309524Y-119595238D01*
X146214286Y-119690476D01*
X146119048Y-119738095D01*
X147309524Y-119452381D02*
X147404763Y-119452381D01*
X147500001Y-119500000D01*
X147547620Y-119547619D01*
X147595239Y-119642857D01*
X147642858Y-119833333D01*
X147642858Y-120071429D01*
X147595239Y-120261905D01*
X147547620Y-120357143D01*
X147500001Y-120404762D01*
X147404763Y-120452381D01*
X147309524Y-120452381D01*
X147214286Y-120404762D01*
X147166667Y-120357143D01*
X147119048Y-120261905D01*
X147071429Y-120071429D01*
X147071429Y-119833333D01*
X147119048Y-119642857D01*
X147166667Y-119547619D01*
X147214286Y-119500000D01*
X147309524Y-119452381D01*
X120190477Y-132452381D02*
X120190477Y-133166667D01*
X120142857Y-133309524D01*
X120047619Y-133404762D01*
X119904762Y-133452381D01*
X119809524Y-133452381D01*
X121190477Y-133452381D02*
X120619048Y-133452381D01*
X120904762Y-133452381D02*
X120904762Y-132452381D01*
X120809524Y-132595238D01*
X120714286Y-132690476D01*
X120619048Y-132738095D01*
X122142858Y-133452381D02*
X121571429Y-133452381D01*
X121857143Y-133452381D02*
X121857143Y-132452381D01*
X121761905Y-132595238D01*
X121666667Y-132690476D01*
X121571429Y-132738095D01*
X133190477Y-132452381D02*
X133190477Y-133166667D01*
X133142857Y-133309524D01*
X133047619Y-133404762D01*
X132904762Y-133452381D01*
X132809524Y-133452381D01*
X134190477Y-133452381D02*
X133619048Y-133452381D01*
X133904762Y-133452381D02*
X133904762Y-132452381D01*
X133809524Y-132595238D01*
X133714286Y-132690476D01*
X133619048Y-132738095D01*
X134571429Y-132547619D02*
X134619048Y-132500000D01*
X134714286Y-132452381D01*
X134952382Y-132452381D01*
X135047620Y-132500000D01*
X135095239Y-132547619D01*
X135142858Y-132642857D01*
X135142858Y-132738095D01*
X135095239Y-132880952D01*
X134523810Y-133452381D01*
X135142858Y-133452381D01*
X146190477Y-132452381D02*
X146190477Y-133166667D01*
X146142857Y-133309524D01*
X146047619Y-133404762D01*
X145904762Y-133452381D01*
X145809524Y-133452381D01*
X147190477Y-133452381D02*
X146619048Y-133452381D01*
X146904762Y-133452381D02*
X146904762Y-132452381D01*
X146809524Y-132595238D01*
X146714286Y-132690476D01*
X146619048Y-132738095D01*
X147523810Y-132452381D02*
X148142858Y-132452381D01*
X147809524Y-132833333D01*
X147952382Y-132833333D01*
X148047620Y-132880952D01*
X148095239Y-132928571D01*
X148142858Y-133023810D01*
X148142858Y-133261905D01*
X148095239Y-133357143D01*
X148047620Y-133404762D01*
X147952382Y-133452381D01*
X147666667Y-133452381D01*
X147571429Y-133404762D01*
X147523810Y-133357143D01*
X120190477Y-145452381D02*
X120190477Y-146166667D01*
X120142857Y-146309524D01*
X120047619Y-146404762D01*
X119904762Y-146452381D01*
X119809524Y-146452381D01*
X121190477Y-146452381D02*
X120619048Y-146452381D01*
X120904762Y-146452381D02*
X120904762Y-145452381D01*
X120809524Y-145595238D01*
X120714286Y-145690476D01*
X120619048Y-145738095D01*
X122047620Y-145785714D02*
X122047620Y-146452381D01*
X121809524Y-145404762D02*
X121571429Y-146119048D01*
X122190477Y-146119048D01*
X133190477Y-145452381D02*
X133190477Y-146166667D01*
X133142857Y-146309524D01*
X133047619Y-146404762D01*
X132904762Y-146452381D01*
X132809524Y-146452381D01*
X134190477Y-146452381D02*
X133619048Y-146452381D01*
X133904762Y-146452381D02*
X133904762Y-145452381D01*
X133809524Y-145595238D01*
X133714286Y-145690476D01*
X133619048Y-145738095D01*
X135095239Y-145452381D02*
X134619048Y-145452381D01*
X134571429Y-145928571D01*
X134619048Y-145880952D01*
X134714286Y-145833333D01*
X134952382Y-145833333D01*
X135047620Y-145880952D01*
X135095239Y-145928571D01*
X135142858Y-146023810D01*
X135142858Y-146261905D01*
X135095239Y-146357143D01*
X135047620Y-146404762D01*
X134952382Y-146452381D01*
X134714286Y-146452381D01*
X134619048Y-146404762D01*
X134571429Y-146357143D01*
X146190477Y-145452381D02*
X146190477Y-146166667D01*
X146142857Y-146309524D01*
X146047619Y-146404762D01*
X145904762Y-146452381D01*
X145809524Y-146452381D01*
X147190477Y-146452381D02*
X146619048Y-146452381D01*
X146904762Y-146452381D02*
X146904762Y-145452381D01*
X146809524Y-145595238D01*
X146714286Y-145690476D01*
X146619048Y-145738095D01*
X148047620Y-145452381D02*
X147857143Y-145452381D01*
X147761905Y-145500000D01*
X147714286Y-145547619D01*
X147619048Y-145690476D01*
X147571429Y-145880952D01*
X147571429Y-146261905D01*
X147619048Y-146357143D01*
X147666667Y-146404762D01*
X147761905Y-146452381D01*
X147952382Y-146452381D01*
X148047620Y-146404762D01*
X148095239Y-146357143D01*
X148142858Y-146261905D01*
X148142858Y-146023810D01*
X148095239Y-145928571D01*
X148047620Y-145880952D01*
X147952382Y-145833333D01*
X147761905Y-145833333D01*
X147666667Y-145880952D01*
X147619048Y-145928571D01*
X147571429Y-146023810D01*
X119190476Y-82452381D02*
X119857143Y-83452381D01*
X119857143Y-82452381D02*
X119190476Y-83452381D01*
X120190476Y-82547619D02*
X120238095Y-82500000D01*
X120333333Y-82452381D01*
X120571429Y-82452381D01*
X120666667Y-82500000D01*
X120714286Y-82547619D01*
X120761905Y-82642857D01*
X120761905Y-82738095D01*
X120714286Y-82880952D01*
X120142857Y-83452381D01*
X120761905Y-83452381D01*
X140290476Y-82452381D02*
X140957143Y-83452381D01*
X140957143Y-82452381D02*
X140290476Y-83452381D01*
X141861905Y-83452381D02*
X141290476Y-83452381D01*
X141576190Y-83452381D02*
X141576190Y-82452381D01*
X141480952Y-82595238D01*
X141385714Y-82690476D01*
X141290476Y-82738095D01*
%LPC*%
D13*
X143300000Y-93900000D03*
X124000000Y-147900000D03*
X131700000Y-75800000D03*
D14*
X130500000Y-153250000D03*
D15*
X130500000Y-156750000D03*
D16*
X130500000Y-155000000D03*
D17*
X132020000Y-85960000D03*
D18*
X128980000Y-85960000D03*
X132020000Y-88500000D03*
X128980000Y-88500000D03*
X132020000Y-91040000D03*
X128980000Y-91040000D03*
D19*
X115300000Y-61000000D03*
D20*
X124700000Y-61000000D03*
D21*
X120000000Y-56100000D03*
X120000000Y-64300000D03*
D19*
X136300000Y-61000000D03*
D20*
X145700000Y-61000000D03*
D21*
X141000000Y-56100000D03*
X141000000Y-64300000D03*
D19*
X112800000Y-155000000D03*
D20*
X122200000Y-155000000D03*
D21*
X117500000Y-150100000D03*
X117500000Y-158300000D03*
D19*
X138800000Y-155000000D03*
D20*
X148200000Y-155000000D03*
D21*
X143500000Y-150100000D03*
X143500000Y-158300000D03*
D19*
X112800000Y-103000000D03*
D20*
X122200000Y-103000000D03*
D21*
X117500000Y-98100000D03*
X117500000Y-106300000D03*
D19*
X125800000Y-103000000D03*
D20*
X135200000Y-103000000D03*
D21*
X130500000Y-98100000D03*
X130500000Y-106300000D03*
D19*
X138800000Y-103000000D03*
D20*
X148200000Y-103000000D03*
D21*
X143500000Y-98100000D03*
X143500000Y-106300000D03*
D19*
X112800000Y-116000000D03*
D20*
X122200000Y-116000000D03*
D21*
X117500000Y-111100000D03*
X117500000Y-119300000D03*
D19*
X125800000Y-116000000D03*
D20*
X135200000Y-116000000D03*
D21*
X130500000Y-111100000D03*
X130500000Y-119300000D03*
D19*
X138800000Y-116000000D03*
D20*
X148200000Y-116000000D03*
D21*
X143500000Y-111100000D03*
X143500000Y-119300000D03*
D19*
X112800000Y-129000000D03*
D20*
X122200000Y-129000000D03*
D21*
X117500000Y-124100000D03*
X117500000Y-132300000D03*
D19*
X125800000Y-129000000D03*
D20*
X135200000Y-129000000D03*
D21*
X130500000Y-124100000D03*
X130500000Y-132300000D03*
D19*
X138800000Y-129000000D03*
D20*
X148200000Y-129000000D03*
D21*
X143500000Y-124100000D03*
X143500000Y-132300000D03*
D19*
X112800000Y-142000000D03*
D20*
X122200000Y-142000000D03*
D21*
X117500000Y-137100000D03*
X117500000Y-145300000D03*
D19*
X125800000Y-142000000D03*
D20*
X135200000Y-142000000D03*
D21*
X130500000Y-137100000D03*
X130500000Y-145300000D03*
D19*
X138800000Y-142000000D03*
D20*
X148200000Y-142000000D03*
D21*
X143500000Y-137100000D03*
X143500000Y-145300000D03*
D18*
X128980000Y-68310000D03*
X132020000Y-68310000D03*
D17*
X132020000Y-60690000D03*
D18*
X128980000Y-60690000D03*
X132020000Y-63230000D03*
X128980000Y-63230000D03*
X132020000Y-65770000D03*
X128980000Y-65770000D03*
D13*
X114500000Y-93750000D03*
D22*
X114500000Y-83000000D03*
X125500000Y-83000000D03*
X120000000Y-88500000D03*
D23*
X120000000Y-78500000D03*
D22*
X116110000Y-86890000D03*
X123890000Y-86890000D03*
D24*
X120000000Y-78500000D03*
D25*
X115900000Y-83000000D03*
X124100000Y-83000000D03*
D26*
X120000000Y-87100000D03*
D27*
X115968629Y-87031371D02*
X118231371Y-84768629D01*
X121768629Y-84768629D02*
X124031371Y-87031371D01*
D22*
X135500000Y-83000000D03*
X146500000Y-83000000D03*
X141000000Y-88500000D03*
D23*
X141000000Y-78500000D03*
D22*
X137110000Y-86890000D03*
X144890000Y-86890000D03*
D24*
X141000000Y-78500000D03*
D25*
X136900000Y-83000000D03*
X145100000Y-83000000D03*
D26*
X141000000Y-87100000D03*
D27*
X136968629Y-87031371D02*
X139231371Y-84768629D01*
X142768629Y-84768629D02*
X145031371Y-87031371D01*
M02*
