M48
;DRILL file {KiCad 4.0.2-stable} date 2018-10-02 9:53:16 PM
;FORMAT={2:4/ absolute / inch / suppress leading zeros}
FMAT,2
INCH,TZ
T1C0.016
T2C0.018
T3C0.020
T4C0.028
T5C0.039
T6C0.053
T7C0.055
T8C0.059
%
G90
G05
M72
T1
X45079Y-57972
X45965Y-27264
X48071Y-30787
X48071Y-39016
X48351Y-35664
X49134Y-35039
X49685Y-35669
X49803Y-52323
X50344Y-34567
X50472Y-53228
X52244Y-42087
X52559Y-39291
X53228Y-52717
X53346Y-41969
X53366Y-39291
X56693Y-40650
X57677Y-28189
T2
X44291Y-27953
X45394Y-30079
X45945Y-28780
X46161Y-43110
X46949Y-41831
X48031Y-41850
X48228Y-53150
X48740Y-31850
X48740Y-54488
X48819Y-49606
X48829Y-41850
X49882Y-38465
X50984Y-33366
X51575Y-44803
X51732Y-51142
X51811Y-48031
X52569Y-42421
X53150Y-28110
X53780Y-30079
X53898Y-49606
X54331Y-30512
X54331Y-42421
X55354Y-27953
X55866Y-43110
X56988Y-29035
T5
X46878Y-36508
X46878Y-37508
X47878Y-36508
X47878Y-37508
X48878Y-36508
X48878Y-37508
X49878Y-36508
X49878Y-37508
X50197Y-61024
X50681Y-27150
X50681Y-28150
X50681Y-29150
X50878Y-36508
X50878Y-37508
X51378Y-61024
X51681Y-27150
X51681Y-28150
X51681Y-29150
X51878Y-36508
X51878Y-37508
X52559Y-61024
X52878Y-36508
X52878Y-37508
X53878Y-36508
X53878Y-37508
X54878Y-36508
X54878Y-37508
X55878Y-36508
X55878Y-37508
T7
X45138Y-24803
X45772Y-26335
X47303Y-26969
X48835Y-26335
X49469Y-24803
X53012Y-24803
X53646Y-26335
X55177Y-26969
X56709Y-26335
X57343Y-24803
T8
X47303Y-23031
X55177Y-23031
T3
X45866Y-31535G85X46654Y-31535
G05
X45866Y-34764G85X46654Y-34764
G05
X46654Y-39252G85X45866Y-39252
G05
X46654Y-42480G85X45866Y-42480
G05
X45866Y-43740G85X46654Y-43740
G05
X45866Y-46969G85X46654Y-46969
G05
X45866Y-48858G85X46654Y-48858
G05
X45866Y-52087G85X46654Y-52087
G05
X45866Y-53976G85X46654Y-53976
G05
X45866Y-57205G85X46654Y-57205
G05
X45866Y-59094G85X46654Y-59094
G05
X45866Y-62323G85X46654Y-62323
G05
X50984Y-31535G85X51772Y-31535
G05
X50984Y-34764G85X51772Y-34764
G05
X51772Y-39252G85X50984Y-39252
G05
X51772Y-42480G85X50984Y-42480
G05
X50984Y-43740G85X51772Y-43740
G05
X50984Y-46969G85X51772Y-46969
G05
X50984Y-48858G85X51772Y-48858
G05
X50984Y-52087G85X51772Y-52087
G05
X50984Y-53976G85X51772Y-53976
G05
X50984Y-57205G85X51772Y-57205
G05
X56102Y-31535G85X56890Y-31535
G05
X56102Y-34764G85X56890Y-34764
G05
X56890Y-39252G85X56102Y-39252
G05
X56890Y-42480G85X56102Y-42480
G05
X56102Y-43740G85X56890Y-43740
G05
X56102Y-46969G85X56890Y-46969
G05
X56102Y-48858G85X56890Y-48858
G05
X56102Y-52087G85X56890Y-52087
G05
X56102Y-53976G85X56890Y-53976
G05
X56102Y-57205G85X56890Y-57205
G05
X56102Y-59094G85X56890Y-59094
G05
X56102Y-62323G85X56890Y-62323
G05
T4
X48819Y-60915G85X48819Y-61132
G05
X53937Y-60915G85X53937Y-61132
G05
T5
X44409Y-33169G85X44409Y-33760
G05
X44409Y-40650G85X44409Y-40453
G05
X44409Y-45374G85X44409Y-45965
G05
X44409Y-50492G85X44409Y-51083
G05
X44409Y-55610G85X44409Y-56201
G05
X44409Y-60728G85X44409Y-61319
G05
X45059Y-24803G85X46319Y-24803
G05
X45716Y-26390G85X46607Y-25499
G05
X47303Y-27047G85X47303Y-25787
G05
X48110Y-33366G85X48110Y-33563
G05
X48110Y-40846G85X48110Y-40256
G05
X48110Y-45571G85X48110Y-45768
G05
X48110Y-50689G85X48110Y-50886
G05
X48110Y-55807G85X48110Y-56004
G05
X48110Y-60925G85X48110Y-61122
G05
X47999Y-25499G85X48890Y-26390
G05
X48287Y-24803G85X49547Y-24803
G05
X49528Y-33169G85X49528Y-33760
G05
X49528Y-40650G85X49528Y-40453
G05
X49528Y-45374G85X49528Y-45965
G05
X49528Y-50492G85X49528Y-51083
G05
X49528Y-55610G85X49528Y-56201
G05
X53228Y-33366G85X53228Y-33563
G05
X53228Y-40846G85X53228Y-40256
G05
X53228Y-45571G85X53228Y-45768
G05
X53228Y-50689G85X53228Y-50886
G05
X53228Y-55807G85X53228Y-56004
G05
X52933Y-24803G85X54193Y-24803
G05
X53590Y-26390G85X54481Y-25499
G05
X54646Y-33169G85X54646Y-33760
G05
X54646Y-40650G85X54646Y-40453
G05
X54646Y-45374G85X54646Y-45965
G05
X54646Y-50492G85X54646Y-51083
G05
X54646Y-55610G85X54646Y-56201
G05
X54646Y-60728G85X54646Y-61319
G05
X55177Y-27047G85X55177Y-25787
G05
X55873Y-25499G85X56764Y-26390
G05
X56161Y-24803G85X57421Y-24803
G05
X58346Y-33366G85X58346Y-33563
G05
X58346Y-40846G85X58346Y-40256
G05
X58346Y-45571G85X58346Y-45768
G05
X58346Y-50689G85X58346Y-50886
G05
X58346Y-55807G85X58346Y-56004
G05
X58346Y-60925G85X58346Y-61122
G05
T6
X46683Y-23031G85X47923Y-23031
G05
X54557Y-23031G85X55797Y-23031
G05
T0
M30
